LibraSans-Bold.ufo
<glyph name="dollar" format="1">
  <advance width="556"/>
  <unicode hex="0024"/>
  <outline>
    <contour>
      <point x="542" y="201" type="curve" smooth="yes"/>
      <point x="542" y="84"/>
      <point x="462" y="18"/>
      <point x="307" y="11" type="curve"/>
      <point x="307" y="-74" type="line"/>
      <point x="254" y="-74" type="line"/>
      <point x="254" y="10" type="line"/>
      <point x="114" y="15"/>
      <point x="38" y="74"/>
      <point x="13" y="199" type="curve"/>
      <point x="138" y="222" type="line"/>
      <point x="150" y="149"/>
      <point x="186" y="118"/>
      <point x="254" y="111" type="curve"/>
      <point x="254" y="302" type="line" smooth="yes"/>
      <point x="251" y="303"/>
      <point x="242" y="305"/>
      <point x="239" y="305" type="curve" smooth="yes"/>
      <point x="186" y="317"/>
      <point x="146" y="331"/>
      <point x="119" y="348" type="curve" smooth="yes"/>
      <point x="66" y="381"/>
      <point x="35" y="430"/>
      <point x="35" y="503" type="curve" smooth="yes"/>
      <point x="35" y="611"/>
      <point x="111" y="672"/>
      <point x="254" y="677" type="curve"/>
      <point x="254" y="742" type="line"/>
      <point x="307" y="742" type="line"/>
      <point x="307" y="677" type="line"/>
      <point x="437" y="667"/>
      <point x="493" y="633"/>
      <point x="525" y="506" type="curve"/>
      <point x="396" y="487" type="line"/>
      <point x="387" y="543"/>
      <point x="359" y="574"/>
      <point x="307" y="581" type="curve"/>
      <point x="307" y="409" type="line"/>
      <point x="313" y="408" type="line" smooth="yes"/>
      <point x="322" y="408"/>
      <point x="351" y="400"/>
      <point x="399" y="384" type="curve" smooth="yes"/>
      <point x="495" y="353"/>
      <point x="542" y="293"/>
    </contour>
    <contour>
      <point x="254" y="421" type="curve"/>
      <point x="254" y="583" type="line"/>
      <point x="193" y="578"/>
      <point x="163" y="552"/>
      <point x="163" y="505" type="curve" smooth="yes"/>
      <point x="163" y="490"/>
      <point x="165" y="478"/>
      <point x="170" y="469" type="curve" smooth="yes"/>
      <point x="175" y="460"/>
      <point x="183" y="452"/>
      <point x="192" y="446" type="curve" smooth="yes"/>
      <point x="202" y="440"/>
      <point x="223" y="432"/>
    </contour>
    <contour>
      <point x="415" y="199" type="curve" smooth="yes"/>
      <point x="415" y="216"/>
      <point x="412" y="229"/>
      <point x="406" y="239" type="curve" smooth="yes"/>
      <point x="400" y="249"/>
      <point x="391" y="257"/>
      <point x="380" y="264" type="curve" smooth="yes"/>
      <point x="369" y="271"/>
      <point x="345" y="279"/>
      <point x="307" y="290" type="curve"/>
      <point x="307" y="111" type="line"/>
      <point x="379" y="116"/>
      <point x="415" y="145"/>
    </contour>
  </outline>
</glyph>
<glyph name="percent" format="1">
  <advance width="889"/>
  <unicode hex="0025"/>
  <outline>
    <contour>
      <point x="863" y="211" type="curve" smooth="yes"/>
      <point x="863" y="68"/>
      <point x="803" y="-8"/>
      <point x="690" y="-8" type="curve" smooth="yes"/>
      <point x="575" y="-8"/>
      <point x="517" y="68"/>
      <point x="517" y="211" type="curve" smooth="yes"/>
      <point x="517" y="356"/>
      <point x="571" y="430"/>
      <point x="692" y="430" type="curve" smooth="yes"/>
      <point x="809" y="430"/>
      <point x="863" y="355"/>
    </contour>
    <contour>
      <point x="720" y="688" type="line"/>
      <point x="270" y="0" type="line"/>
      <point x="169" y="0" type="line"/>
      <point x="618" y="688" type="line"/>
    </contour>
    <contour>
      <point x="199" y="696" type="curve" smooth="yes"/>
      <point x="316" y="696"/>
      <point x="371" y="621"/>
      <point x="371" y="477" type="curve" smooth="yes"/>
      <point x="371" y="336"/>
      <point x="312" y="258"/>
      <point x="197" y="258" type="curve" smooth="yes"/>
      <point x="84" y="258"/>
      <point x="25" y="334"/>
      <point x="25" y="477" type="curve" smooth="yes"/>
      <point x="25" y="625"/>
      <point x="79" y="696"/>
    </contour>
    <contour>
      <point x="758" y="211" type="curve" smooth="yes"/>
      <point x="758" y="315"/>
      <point x="740" y="355"/>
      <point x="692" y="355" type="curve" smooth="yes"/>
      <point x="640" y="355"/>
      <point x="623" y="314"/>
      <point x="623" y="211" type="curve" smooth="yes"/>
      <point x="623" y="107"/>
      <point x="642" y="69"/>
      <point x="691" y="69" type="curve" smooth="yes"/>
      <point x="739" y="69"/>
      <point x="758" y="110"/>
    </contour>
    <contour>
      <point x="265" y="477" type="curve" smooth="yes"/>
      <point x="265" y="580"/>
      <point x="247" y="620"/>
      <point x="199" y="620" type="curve" smooth="yes"/>
      <point x="147" y="620"/>
      <point x="130" y="580"/>
      <point x="130" y="477" type="curve" smooth="yes"/>
      <point x="130" y="374"/>
      <point x="150" y="334"/>
      <point x="198" y="334" type="curve" smooth="yes"/>
      <point x="246" y="334"/>
      <point x="265" y="374"/>
    </contour>
  </outline>
</glyph>
<glyph name="quotesingle" format="1">
  <advance width="238"/>
  <unicode hex="0027"/>
  <outline>
    <contour>
      <point x="186" y="688" type="line"/>
      <point x="173" y="438" type="line"/>
      <point x="66" y="438" type="line"/>
      <point x="53" y="688" type="line"/>
    </contour>
  </outline>
</glyph>
<glyph name="parenleft" format="1">
  <advance width="333"/>
  <unicode hex="0028"/>
  <outline>
    <contour>
      <point x="332" y="-208" type="curve"/>
      <point x="195" y="-208" type="line"/>
      <point x="144" y="-134"/>
      <point x="107" y="-60"/>
      <point x="84" y="13" type="curve" smooth="yes"/>
      <point x="61" y="86"/>
      <point x="50" y="168"/>
      <point x="50" y="259" type="curve" smooth="yes"/>
      <point x="50" y="350"/>
      <point x="61" y="432"/>
      <point x="84" y="505" type="curve" smooth="yes"/>
      <point x="107" y="578"/>
      <point x="144" y="652"/>
      <point x="195" y="725" type="curve"/>
      <point x="332" y="725" type="line"/>
      <point x="281" y="650"/>
      <point x="243" y="576"/>
      <point x="220" y="503" type="curve" smooth="yes"/>
      <point x="197" y="430"/>
      <point x="185" y="348"/>
      <point x="185" y="259" type="curve" smooth="yes"/>
      <point x="185" y="170"/>
      <point x="196" y="88"/>
      <point x="219" y="15" type="curve" smooth="yes"/>
      <point x="242" y="-58"/>
      <point x="280" y="-132"/>
    </contour>
  </outline>
</glyph>
<glyph name="asterisk" format="1">
  <advance width="389"/>
  <unicode hex="002A"/>
  <outline>
    <contour>
      <point x="249" y="688" type="line"/>
      <point x="240" y="554" type="line"/>
      <point x="355" y="605" type="line"/>
      <point x="388" y="509" type="line"/>
      <point x="266" y="479" type="line"/>
      <point x="357" y="375" type="line"/>
      <point x="267" y="316" type="line"/>
      <point x="196" y="439" type="line"/>
      <point x="123" y="316" type="line"/>
      <point x="32" y="376" type="line"/>
      <point x="125" y="479" type="line"/>
      <point x="3" y="509" type="line"/>
      <point x="36" y="605" type="line"/>
      <point x="153" y="554" type="line"/>
      <point x="144" y="688" type="line"/>
    </contour>
  </outline>
</glyph>
<glyph name="plus" format="1">
  <advance width="584"/>
  <unicode hex="002B"/>
  <outline>
    <contour>
      <point x="543" y="278" type="line"/>
      <point x="347" y="278" type="line"/>
      <point x="347" y="79" type="line"/>
      <point x="237" y="79" type="line"/>
      <point x="237" y="278" type="line"/>
      <point x="42" y="278" type="line"/>
      <point x="42" y="387" type="line"/>
      <point x="237" y="387" type="line"/>
      <point x="237" y="586" type="line"/>
      <point x="347" y="586" type="line"/>
      <point x="347" y="387" type="line"/>
      <point x="543" y="387" type="line"/>
    </contour>
  </outline>
</glyph>
<glyph name="comma" format="1">
  <advance width="278"/>
  <unicode hex="002C"/>
  <outline>
    <contour>
      <point x="211" y="149" type="line"/>
      <point x="211" y="32" type="line" smooth="yes"/>
      <point x="211" y="-45"/>
      <point x="195" y="-103"/>
      <point x="158" y="-155" type="curve"/>
      <point x="68" y="-155" type="line"/>
      <point x="107" y="-108"/>
      <point x="133" y="-49"/>
      <point x="133" y="0" type="curve"/>
      <point x="70" y="0" type="line"/>
      <point x="70" y="149" type="line"/>
    </contour>
  </outline>
</glyph>
<glyph name="one" format="1">
  <advance width="556"/>
  <unicode hex="0031"/>
  <outline>
    <contour>
      <point x="528" y="0" type="line"/>
      <point x="63" y="0" type="line"/>
      <point x="63" y="102" type="line"/>
      <point x="233" y="102" type="line"/>
      <point x="233" y="571" type="line"/>
      <point x="68" y="468" type="line"/>
      <point x="68" y="576" type="line"/>
      <point x="241" y="688" type="line"/>
      <point x="371" y="688" type="line"/>
      <point x="371" y="102" type="line"/>
      <point x="528" y="102" type="line"/>
    </contour>
  </outline>
</glyph>
<glyph name="three" format="1">
  <advance width="556"/>
  <unicode hex="0033"/>
  <outline>
    <contour>
      <point x="520" y="191" type="curve" smooth="yes"/>
      <point x="520" y="62"/>
      <point x="432" y="-11"/>
      <point x="276" y="-11" type="curve" smooth="yes"/>
      <point x="128" y="-11"/>
      <point x="38" y="59"/>
      <point x="23" y="187" type="curve"/>
      <point x="163" y="199" type="line"/>
      <point x="172" y="133"/>
      <point x="209" y="100"/>
      <point x="275" y="100" type="curve" smooth="yes"/>
      <point x="342" y="100"/>
      <point x="379" y="132"/>
      <point x="379" y="199" type="curve" smooth="yes"/>
      <point x="379" y="260"/>
      <point x="335" y="294"/>
      <point x="248" y="294" type="curve" smooth="yes"/>
      <point x="200" y="294" type="line"/>
      <point x="200" y="405" type="line"/>
      <point x="245" y="405" type="line" smooth="yes"/>
      <point x="324" y="405"/>
      <point x="363" y="438"/>
      <point x="363" y="498" type="curve" smooth="yes"/>
      <point x="363" y="555"/>
      <point x="331" y="589"/>
      <point x="271" y="589" type="curve" smooth="yes"/>
      <point x="214" y="589"/>
      <point x="177" y="556"/>
      <point x="172" y="499" type="curve"/>
      <point x="35" y="509" type="line"/>
      <point x="48" y="628"/>
      <point x="137" y="698"/>
      <point x="273" y="698" type="curve" smooth="yes"/>
      <point x="417" y="698"/>
      <point x="502" y="630"/>
      <point x="502" y="515" type="curve" smooth="yes"/>
      <point x="502" y="430"/>
      <point x="451" y="373"/>
      <point x="355" y="354" type="curve"/>
      <point x="355" y="352" type="line"/>
      <point x="462" y="340"/>
      <point x="520" y="279"/>
    </contour>
  </outline>
</glyph>
<glyph name="four" format="1">
  <advance width="556"/>
  <unicode hex="0034"/>
  <outline>
    <contour>
      <point x="551" y="140" type="line"/>
      <point x="459" y="140" type="line"/>
      <point x="459" y="0" type="line"/>
      <point x="328" y="0" type="line"/>
      <point x="328" y="140" type="line"/>
      <point x="15" y="140" type="line"/>
      <point x="15" y="243" type="line"/>
      <point x="306" y="688" type="line"/>
      <point x="459" y="688" type="line"/>
      <point x="459" y="242" type="line"/>
      <point x="551" y="242" type="line"/>
    </contour>
    <contour>
      <point x="328" y="242" type="line"/>
      <point x="328" y="467" type="line" smooth="yes"/>
      <point x="328" y="503"/>
      <point x="332" y="552"/>
      <point x="333" y="564" type="curve"/>
      <point x="324" y="546"/>
      <point x="309" y="520"/>
      <point x="287" y="485" type="curve" smooth="yes"/>
      <point x="127" y="242" type="line"/>
    </contour>
  </outline>
</glyph>
<glyph name="six" format="1">
  <advance width="556"/>
  <unicode hex="0036"/>
  <outline>
    <contour>
      <point x="520" y="225" type="curve" smooth="yes"/>
      <point x="520" y="78"/>
      <point x="433" y="-10"/>
      <point x="289" y="-10" type="curve" smooth="yes"/>
      <point x="126" y="-10"/>
      <point x="37" y="105"/>
      <point x="37" y="328" type="curve" smooth="yes"/>
      <point x="37" y="573"/>
      <point x="128" y="698"/>
      <point x="292" y="698" type="curve" smooth="yes"/>
      <point x="408" y="698"/>
      <point x="473" y="648"/>
      <point x="501" y="540" type="curve"/>
      <point x="372" y="522" type="line"/>
      <point x="360" y="567"/>
      <point x="332" y="590"/>
      <point x="289" y="590" type="curve" smooth="yes"/>
      <point x="216" y="590"/>
      <point x="171" y="516"/>
      <point x="171" y="367" type="curve"/>
      <point x="200" y="416"/>
      <point x="255" y="443"/>
      <point x="320" y="443" type="curve" smooth="yes"/>
      <point x="444" y="443"/>
      <point x="520" y="360"/>
    </contour>
    <contour>
      <point x="382" y="221" type="curve" smooth="yes"/>
      <point x="382" y="300"/>
      <point x="344" y="342"/>
      <point x="281" y="342" type="curve" smooth="yes"/>
      <point x="220" y="342"/>
      <point x="181" y="300"/>
      <point x="181" y="236" type="curve" smooth="yes"/>
      <point x="181" y="156"/>
      <point x="223" y="97"/>
      <point x="284" y="97" type="curve" smooth="yes"/>
      <point x="347" y="97"/>
      <point x="382" y="144"/>
    </contour>
  </outline>
</glyph>
<glyph name="seven" format="1">
  <advance width="556"/>
  <unicode hex="0037"/>
  <outline>
    <contour>
      <point x="512" y="688" type="line"/>
      <point x="512" y="579" type="line"/>
      <point x="389" y="383"/>
      <point x="286" y="220"/>
      <point x="286" y="0" type="curve"/>
      <point x="143" y="0" type="line"/>
      <point x="143" y="57"/>
      <point x="150" y="113"/>
      <point x="165" y="166" type="curve" smooth="yes"/>
      <point x="180" y="220"/>
      <point x="202" y="275"/>
      <point x="230" y="330" type="curve" smooth="yes"/>
      <point x="259" y="385"/>
      <point x="310" y="467"/>
      <point x="385" y="575" type="curve"/>
      <point x="43" y="575" type="line"/>
      <point x="43" y="688" type="line"/>
    </contour>
  </outline>
</glyph>
<glyph name="nine" format="1">
  <advance width="556"/>
  <unicode hex="0039"/>
  <outline>
    <contour>
      <point x="519" y="355" type="curve" smooth="yes"/>
      <point x="519" y="111"/>
      <point x="426" y="-10"/>
      <point x="262" y="-10" type="curve" smooth="yes"/>
      <point x="141" y="-10"/>
      <point x="75" y="40"/>
      <point x="47" y="152" type="curve"/>
      <point x="176" y="170" type="line"/>
      <point x="189" y="122"/>
      <point x="218" y="98"/>
      <point x="264" y="98" type="curve" smooth="yes"/>
      <point x="340" y="98"/>
      <point x="383" y="172"/>
      <point x="384" y="317" type="curve"/>
      <point x="360" y="268"/>
      <point x="297" y="239"/>
      <point x="232" y="239" type="curve" smooth="yes"/>
      <point x="112" y="239"/>
      <point x="35" y="327"/>
      <point x="35" y="468" type="curve" smooth="yes"/>
      <point x="35" y="612"/>
      <point x="122" y="698"/>
      <point x="275" y="698" type="curve" smooth="yes"/>
      <point x="439" y="698"/>
      <point x="519" y="584"/>
    </contour>
    <contour>
      <point x="374" y="451" type="curve" smooth="yes"/>
      <point x="374" y="536"/>
      <point x="334" y="591"/>
      <point x="271" y="591" type="curve" smooth="yes"/>
      <point x="211" y="591"/>
      <point x="174" y="544"/>
      <point x="174" y="467" type="curve" smooth="yes"/>
      <point x="174" y="391"/>
      <point x="211" y="341"/>
      <point x="272" y="341" type="curve" smooth="yes"/>
      <point x="331" y="341"/>
      <point x="374" y="384"/>
    </contour>
  </outline>
</glyph>
<glyph name="equal" format="1">
  <advance width="584"/>
  <unicode hex="003D"/>
  <outline>
    <contour>
      <point x="543" y="411" type="line"/>
      <point x="42" y="411" type="line"/>
      <point x="42" y="520" type="line"/>
      <point x="543" y="520" type="line"/>
    </contour>
    <contour>
      <point x="543" y="142" type="line"/>
      <point x="42" y="142" type="line"/>
      <point x="42" y="250" type="line"/>
      <point x="543" y="250" type="line"/>
    </contour>
  </outline>
</glyph>
<glyph name="greater" format="1">
  <advance width="584"/>
  <unicode hex="003E"/>
  <outline>
    <contour>
      <point x="543" y="252" type="line"/>
      <point x="42" y="61" type="line"/>
      <point x="42" y="172" type="line"/>
      <point x="448" y="330" type="line"/>
      <point x="42" y="489" type="line"/>
      <point x="42" y="600" type="line"/>
      <point x="543" y="409" type="line"/>
    </contour>
  </outline>
</glyph>
<glyph name="question" format="1">
  <advance width="611"/>
  <unicode hex="003F"/>
  <outline>
    <contour>
      <point x="553" y="501" type="curve" smooth="yes"/>
      <point x="553" y="438"/>
      <point x="530" y="392"/>
      <point x="453" y="337" type="curve" smooth="yes"/>
      <point x="416" y="310" type="line" smooth="yes"/>
      <point x="371" y="278"/>
      <point x="351" y="247"/>
      <point x="348" y="208" type="curve"/>
      <point x="218" y="208" type="line"/>
      <point x="222" y="275"/>
      <point x="255" y="325"/>
      <point x="320" y="370" type="curve" smooth="yes"/>
      <point x="389" y="418"/>
      <point x="415" y="450"/>
      <point x="415" y="495" type="curve" smooth="yes"/>
      <point x="415" y="552"/>
      <point x="376" y="588"/>
      <point x="307" y="588" type="curve" smooth="yes"/>
      <point x="242" y="588"/>
      <point x="193" y="546"/>
      <point x="185" y="483" type="curve"/>
      <point x="46" y="489" type="line"/>
      <point x="63" y="621"/>
      <point x="160" y="698"/>
      <point x="305" y="698" type="curve" smooth="yes"/>
      <point x="460" y="698"/>
      <point x="553" y="624"/>
    </contour>
    <contour>
      <point x="355" y="0" type="line"/>
      <point x="214" y="0" type="line"/>
      <point x="214" y="132" type="line"/>
      <point x="355" y="132" type="line"/>
    </contour>
  </outline>
</glyph>
<glyph name="at" format="1">
  <advance width="975"/>
  <unicode hex="0040"/>
  <outline>
    <contour>
      <point x="917" y="354" type="curve" smooth="yes"/>
      <point x="920" y="177"/>
      <point x="810" y="32"/>
      <point x="682" y="36" type="curve" smooth="yes"/>
      <point x="622" y="36"/>
      <point x="589" y="68"/>
      <point x="589" y="120" type="curve" smooth="yes"/>
      <point x="589" y="132"/>
      <point x="590" y="143"/>
      <point x="592" y="153" type="curve"/>
      <point x="589" y="153" type="line"/>
      <point x="572" y="119"/>
      <point x="548" y="91"/>
      <point x="516" y="69" type="curve" smooth="yes"/>
      <point x="484" y="47"/>
      <point x="451" y="36"/>
      <point x="418" y="36" type="curve" smooth="yes"/>
      <point x="315" y="36"/>
      <point x="257" y="105"/>
      <point x="257" y="224" type="curve" smooth="yes"/>
      <point x="254" y="384"/>
      <point x="363" y="528"/>
      <point x="501" y="523" type="curve" smooth="yes"/>
      <point x="564" y="523"/>
      <point x="607" y="495"/>
      <point x="630" y="438" type="curve"/>
      <point x="633" y="438" type="line"/>
      <point x="652" y="512" type="line"/>
      <point x="728" y="512" type="line"/>
      <point x="671" y="265" type="line" smooth="yes"/>
      <point x="659" y="209"/>
      <point x="653" y="170"/>
      <point x="653" y="148" type="curve" smooth="yes"/>
      <point x="653" y="116"/>
      <point x="671" y="103"/>
      <point x="691" y="103" type="curve" smooth="yes"/>
      <point x="769" y="101"/>
      <point x="846" y="219"/>
      <point x="843" y="353" type="curve"/>
      <point x="846" y="523"/>
      <point x="720" y="644"/>
      <point x="534" y="641" type="curve" smooth="yes"/>
      <point x="456" y="641"/>
      <point x="387" y="624"/>
      <point x="327" y="590" type="curve" smooth="yes"/>
      <point x="268" y="556"/>
      <point x="221" y="507"/>
      <point x="187" y="442" type="curve" smooth="yes"/>
      <point x="153" y="377"/>
      <point x="136" y="305"/>
      <point x="136" y="225" type="curve" smooth="yes"/>
      <point x="136" y="31"/>
      <point x="260" y="-88"/>
      <point x="449" y="-88" type="curve" smooth="yes"/>
      <point x="545" y="-88"/>
      <point x="641" y="-63"/>
      <point x="737" y="-12" type="curve"/>
      <point x="767" y="-72" type="line"/>
      <point x="658" y="-133"/>
      <point x="555" y="-158"/>
      <point x="446" y="-158" type="curve" smooth="yes"/>
      <point x="217" y="-162"/>
      <point x="55" y="-4"/>
      <point x="57" y="225" type="curve" smooth="yes"/>
      <point x="57" y="317"/>
      <point x="78" y="400"/>
      <point x="119" y="475" type="curve" smooth="yes"/>
      <point x="202" y="624"/>
      <point x="353" y="710"/>
      <point x="533" y="710" type="curve" smooth="yes"/>
      <point x="773" y="710"/>
      <point x="917" y="568"/>
    </contour>
    <contour>
      <point x="601" y="352" type="curve" smooth="yes"/>
      <point x="601" y="413"/>
      <point x="558" y="457"/>
      <point x="497" y="457" type="curve" smooth="yes"/>
      <point x="466" y="457"/>
      <point x="439" y="447"/>
      <point x="414" y="426" type="curve" smooth="yes"/>
      <point x="366" y="386"/>
      <point x="338" y="304"/>
      <point x="338" y="225" type="curve" smooth="yes"/>
      <point x="338" y="150"/>
      <point x="369" y="105"/>
      <point x="434" y="105" type="curve" smooth="yes"/>
      <point x="477" y="105"/>
      <point x="519" y="133"/>
      <point x="551" y="185" type="curve" smooth="yes"/>
      <point x="567" y="211"/>
      <point x="579" y="240"/>
      <point x="588" y="273" type="curve" smooth="yes"/>
      <point x="597" y="306"/>
      <point x="601" y="333"/>
    </contour>
  </outline>
</glyph>
<glyph name="D" format="1">
  <advance width="722"/>
  <unicode hex="0044"/>
  <outline>
    <contour>
      <point x="680" y="349" type="curve" smooth="yes"/>
      <point x="683" y="137"/>
      <point x="543" y="-3"/>
      <point x="345" y="0" type="curve" smooth="yes"/>
      <point x="67" y="0" type="line"/>
      <point x="67" y="688" type="line"/>
      <point x="316" y="688" type="line" smooth="yes"/>
      <point x="548" y="688"/>
      <point x="680" y="568"/>
    </contour>
    <contour>
      <point x="535" y="349" type="curve" smooth="yes"/>
      <point x="535" y="497"/>
      <point x="456" y="577"/>
      <point x="313" y="577" type="curve" smooth="yes"/>
      <point x="211" y="577" type="line"/>
      <point x="211" y="111" type="line"/>
      <point x="333" y="111" type="line" smooth="yes"/>
      <point x="457" y="111"/>
      <point x="535" y="202"/>
    </contour>
  </outline>
</glyph>
<glyph name="U" format="1">
  <advance width="722"/>
  <unicode hex="0055"/>
  <outline>
    <contour>
      <point x="353" y="-10" type="curve" smooth="yes"/>
      <point x="164" y="-10"/>
      <point x="60" y="86"/>
      <point x="60" y="258" type="curve" smooth="yes"/>
      <point x="60" y="688" type="line"/>
      <point x="204" y="688" type="line"/>
      <point x="204" y="269" type="line" smooth="yes"/>
      <point x="204" y="161"/>
      <point x="257" y="103"/>
      <point x="357" y="103" type="curve" smooth="yes"/>
      <point x="460" y="103"/>
      <point x="517" y="163"/>
      <point x="517" y="274" type="curve" smooth="yes"/>
      <point x="517" y="688" type="line"/>
      <point x="661" y="688" type="line"/>
      <point x="661" y="265" type="line" smooth="yes"/>
      <point x="661" y="90"/>
      <point x="549" y="-10"/>
    </contour>
  </outline>
</glyph>
<glyph name="Y" format="1">
  <advance width="667"/>
  <unicode hex="0059"/>
  <outline>
    <contour>
      <point x="651" y="688" type="line"/>
      <point x="406" y="282" type="line"/>
      <point x="406" y="0" type="line"/>
      <point x="262" y="0" type="line"/>
      <point x="262" y="282" type="line"/>
      <point x="17" y="688" type="line"/>
      <point x="168" y="688" type="line"/>
      <point x="333" y="397" type="line"/>
      <point x="500" y="688" type="line"/>
    </contour>
  </outline>
</glyph>
<glyph name="bracketleft" format="1">
  <advance width="333"/>
  <unicode hex="005B"/>
  <outline>
    <contour>
      <point x="321" y="-208" type="line"/>
      <point x="56" y="-208" type="line"/>
      <point x="56" y="725" type="line"/>
      <point x="321" y="725" type="line"/>
      <point x="321" y="632" type="line"/>
      <point x="186" y="632" type="line"/>
      <point x="186" y="-114" type="line"/>
      <point x="321" y="-114" type="line"/>
    </contour>
  </outline>
</glyph>
<glyph name="backslash" format="1">
  <advance width="278"/>
  <unicode hex="005C"/>
  <outline>
    <contour>
      <point x="269" y="-20" type="line"/>
      <point x="150" y="-20" type="line"/>
      <point x="10" y="725" type="line"/>
      <point x="126" y="725" type="line"/>
    </contour>
  </outline>
</glyph>
<glyph name="bracketright" format="1">
  <advance width="333"/>
  <unicode hex="005D"/>
  <outline>
    <contour>
      <point x="277" y="-208" type="line"/>
      <point x="12" y="-208" type="line"/>
      <point x="12" y="-114" type="line"/>
      <point x="148" y="-114" type="line"/>
      <point x="148" y="632" type="line"/>
      <point x="12" y="632" type="line"/>
      <point x="12" y="725" type="line"/>
      <point x="277" y="725" type="line"/>
    </contour>
  </outline>
</glyph>
<glyph name="asciicircum" format="1">
  <advance width="584"/>
  <unicode hex="005E"/>
  <outline>
    <contour>
      <point x="562" y="251" type="line"/>
      <point x="450" y="251" type="line"/>
      <point x="291" y="618" type="line"/>
      <point x="133" y="251" type="line"/>
      <point x="22" y="251" type="line"/>
      <point x="213" y="688" type="line"/>
      <point x="370" y="688" type="line"/>
    </contour>
  </outline>
</glyph>
<glyph name="a" format="1">
  <advance width="556"/>
  <unicode hex="0061"/>
  <outline>
    <contour>
      <point x="192" y="-10" type="curve" smooth="yes"/>
      <point x="89" y="-10"/>
      <point x="29" y="49"/>
      <point x="29" y="149" type="curve" smooth="yes"/>
      <point x="29" y="258"/>
      <point x="102" y="317"/>
      <point x="238" y="318" type="curve" smooth="yes"/>
      <point x="352" y="320" type="line"/>
      <point x="352" y="347" type="line" smooth="yes"/>
      <point x="352" y="416"/>
      <point x="329" y="449"/>
      <point x="274" y="449" type="curve" smooth="yes"/>
      <point x="223" y="449"/>
      <point x="203" y="428"/>
      <point x="196" y="375" type="curve"/>
      <point x="53" y="381" type="line"/>
      <point x="70" y="484"/>
      <point x="148" y="538"/>
      <point x="280" y="538" type="curve" smooth="yes"/>
      <point x="413" y="538"/>
      <point x="489" y="469"/>
      <point x="489" y="349" type="curve" smooth="yes"/>
      <point x="489" y="156" type="line" smooth="yes"/>
      <point x="489" y="97"/>
      <point x="501" y="78"/>
      <point x="532" y="78" type="curve" smooth="yes"/>
      <point x="543" y="78"/>
      <point x="553" y="79"/>
      <point x="563" y="81" type="curve"/>
      <point x="563" y="7" type="line"/>
      <point x="530" y="-1"/>
      <point x="513" y="-6"/>
      <point x="475" y="-6" type="curve" smooth="yes"/>
      <point x="406" y="-6"/>
      <point x="376" y="29"/>
      <point x="369" y="94" type="curve"/>
      <point x="366" y="94" type="line"/>
      <point x="327" y="25"/>
      <point x="269" y="-10"/>
    </contour>
    <contour>
      <point x="352" y="218" type="curve" smooth="yes"/>
      <point x="352" y="245" type="line"/>
      <point x="281" y="244" type="line" smooth="yes"/>
      <point x="249" y="243"/>
      <point x="226" y="239"/>
      <point x="213" y="233" type="curve" smooth="yes"/>
      <point x="186" y="222"/>
      <point x="172" y="199"/>
      <point x="172" y="160" type="curve" smooth="yes"/>
      <point x="172" y="111"/>
      <point x="197" y="86"/>
      <point x="236" y="86" type="curve" smooth="yes"/>
      <point x="300" y="86"/>
      <point x="352" y="146"/>
    </contour>
  </outline>
</glyph>
<glyph name="m" format="1">
  <advance width="889"/>
  <unicode hex="006D"/>
  <outline>
    <contour>
      <point x="517" y="0" type="line"/>
      <point x="381" y="0" type="line"/>
      <point x="381" y="296" type="line" smooth="yes"/>
      <point x="381" y="389"/>
      <point x="354" y="436"/>
      <point x="301" y="436" type="curve" smooth="yes"/>
      <point x="245" y="436"/>
      <point x="207" y="374"/>
      <point x="207" y="283" type="curve" smooth="yes"/>
      <point x="207" y="0" type="line"/>
      <point x="70" y="0" type="line"/>
      <point x="70" y="410" type="line" smooth="yes"/>
      <point x="70" y="467"/>
      <point x="67" y="500"/>
      <point x="66" y="528" type="curve"/>
      <point x="197" y="528" type="line"/>
      <point x="198" y="522"/>
      <point x="199" y="505"/>
      <point x="200" y="478" type="curve" smooth="yes"/>
      <point x="202" y="451"/>
      <point x="203" y="433"/>
      <point x="203" y="423" type="curve"/>
      <point x="205" y="423" type="line"/>
      <point x="238" y="504"/>
      <point x="288" y="539"/>
      <point x="359" y="539" type="curve" smooth="yes"/>
      <point x="440" y="539"/>
      <point x="489" y="500"/>
      <point x="506" y="423" type="curve"/>
      <point x="509" y="423" type="line"/>
      <point x="545" y="506"/>
      <point x="592" y="539"/>
      <point x="669" y="539" type="curve" smooth="yes"/>
      <point x="772" y="539"/>
      <point x="827" y="467"/>
      <point x="827" y="335" type="curve" smooth="yes"/>
      <point x="827" y="0" type="line"/>
      <point x="691" y="0" type="line"/>
      <point x="691" y="296" type="line" smooth="yes"/>
      <point x="691" y="389"/>
      <point x="664" y="436"/>
      <point x="611" y="436" type="curve" smooth="yes"/>
      <point x="558" y="436"/>
      <point x="521" y="381"/>
      <point x="517" y="290" type="curve"/>
    </contour>
  </outline>
</glyph>
<glyph name="braceleft" format="1">
  <advance width="389"/>
  <unicode hex="007B"/>
  <outline>
    <contour>
      <point x="368" y="-208" type="line"/>
      <point x="272" y="-208" type="line" smooth="yes"/>
      <point x="185" y="-208"/>
      <point x="128" y="-154"/>
      <point x="128" y="-62" type="curve" smooth="yes"/>
      <point x="128" y="99" type="line" smooth="yes"/>
      <point x="128" y="172"/>
      <point x="93" y="209"/>
      <point x="16" y="210" type="curve"/>
      <point x="16" y="306" type="line"/>
      <point x="95" y="309"/>
      <point x="128" y="345"/>
      <point x="128" y="418" type="curve" smooth="yes"/>
      <point x="128" y="579" type="line" smooth="yes"/>
      <point x="128" y="674"/>
      <point x="183" y="725"/>
      <point x="272" y="725" type="curve" smooth="yes"/>
      <point x="368" y="725" type="line"/>
      <point x="368" y="632" type="line"/>
      <point x="340" y="632" type="line" smooth="yes"/>
      <point x="280" y="632"/>
      <point x="256" y="598"/>
      <point x="256" y="530" type="curve" smooth="yes"/>
      <point x="256" y="383" type="line" smooth="yes"/>
      <point x="256" y="320"/>
      <point x="215" y="272"/>
      <point x="155" y="260" type="curve"/>
      <point x="155" y="258" type="line"/>
      <point x="216" y="243"/>
      <point x="256" y="195"/>
      <point x="256" y="135" type="curve" smooth="yes"/>
      <point x="256" y="-12" type="line" smooth="yes"/>
      <point x="256" y="-81"/>
      <point x="280" y="-114"/>
      <point x="340" y="-114" type="curve" smooth="yes"/>
      <point x="368" y="-114" type="line"/>
    </contour>
  </outline>
</glyph>
<glyph name="bar" format="1">
  <advance width="280"/>
  <unicode hex="007C"/>
  <outline>
    <contour>
      <point x="204" y="-222" type="line"/>
      <point x="76" y="-222" type="line"/>
      <point x="76" y="725" type="line"/>
      <point x="204" y="725" type="line"/>
    </contour>
  </outline>
</glyph>
<glyph name="exclamdown" format="1">
  <advance width="333"/>
  <unicode hex="00A1"/>
  <outline>
    <contour>
      <point x="238" y="396" type="line"/>
      <point x="98" y="396" type="line"/>
      <point x="98" y="528" type="line"/>
      <point x="238" y="528" type="line"/>
    </contour>
    <contour>
      <point x="238" y="-160" type="line"/>
      <point x="95" y="-160" type="line"/>
      <point x="110" y="319" type="line"/>
      <point x="223" y="319" type="line"/>
    </contour>
  </outline>
</glyph>
<glyph name="cent" format="1">
  <advance width="556"/>
  <unicode hex="00A2"/>
  <outline>
    <contour>
      <point x="287" y="166" type="curve" smooth="yes"/>
      <point x="344" y="166"/>
      <point x="386" y="203"/>
      <point x="395" y="268" type="curve"/>
      <point x="533" y="262" type="line"/>
      <point x="518" y="163"/>
      <point x="442" y="91"/>
      <point x="326" y="78" type="curve"/>
      <point x="326" y="-15" type="line"/>
      <point x="247" y="-15" type="line"/>
      <point x="247" y="77" type="line"/>
      <point x="107" y="90"/>
      <point x="25" y="182"/>
      <point x="25" y="335" type="curve" smooth="yes"/>
      <point x="25" y="486"/>
      <point x="104" y="582"/>
      <point x="247" y="598" type="curve"/>
      <point x="247" y="688" type="line"/>
      <point x="326" y="688" type="line"/>
      <point x="326" y="598" type="line"/>
      <point x="437" y="586"/>
      <point x="510" y="523"/>
      <point x="529" y="424" type="curve"/>
      <point x="391" y="417" type="line"/>
      <point x="382" y="476"/>
      <point x="343" y="510"/>
      <point x="286" y="510" type="curve" smooth="yes"/>
      <point x="206" y="510"/>
      <point x="163" y="447"/>
      <point x="163" y="340" type="curve" smooth="yes"/>
      <point x="163" y="227"/>
      <point x="208" y="166"/>
    </contour>
  </outline>
</glyph>
<glyph name="sterling" format="1">
  <advance width="556"/>
  <unicode hex="00A3"/>
  <outline>
    <contour>
      <point x="432" y="196" type="curve"/>
      <point x="546" y="177" type="line"/>
      <point x="526" y="65"/>
      <point x="453" y="0"/>
      <point x="354" y="0" type="curve" smooth="yes"/>
      <point x="16" y="0" type="line"/>
      <point x="16" y="100" type="line"/>
      <point x="81" y="137"/>
      <point x="102" y="182"/>
      <point x="102" y="250" type="curve" smooth="yes"/>
      <point x="102" y="295" type="line"/>
      <point x="10" y="295" type="line"/>
      <point x="10" y="378" type="line"/>
      <point x="97" y="378" type="line"/>
      <point x="97" y="499" type="line" smooth="yes"/>
      <point x="97" y="630"/>
      <point x="168" y="698"/>
      <point x="305" y="698" type="curve" smooth="yes"/>
      <point x="416" y="698"/>
      <point x="475" y="656"/>
      <point x="504" y="556" type="curve"/>
      <point x="390" y="533" type="line"/>
      <point x="377" y="584"/>
      <point x="351" y="605"/>
      <point x="308" y="605" type="curve" smooth="yes"/>
      <point x="248" y="605"/>
      <point x="224" y="569"/>
      <point x="224" y="488" type="curve" smooth="yes"/>
      <point x="224" y="378" type="line"/>
      <point x="364" y="378" type="line"/>
      <point x="364" y="295" type="line"/>
      <point x="224" y="295" type="line"/>
      <point x="224" y="251" type="line" smooth="yes"/>
      <point x="224" y="184"/>
      <point x="200" y="138"/>
      <point x="135" y="102" type="curve"/>
      <point x="321" y="102" type="line" smooth="yes"/>
      <point x="389" y="102"/>
      <point x="421" y="135"/>
    </contour>
  </outline>
</glyph>
<glyph name="currency" format="1">
  <advance width="556"/>
  <unicode hex="00A4"/>
  <outline>
    <contour>
      <point x="65" y="334" type="curve" smooth="yes"/>
      <point x="65" y="373"/>
      <point x="75" y="409"/>
      <point x="95" y="442" type="curve"/>
      <point x="30" y="507" type="line"/>
      <point x="106" y="583" type="line"/>
      <point x="170" y="518" type="line"/>
      <point x="203" y="537"/>
      <point x="239" y="547"/>
      <point x="278" y="547" type="curve" smooth="yes"/>
      <point x="317" y="547"/>
      <point x="353" y="537"/>
      <point x="385" y="518" type="curve"/>
      <point x="451" y="584" type="line"/>
      <point x="528" y="507" type="line"/>
      <point x="461" y="441" type="line"/>
      <point x="481" y="409"/>
      <point x="491" y="373"/>
      <point x="491" y="334" type="curve" smooth="yes"/>
      <point x="491" y="295"/>
      <point x="481" y="260"/>
      <point x="462" y="228" type="curve"/>
      <point x="528" y="163" type="line"/>
      <point x="451" y="85" type="line"/>
      <point x="386" y="151" type="line"/>
      <point x="353" y="132"/>
      <point x="317" y="122"/>
      <point x="278" y="122" type="curve" smooth="yes"/>
      <point x="238" y="122"/>
      <point x="202" y="131"/>
      <point x="170" y="150" type="curve"/>
      <point x="104" y="83" type="line"/>
      <point x="28" y="160" type="line"/>
      <point x="94" y="227" type="line"/>
      <point x="75" y="259"/>
      <point x="65" y="295"/>
    </contour>
    <contour>
      <point x="176" y="335" type="curve" smooth="yes"/>
      <point x="176" y="279"/>
      <point x="221" y="233"/>
      <point x="278" y="233" type="curve" smooth="yes"/>
      <point x="305" y="233"/>
      <point x="329" y="243"/>
      <point x="349" y="263" type="curve" smooth="yes"/>
      <point x="369" y="283"/>
      <point x="379" y="307"/>
      <point x="379" y="335" type="curve" smooth="yes"/>
      <point x="379" y="391"/>
      <point x="334" y="437"/>
      <point x="278" y="437" type="curve" smooth="yes"/>
      <point x="222" y="437"/>
      <point x="176" y="391"/>
    </contour>
  </outline>
</glyph>
<glyph name="brokenbar" format="1">
  <advance width="280"/>
  <unicode hex="00A6"/>
  <outline>
    <contour>
      <point x="204" y="330" type="line"/>
      <point x="76" y="330" type="line"/>
      <point x="76" y="710" type="line"/>
      <point x="204" y="710" type="line"/>
    </contour>
    <contour>
      <point x="204" y="-222" type="line"/>
      <point x="76" y="-222" type="line"/>
      <point x="76" y="158" type="line"/>
      <point x="204" y="158" type="line"/>
    </contour>
  </outline>
</glyph>
<glyph name="section" format="1">
  <advance width="556"/>
  <unicode hex="00A7"/>
  <outline>
    <contour>
      <point x="281" y="697" type="curve" smooth="yes"/>
      <point x="406" y="697"/>
      <point x="486" y="650"/>
      <point x="503" y="563" type="curve"/>
      <point x="387" y="551" type="line"/>
      <point x="378" y="591"/>
      <point x="340" y="614"/>
      <point x="281" y="614" type="curve" smooth="yes"/>
      <point x="208" y="614"/>
      <point x="175" y="596"/>
      <point x="175" y="553" type="curve" smooth="yes"/>
      <point x="175" y="540"/>
      <point x="179" y="528"/>
      <point x="188" y="519" type="curve" smooth="yes"/>
      <point x="197" y="510"/>
      <point x="209" y="501"/>
      <point x="225" y="494" type="curve" smooth="yes"/>
      <point x="242" y="487"/>
      <point x="271" y="479"/>
      <point x="313" y="470" type="curve" smooth="yes"/>
      <point x="368" y="458"/>
      <point x="409" y="445"/>
      <point x="435" y="432" type="curve" smooth="yes"/>
      <point x="487" y="405"/>
      <point x="516" y="366"/>
      <point x="516" y="310" type="curve" smooth="yes"/>
      <point x="516" y="249"/>
      <point x="476" y="198"/>
      <point x="419" y="181" type="curve"/>
      <point x="478" y="156"/>
      <point x="508" y="114"/>
      <point x="508" y="56" type="curve" smooth="yes"/>
      <point x="508" y="-52"/>
      <point x="423" y="-112"/>
      <point x="271" y="-112" type="curve" smooth="yes"/>
      <point x="127" y="-112"/>
      <point x="51" y="-68"/>
      <point x="26" y="29" type="curve"/>
      <point x="142" y="47" type="line"/>
      <point x="154" y="-5"/>
      <point x="191" y="-29"/>
      <point x="271" y="-29" type="curve" smooth="yes"/>
      <point x="351" y="-29"/>
      <point x="393" y="-10"/>
      <point x="393" y="42" type="curve" smooth="yes"/>
      <point x="393" y="57"/>
      <point x="389" y="70"/>
      <point x="381" y="80" type="curve" smooth="yes"/>
      <point x="373" y="90"/>
      <point x="361" y="99"/>
      <point x="344" y="106" type="curve" smooth="yes"/>
      <point x="327" y="113"/>
      <point x="289" y="124"/>
      <point x="229" y="138" type="curve" smooth="yes"/>
      <point x="94" y="170"/>
      <point x="44" y="220"/>
      <point x="44" y="293" type="curve" smooth="yes"/>
      <point x="44" y="353"/>
      <point x="81" y="395"/>
      <point x="148" y="418" type="curve"/>
      <point x="89" y="443"/>
      <point x="57" y="489"/>
      <point x="57" y="544" type="curve" smooth="yes"/>
      <point x="57" y="641"/>
      <point x="134" y="697"/>
    </contour>
    <contour>
      <point x="399" y="293" type="curve" smooth="yes"/>
      <point x="399" y="316"/>
      <point x="389" y="334"/>
      <point x="370" y="346" type="curve" smooth="yes"/>
      <point x="351" y="359"/>
      <point x="313" y="370"/>
      <point x="257" y="381" type="curve"/>
      <point x="194" y="374"/>
      <point x="163" y="349"/>
      <point x="163" y="306" type="curve" smooth="yes"/>
      <point x="163" y="293"/>
      <point x="167" y="281"/>
      <point x="176" y="272" type="curve" smooth="yes"/>
      <point x="185" y="263"/>
      <point x="197" y="256"/>
      <point x="213" y="249" type="curve" smooth="yes"/>
      <point x="230" y="242"/>
      <point x="260" y="234"/>
      <point x="304" y="224" type="curve"/>
      <point x="367" y="227"/>
      <point x="399" y="250"/>
    </contour>
  </outline>
</glyph>
<glyph name="dieresis" format="1">
  <advance width="333"/>
  <unicode hex="00A8"/>
  <outline>
    <contour>
      <point x="326" y="585" type="line"/>
      <point x="220" y="585" type="line"/>
      <point x="220" y="692" type="line"/>
      <point x="326" y="692" type="line"/>
    </contour>
    <contour>
      <point x="112" y="585" type="line"/>
      <point x="8" y="585" type="line"/>
      <point x="8" y="692" type="line"/>
      <point x="112" y="692" type="line"/>
    </contour>
  </outline>
</glyph>
<glyph name="plusminus" format="1">
  <advance width="549"/>
  <unicode hex="00B1"/>
  <outline>
    <contour>
      <point x="525" y="345" type="line"/>
      <point x="329" y="345" type="line"/>
      <point x="329" y="179" type="line"/>
      <point x="220" y="179" type="line"/>
      <point x="220" y="345" type="line"/>
      <point x="24" y="345" type="line"/>
      <point x="24" y="454" type="line"/>
      <point x="220" y="454" type="line"/>
      <point x="220" y="620" type="line"/>
      <point x="329" y="620" type="line"/>
      <point x="329" y="454" type="line"/>
      <point x="525" y="454" type="line"/>
    </contour>
    <contour>
      <point x="525" y="0" type="line"/>
      <point x="24" y="0" type="line"/>
      <point x="24" y="109" type="line"/>
      <point x="525" y="109" type="line"/>
    </contour>
  </outline>
</glyph>
<glyph name="uni00B2" format="1">
  <advance width="333"/>
  <unicode hex="00B2"/>
  <outline>
    <contour>
      <point x="312" y="339" type="line"/>
      <point x="26" y="339" type="line"/>
      <point x="25" y="398" type="line"/>
      <point x="44" y="438"/>
      <point x="76" y="469"/>
      <point x="135" y="508" type="curve" smooth="yes"/>
      <point x="192" y="544"/>
      <point x="209" y="565"/>
      <point x="209" y="590" type="curve" smooth="yes"/>
      <point x="209" y="619"/>
      <point x="196" y="634"/>
      <point x="169" y="634" type="curve" smooth="yes"/>
      <point x="142" y="634"/>
      <point x="126" y="618"/>
      <point x="123" y="586" type="curve"/>
      <point x="28" y="589" type="line"/>
      <point x="37" y="653"/>
      <point x="89" y="696"/>
      <point x="169" y="696" type="curve" smooth="yes"/>
      <point x="254" y="696"/>
      <point x="306" y="658"/>
      <point x="306" y="594" type="curve" smooth="yes"/>
      <point x="306" y="553"/>
      <point x="281" y="517"/>
      <point x="231" y="485" type="curve" smooth="yes"/>
      <point x="198" y="464"/>
      <point x="175" y="448"/>
      <point x="162" y="437" type="curve" smooth="yes"/>
      <point x="149" y="427"/>
      <point x="140" y="417"/>
      <point x="135" y="406" type="curve"/>
      <point x="312" y="406" type="line"/>
    </contour>
  </outline>
</glyph>
<glyph name="uni00B9" format="1">
  <advance width="333"/>
  <unicode hex="00B9"/>
  <outline>
    <contour>
      <point x="302" y="339" type="line"/>
      <point x="40" y="339" type="line"/>
      <point x="40" y="398" type="line"/>
      <point x="130" y="398" type="line"/>
      <point x="130" y="626" type="line"/>
      <point x="45" y="574" type="line"/>
      <point x="45" y="633" type="line"/>
      <point x="133" y="690" type="line"/>
      <point x="219" y="690" type="line"/>
      <point x="219" y="398" type="line"/>
      <point x="302" y="398" type="line"/>
    </contour>
  </outline>
</glyph>
<glyph name="guillemotright" format="1">
  <advance width="556"/>
  <unicode hex="00BB"/>
  <outline>
    <contour>
      <point x="163" y="69" type="line"/>
      <point x="45" y="69" type="line"/>
      <point x="45" y="86" type="line"/>
      <point x="170" y="262" type="line"/>
      <point x="46" y="441" type="line"/>
      <point x="46" y="459" type="line"/>
      <point x="163" y="459" type="line"/>
      <point x="288" y="280" type="line"/>
      <point x="288" y="245" type="line"/>
    </contour>
    <contour>
      <point x="386" y="69" type="line"/>
      <point x="270" y="69" type="line"/>
      <point x="270" y="86" type="line"/>
      <point x="395" y="262" type="line"/>
      <point x="271" y="441" type="line"/>
      <point x="271" y="459" type="line"/>
      <point x="386" y="459" type="line"/>
      <point x="512" y="280" type="line"/>
      <point x="512" y="245" type="line"/>
    </contour>
  </outline>
</glyph>
<glyph name="onehalf" format="1">
  <advance width="834"/>
  <unicode hex="00BD"/>
  <outline>
    <contour>
      <point x="308" y="339" type="line"/>
      <point x="46" y="339" type="line"/>
      <point x="46" y="398" type="line"/>
      <point x="136" y="398" type="line"/>
      <point x="136" y="626" type="line"/>
      <point x="51" y="574" type="line"/>
      <point x="51" y="633" type="line"/>
      <point x="139" y="690" type="line"/>
      <point x="225" y="690" type="line"/>
      <point x="225" y="398" type="line"/>
      <point x="308" y="398" type="line"/>
    </contour>
    <contour>
      <point x="693" y="688" type="line"/>
      <point x="256" y="0" type="line"/>
      <point x="158" y="0" type="line"/>
      <point x="595" y="688" type="line"/>
    </contour>
    <contour>
      <point x="787" y="0" type="line"/>
      <point x="501" y="0" type="line"/>
      <point x="500" y="59" type="line"/>
      <point x="519" y="98"/>
      <point x="551" y="131"/>
      <point x="610" y="168" type="curve" smooth="yes"/>
      <point x="667" y="205"/>
      <point x="684" y="225"/>
      <point x="684" y="250" type="curve" smooth="yes"/>
      <point x="684" y="280"/>
      <point x="671" y="295"/>
      <point x="645" y="295" type="curve" smooth="yes"/>
      <point x="617" y="295"/>
      <point x="601" y="279"/>
      <point x="598" y="247" type="curve"/>
      <point x="503" y="250" type="line"/>
      <point x="512" y="314"/>
      <point x="564" y="357"/>
      <point x="645" y="357" type="curve" smooth="yes"/>
      <point x="729" y="357"/>
      <point x="781" y="319"/>
      <point x="781" y="254" type="curve" smooth="yes"/>
      <point x="781" y="213"/>
      <point x="756" y="177"/>
      <point x="706" y="146" type="curve" smooth="yes"/>
      <point x="673" y="124"/>
      <point x="650" y="108"/>
      <point x="637" y="98" type="curve" smooth="yes"/>
      <point x="624" y="88"/>
      <point x="615" y="78"/>
      <point x="610" y="67" type="curve"/>
      <point x="787" y="67" type="line"/>
    </contour>
  </outline>
</glyph>
<glyph name="threequarters" format="1">
  <advance width="834"/>
  <unicode hex="00BE"/>
  <outline>
    <contour>
      <point x="703" y="688" type="line"/>
      <point x="266" y="0" type="line"/>
      <point x="167" y="0" type="line"/>
      <point x="604" y="688" type="line"/>
    </contour>
    <contour>
      <point x="787" y="69" type="line"/>
      <point x="736" y="69" type="line"/>
      <point x="736" y="0" type="line"/>
      <point x="647" y="0" type="line"/>
      <point x="647" y="69" type="line"/>
      <point x="479" y="69" type="line"/>
      <point x="479" y="141" type="line"/>
      <point x="633" y="352" type="line"/>
      <point x="736" y="352" type="line"/>
      <point x="736" y="137" type="line"/>
      <point x="787" y="137" type="line"/>
    </contour>
    <contour>
      <point x="647" y="232" type="line"/>
      <point x="649" y="285" type="line"/>
      <point x="644" y="275" type="line" smooth="yes"/>
      <point x="635" y="260"/>
      <point x="626" y="245"/>
      <point x="617" y="232" type="curve" smooth="yes"/>
      <point x="548" y="137" type="line"/>
      <point x="647" y="137" type="line"/>
    </contour>
    <contour>
      <point x="340" y="437" type="curve" smooth="yes"/>
      <point x="340" y="373"/>
      <point x="289" y="334"/>
      <point x="200" y="334" type="curve" smooth="yes"/>
      <point x="112" y="334"/>
      <point x="59" y="368"/>
      <point x="50" y="436" type="curve"/>
      <point x="143" y="441" type="line"/>
      <point x="146" y="411"/>
      <point x="164" y="396"/>
      <point x="198" y="396" type="curve" smooth="yes"/>
      <point x="231" y="396"/>
      <point x="248" y="412"/>
      <point x="248" y="443" type="curve" smooth="yes"/>
      <point x="248" y="473"/>
      <point x="225" y="488"/>
      <point x="180" y="488" type="curve" smooth="yes"/>
      <point x="153" y="488" type="line"/>
      <point x="153" y="550" type="line"/>
      <point x="178" y="550" type="line" smooth="yes"/>
      <point x="218" y="550"/>
      <point x="240" y="566"/>
      <point x="240" y="594" type="curve" smooth="yes"/>
      <point x="240" y="619"/>
      <point x="224" y="634"/>
      <point x="196" y="634" type="curve" smooth="yes"/>
      <point x="167" y="634"/>
      <point x="151" y="620"/>
      <point x="148" y="591" type="curve"/>
      <point x="58" y="597" type="line"/>
      <point x="65" y="658"/>
      <point x="118" y="696"/>
      <point x="199" y="696" type="curve" smooth="yes"/>
      <point x="282" y="696"/>
      <point x="331" y="660"/>
      <point x="331" y="604" type="curve" smooth="yes"/>
      <point x="331" y="563"/>
      <point x="308" y="532"/>
      <point x="257" y="521" type="curve"/>
      <point x="257" y="520" type="line"/>
      <point x="310" y="515"/>
      <point x="340" y="482"/>
    </contour>
  </outline>
</glyph>
<glyph name="questiondown" format="1">
  <advance width="611"/>
  <unicode hex="00BF"/>
  <outline>
    <contour>
      <point x="56" y="27" type="curve" smooth="yes"/>
      <point x="56" y="91"/>
      <point x="79" y="136"/>
      <point x="156" y="191" type="curve" smooth="yes"/>
      <point x="194" y="218" type="line" smooth="yes"/>
      <point x="238" y="250"/>
      <point x="258" y="281"/>
      <point x="261" y="320" type="curve"/>
      <point x="391" y="320" type="line"/>
      <point x="387" y="255"/>
      <point x="353" y="203"/>
      <point x="289" y="159" type="curve" smooth="yes"/>
      <point x="220" y="110"/>
      <point x="194" y="78"/>
      <point x="194" y="33" type="curve" smooth="yes"/>
      <point x="194" y="-24"/>
      <point x="233" y="-60"/>
      <point x="302" y="-60" type="curve" smooth="yes"/>
      <point x="367" y="-60"/>
      <point x="416" y="-18"/>
      <point x="424" y="45" type="curve"/>
      <point x="563" y="40" type="line"/>
      <point x="546" y="-93"/>
      <point x="449" y="-170"/>
      <point x="304" y="-170" type="curve" smooth="yes"/>
      <point x="149" y="-170"/>
      <point x="56" y="-96"/>
    </contour>
    <contour>
      <point x="254" y="528" type="line"/>
      <point x="395" y="528" type="line"/>
      <point x="395" y="396" type="line"/>
      <point x="254" y="396" type="line"/>
    </contour>
  </outline>
</glyph>
<glyph name="Atilde" format="1">
  <advance width="722"/>
  <unicode hex="00C3"/>
  <outline>
    <contour>
      <point x="696" y="0" type="line"/>
      <point x="553" y="0" type="line"/>
      <point x="492" y="176" type="line"/>
      <point x="230" y="176" type="line"/>
      <point x="169" y="0" type="line"/>
      <point x="25" y="0" type="line"/>
      <point x="276" y="688" type="line"/>
      <point x="446" y="688" type="line"/>
    </contour>
    <contour>
      <point x="371" y="548" type="line"/>
      <point x="361" y="582" type="line"/>
      <point x="358" y="571" type="line"/>
      <point x="346" y="531" type="line"/>
      <point x="262" y="284" type="line"/>
      <point x="460" y="284" type="line"/>
      <point x="392" y="482" type="line"/>
    </contour>
    <contour>
      <point x="442" y="747" type="curve" smooth="yes"/>
      <point x="385" y="747"/>
      <point x="323" y="807"/>
      <point x="285" y="807" type="curve" smooth="yes"/>
      <point x="258" y="807"/>
      <point x="246" y="798"/>
      <point x="237" y="747" type="curve"/>
      <point x="170" y="747" type="line"/>
      <point x="179" y="852"/>
      <point x="206" y="884"/>
      <point x="280" y="890" type="curve"/>
      <point x="339" y="890"/>
      <point x="399" y="830"/>
      <point x="437" y="830" type="curve" smooth="yes"/>
      <point x="462" y="830"/>
      <point x="476" y="842"/>
      <point x="485" y="890" type="curve"/>
      <point x="551" y="890" type="line"/>
      <point x="546" y="787"/>
      <point x="509" y="747"/>
    </contour>
  </outline>
</glyph>
<glyph name="Aring" format="1">
  <advance width="722"/>
  <unicode hex="00C5"/>
  <outline>
    <contour>
      <point x="696" y="0" type="line"/>
      <point x="553" y="0" type="line"/>
      <point x="492" y="176" type="line"/>
      <point x="230" y="176" type="line"/>
      <point x="169" y="0" type="line"/>
      <point x="25" y="0" type="line"/>
      <point x="276" y="688" type="line"/>
      <point x="446" y="688" type="line"/>
    </contour>
    <contour>
      <point x="371" y="548" type="line"/>
      <point x="361" y="582" type="line"/>
      <point x="358" y="571" type="line"/>
      <point x="346" y="531" type="line"/>
      <point x="262" y="284" type="line"/>
      <point x="460" y="284" type="line"/>
      <point x="392" y="482" type="line"/>
    </contour>
    <contour>
      <point x="485" y="758" type="curve" smooth="yes"/>
      <point x="485" y="724"/>
      <point x="473" y="695"/>
      <point x="449" y="670" type="curve" smooth="yes"/>
      <point x="425" y="646"/>
      <point x="396" y="634"/>
      <point x="361" y="634" type="curve" smooth="yes"/>
      <point x="326" y="634"/>
      <point x="297" y="646"/>
      <point x="273" y="670" type="curve" smooth="yes"/>
      <point x="249" y="695"/>
      <point x="237" y="724"/>
      <point x="237" y="758" type="curve" smooth="yes"/>
      <point x="237" y="792"/>
      <point x="249" y="821"/>
      <point x="273" y="845" type="curve" smooth="yes"/>
      <point x="298" y="870"/>
      <point x="327" y="882"/>
      <point x="361" y="882" type="curve" smooth="yes"/>
      <point x="395" y="882"/>
      <point x="424" y="870"/>
      <point x="448" y="845" type="curve" smooth="yes"/>
      <point x="473" y="821"/>
      <point x="485" y="792"/>
    </contour>
    <contour>
      <point x="423" y="758" type="curve" smooth="yes"/>
      <point x="423" y="791"/>
      <point x="396" y="819"/>
      <point x="361" y="819" type="curve" smooth="yes"/>
      <point x="328" y="819"/>
      <point x="300" y="793"/>
      <point x="300" y="758" type="curve" smooth="yes"/>
      <point x="300" y="721"/>
      <point x="328" y="695"/>
      <point x="361" y="695" type="curve" smooth="yes"/>
      <point x="396" y="695"/>
      <point x="423" y="722"/>
    </contour>
  </outline>
</glyph>
<glyph name="Ccedilla" format="1">
  <advance width="722"/>
  <unicode hex="00C7"/>
  <outline>
    <contour>
      <point x="388" y="104" type="curve" smooth="yes"/>
      <point x="475" y="104"/>
      <point x="536" y="147"/>
      <point x="569" y="234" type="curve"/>
      <point x="695" y="187" type="line"/>
      <point x="640" y="54"/>
      <point x="535" y="-10"/>
      <point x="388" y="-10" type="curve" smooth="yes"/>
      <point x="167" y="-10"/>
      <point x="41" y="122"/>
      <point x="41" y="347" type="curve" smooth="yes"/>
      <point x="41" y="574"/>
      <point x="161" y="698"/>
      <point x="382" y="698" type="curve" smooth="yes"/>
      <point x="543" y="698"/>
      <point x="645" y="632"/>
      <point x="686" y="507" type="curve"/>
      <point x="559" y="472" type="line"/>
      <point x="538" y="541"/>
      <point x="470" y="585"/>
      <point x="385" y="585" type="curve" smooth="yes"/>
      <point x="254" y="585"/>
      <point x="186" y="503"/>
      <point x="186" y="347" type="curve" smooth="yes"/>
      <point x="186" y="190"/>
      <point x="257" y="104"/>
    </contour>
    <contour>
      <point x="483" y="-115" type="curve" smooth="yes"/>
      <point x="483" y="-176"/>
      <point x="431" y="-208"/>
      <point x="335" y="-208" type="curve" smooth="yes"/>
      <point x="320" y="-208"/>
      <point x="304" y="-207"/>
      <point x="286" y="-205" type="curve"/>
      <point x="286" y="-147" type="line"/>
      <point x="297" y="-149"/>
      <point x="311" y="-150"/>
      <point x="327" y="-150" type="curve" smooth="yes"/>
      <point x="372" y="-150"/>
      <point x="394" y="-139"/>
      <point x="394" y="-117" type="curve" smooth="yes"/>
      <point x="394" y="-94"/>
      <point x="377" y="-83"/>
      <point x="334" y="-83" type="curve" smooth="yes"/>
      <point x="321" y="-83"/>
      <point x="313" y="-83"/>
      <point x="309" y="-84" type="curve" smooth="yes"/>
      <point x="339" y="0" type="line"/>
      <point x="409" y="0" type="line"/>
      <point x="393" y="-40" type="line"/>
      <point x="453" y="-43"/>
      <point x="483" y="-72"/>
    </contour>
  </outline>
</glyph>
<glyph name="Egrave" format="1">
  <advance width="667"/>
  <unicode hex="00C8"/>
  <outline>
    <contour>
      <point x="628" y="0" type="line"/>
      <point x="67" y="0" type="line"/>
      <point x="67" y="688" type="line"/>
      <point x="608" y="688" type="line"/>
      <point x="608" y="577" type="line"/>
      <point x="211" y="577" type="line"/>
      <point x="211" y="404" type="line"/>
      <point x="578" y="404" type="line"/>
      <point x="578" y="292" type="line"/>
      <point x="211" y="292" type="line"/>
      <point x="211" y="111" type="line"/>
      <point x="628" y="111" type="line"/>
    </contour>
    <contour>
      <point x="442" y="747" type="line"/>
      <point x="359" y="747" type="line"/>
      <point x="193" y="865" type="line"/>
      <point x="193" y="886" type="line"/>
      <point x="319" y="886" type="line"/>
      <point x="442" y="762" type="line"/>
    </contour>
  </outline>
</glyph>
<glyph name="Edieresis" format="1">
  <advance width="667"/>
  <unicode hex="00CB"/>
  <outline>
    <contour>
      <point x="628" y="0" type="line"/>
      <point x="67" y="0" type="line"/>
      <point x="67" y="688" type="line"/>
      <point x="608" y="688" type="line"/>
      <point x="608" y="577" type="line"/>
      <point x="211" y="577" type="line"/>
      <point x="211" y="404" type="line"/>
      <point x="578" y="404" type="line"/>
      <point x="578" y="292" type="line"/>
      <point x="211" y="292" type="line"/>
      <point x="211" y="111" type="line"/>
      <point x="628" y="111" type="line"/>
    </contour>
    <contour>
      <point x="506" y="747" type="line"/>
      <point x="410" y="747" type="line"/>
      <point x="410" y="854" type="line"/>
      <point x="506" y="854" type="line"/>
    </contour>
    <contour>
      <point x="283" y="747" type="line"/>
      <point x="188" y="747" type="line"/>
      <point x="188" y="854" type="line"/>
      <point x="283" y="854" type="line"/>
    </contour>
  </outline>
</glyph>
<glyph name="Igrave" format="1">
  <advance width="278"/>
  <unicode hex="00CC"/>
  <outline>
    <contour>
      <point x="211" y="0" type="line"/>
      <point x="67" y="0" type="line"/>
      <point x="67" y="688" type="line"/>
      <point x="211" y="688" type="line"/>
    </contour>
    <contour>
      <point x="229" y="747" type="line"/>
      <point x="146" y="747" type="line"/>
      <point x="-20" y="865" type="line"/>
      <point x="-20" y="886" type="line"/>
      <point x="106" y="886" type="line"/>
      <point x="229" y="762" type="line"/>
    </contour>
  </outline>
</glyph>
<glyph name="Otilde" format="1">
  <advance width="778"/>
  <unicode hex="00D5"/>
  <outline>
    <contour>
      <point x="736" y="347" type="curve" smooth="yes"/>
      <point x="738" y="133"/>
      <point x="599" y="-13"/>
      <point x="387" y="-10" type="curve" smooth="yes"/>
      <point x="279" y="-10"/>
      <point x="194" y="22"/>
      <point x="133" y="85" type="curve" smooth="yes"/>
      <point x="72" y="149"/>
      <point x="41" y="236"/>
      <point x="41" y="347" type="curve" smooth="yes"/>
      <point x="41" y="458"/>
      <point x="72" y="544"/>
      <point x="133" y="605" type="curve" smooth="yes"/>
      <point x="194" y="667"/>
      <point x="279" y="698"/>
      <point x="388" y="698" type="curve" smooth="yes"/>
      <point x="497" y="698"/>
      <point x="583" y="667"/>
      <point x="644" y="604" type="curve" smooth="yes"/>
      <point x="705" y="542"/>
      <point x="736" y="456"/>
    </contour>
    <contour>
      <point x="589" y="347" type="curve" smooth="yes"/>
      <point x="589" y="495"/>
      <point x="515" y="585"/>
      <point x="388" y="585" type="curve" smooth="yes"/>
      <point x="260" y="585"/>
      <point x="186" y="496"/>
      <point x="186" y="347" type="curve" smooth="yes"/>
      <point x="186" y="196"/>
      <point x="263" y="104"/>
      <point x="387" y="104" type="curve" smooth="yes"/>
      <point x="516" y="104"/>
      <point x="589" y="191"/>
    </contour>
    <contour>
      <point x="466" y="747" type="curve" smooth="yes"/>
      <point x="409" y="747"/>
      <point x="347" y="807"/>
      <point x="309" y="807" type="curve" smooth="yes"/>
      <point x="282" y="807"/>
      <point x="270" y="798"/>
      <point x="261" y="747" type="curve"/>
      <point x="194" y="747" type="line"/>
      <point x="203" y="852"/>
      <point x="230" y="884"/>
      <point x="304" y="890" type="curve"/>
      <point x="363" y="890"/>
      <point x="424" y="830"/>
      <point x="460" y="830" type="curve" smooth="yes"/>
      <point x="487" y="830"/>
      <point x="500" y="842"/>
      <point x="509" y="890" type="curve"/>
      <point x="575" y="890" type="line"/>
      <point x="570" y="787"/>
      <point x="533" y="747"/>
    </contour>
  </outline>
</glyph>
<glyph name="multiply" format="1">
  <advance width="584"/>
  <unicode hex="00D7"/>
  <outline>
    <contour>
      <point x="119" y="82" type="line"/>
      <point x="42" y="159" type="line"/>
      <point x="216" y="334" type="line"/>
      <point x="44" y="506" type="line"/>
      <point x="121" y="582" type="line"/>
      <point x="293" y="411" type="line"/>
      <point x="465" y="583" type="line"/>
      <point x="542" y="506" type="line"/>
      <point x="370" y="333" type="line"/>
      <point x="542" y="162" type="line"/>
      <point x="465" y="84" type="line"/>
      <point x="293" y="257" type="line"/>
    </contour>
  </outline>
</glyph>
<glyph name="Ucircumflex" format="1">
  <advance width="722"/>
  <unicode hex="00DB"/>
  <outline>
    <contour>
      <point x="353" y="-10" type="curve" smooth="yes"/>
      <point x="164" y="-10"/>
      <point x="60" y="86"/>
      <point x="60" y="258" type="curve" smooth="yes"/>
      <point x="60" y="688" type="line"/>
      <point x="204" y="688" type="line"/>
      <point x="204" y="269" type="line" smooth="yes"/>
      <point x="204" y="161"/>
      <point x="257" y="103"/>
      <point x="357" y="103" type="curve" smooth="yes"/>
      <point x="460" y="103"/>
      <point x="517" y="163"/>
      <point x="517" y="274" type="curve" smooth="yes"/>
      <point x="517" y="688" type="line"/>
      <point x="661" y="688" type="line"/>
      <point x="661" y="265" type="line" smooth="yes"/>
      <point x="661" y="90"/>
      <point x="549" y="-10"/>
    </contour>
    <contour>
      <point x="417" y="896" type="line"/>
      <point x="540" y="761" type="line"/>
      <point x="540" y="747" type="line"/>
      <point x="462" y="747" type="line"/>
      <point x="363" y="821" type="line"/>
      <point x="361" y="821" type="line"/>
      <point x="258" y="747" type="line"/>
      <point x="180" y="747" type="line"/>
      <point x="180" y="761" type="line"/>
      <point x="306" y="896" type="line"/>
    </contour>
  </outline>
</glyph>
<glyph name="adieresis" format="1">
  <advance width="556"/>
  <unicode hex="00E4"/>
  <outline>
    <contour>
      <point x="188" y="-10" type="curve" smooth="yes"/>
      <point x="85" y="-10"/>
      <point x="25" y="49"/>
      <point x="25" y="149" type="curve" smooth="yes"/>
      <point x="25" y="258"/>
      <point x="98" y="317"/>
      <point x="234" y="318" type="curve" smooth="yes"/>
      <point x="348" y="320" type="line"/>
      <point x="348" y="347" type="line" smooth="yes"/>
      <point x="348" y="416"/>
      <point x="326" y="449"/>
      <point x="271" y="449" type="curve" smooth="yes"/>
      <point x="219" y="449"/>
      <point x="199" y="428"/>
      <point x="192" y="375" type="curve"/>
      <point x="49" y="381" type="line"/>
      <point x="68" y="484"/>
      <point x="144" y="538"/>
      <point x="276" y="538" type="curve" smooth="yes"/>
      <point x="409" y="538"/>
      <point x="485" y="469"/>
      <point x="485" y="349" type="curve" smooth="yes"/>
      <point x="485" y="156" type="line" smooth="yes"/>
      <point x="485" y="97"/>
      <point x="497" y="78"/>
      <point x="528" y="78" type="curve" smooth="yes"/>
      <point x="539" y="78"/>
      <point x="549" y="79"/>
      <point x="559" y="81" type="curve"/>
      <point x="559" y="7" type="line"/>
      <point x="526" y="-1"/>
      <point x="509" y="-6"/>
      <point x="471" y="-6" type="curve" smooth="yes"/>
      <point x="402" y="-6"/>
      <point x="372" y="29"/>
      <point x="365" y="94" type="curve"/>
      <point x="362" y="94" type="line"/>
      <point x="323" y="25"/>
      <point x="265" y="-10"/>
    </contour>
    <contour>
      <point x="348" y="218" type="curve" smooth="yes"/>
      <point x="348" y="245" type="line"/>
      <point x="277" y="244" type="line" smooth="yes"/>
      <point x="245" y="243"/>
      <point x="222" y="239"/>
      <point x="209" y="233" type="curve" smooth="yes"/>
      <point x="182" y="222"/>
      <point x="168" y="199"/>
      <point x="168" y="160" type="curve" smooth="yes"/>
      <point x="168" y="111"/>
      <point x="193" y="86"/>
      <point x="232" y="86" type="curve" smooth="yes"/>
      <point x="296" y="86"/>
      <point x="348" y="146"/>
    </contour>
    <contour>
      <point x="431" y="585" type="line"/>
      <point x="325" y="585" type="line"/>
      <point x="325" y="692" type="line"/>
      <point x="431" y="692" type="line"/>
    </contour>
    <contour>
      <point x="217" y="585" type="line"/>
      <point x="113" y="585" type="line"/>
      <point x="113" y="692" type="line"/>
      <point x="217" y="692" type="line"/>
    </contour>
  </outline>
</glyph>
<glyph name="icircumflex" format="1">
  <advance width="278"/>
  <unicode hex="00EE"/>
  <outline>
    <contour>
      <point x="208" y="0" type="line"/>
      <point x="71" y="0" type="line"/>
      <point x="71" y="528" type="line"/>
      <point x="208" y="528" type="line"/>
    </contour>
    <contour>
      <point x="197" y="747" type="line"/>
      <point x="319" y="591" type="line"/>
      <point x="319" y="578" type="line"/>
      <point x="242" y="578" type="line"/>
      <point x="143" y="671" type="line"/>
      <point x="141" y="671" type="line"/>
      <point x="38" y="578" type="line"/>
      <point x="-41" y="578" type="line"/>
      <point x="-41" y="591" type="line"/>
      <point x="85" y="747" type="line"/>
    </contour>
  </outline>
</glyph>
<glyph name="eth" format="1">
  <advance width="611"/>
  <unicode hex="00F0"/>
  <outline>
    <contour>
      <point x="477" y="642" type="line"/>
      <point x="418" y="618" type="line"/>
      <point x="521" y="514"/>
      <point x="572" y="396"/>
      <point x="572" y="264" type="curve" smooth="yes"/>
      <point x="572" y="262" type="line" smooth="yes"/>
      <point x="572" y="93"/>
      <point x="473" y="-9"/>
      <point x="304" y="-9" type="curve" smooth="yes"/>
      <point x="223" y="-9"/>
      <point x="158" y="13"/>
      <point x="110" y="56" type="curve" smooth="yes"/>
      <point x="63" y="99"/>
      <point x="39" y="159"/>
      <point x="39" y="234" type="curve" smooth="yes"/>
      <point x="39" y="385"/>
      <point x="138" y="475"/>
      <point x="306" y="475" type="curve" smooth="yes"/>
      <point x="340" y="475"/>
      <point x="367" y="470"/>
      <point x="386" y="459" type="curve"/>
      <point x="365" y="504"/>
      <point x="340" y="542"/>
      <point x="313" y="574" type="curve"/>
      <point x="170" y="515" type="line"/>
      <point x="170" y="604" type="line"/>
      <point x="251" y="639" type="line"/>
      <point x="222" y="662"/>
      <point x="180" y="690"/>
      <point x="125" y="725" type="curve"/>
      <point x="268" y="725" type="line"/>
      <point x="299" y="709"/>
      <point x="325" y="694"/>
      <point x="346" y="679" type="curve"/>
      <point x="477" y="734" type="line"/>
    </contour>
    <contour>
      <point x="428" y="233" type="curve" smooth="yes"/>
      <point x="428" y="337"/>
      <point x="387" y="381"/>
      <point x="308" y="381" type="curve" smooth="yes"/>
      <point x="225" y="381"/>
      <point x="183" y="332"/>
      <point x="183" y="233" type="curve" smooth="yes"/>
      <point x="183" y="137"/>
      <point x="225" y="84"/>
      <point x="302" y="84" type="curve" smooth="yes"/>
      <point x="383" y="84"/>
      <point x="428" y="128"/>
    </contour>
  </outline>
</glyph>
<glyph name="ntilde" format="1">
  <advance width="611"/>
  <unicode hex="00F1"/>
  <outline>
    <contour>
      <point x="549" y="0" type="line"/>
      <point x="412" y="0" type="line"/>
      <point x="412" y="296" type="line" smooth="yes"/>
      <point x="412" y="389"/>
      <point x="381" y="436"/>
      <point x="318" y="436" type="curve" smooth="yes"/>
      <point x="251" y="436"/>
      <point x="207" y="372"/>
      <point x="207" y="283" type="curve" smooth="yes"/>
      <point x="207" y="0" type="line"/>
      <point x="70" y="0" type="line"/>
      <point x="70" y="410" type="line" smooth="yes"/>
      <point x="70" y="467"/>
      <point x="67" y="500"/>
      <point x="66" y="528" type="curve"/>
      <point x="197" y="528" type="line"/>
      <point x="198" y="522"/>
      <point x="199" y="505"/>
      <point x="200" y="478" type="curve" smooth="yes"/>
      <point x="202" y="451"/>
      <point x="203" y="433"/>
      <point x="203" y="423" type="curve"/>
      <point x="205" y="423" type="line"/>
      <point x="242" y="504"/>
      <point x="298" y="539"/>
      <point x="375" y="539" type="curve" smooth="yes"/>
      <point x="487" y="539"/>
      <point x="549" y="468"/>
      <point x="549" y="335" type="curve" smooth="yes"/>
    </contour>
    <contour>
      <point x="395" y="578" type="curve" smooth="yes"/>
      <point x="339" y="578"/>
      <point x="276" y="638"/>
      <point x="238" y="638" type="curve" smooth="yes"/>
      <point x="211" y="638"/>
      <point x="199" y="627"/>
      <point x="190" y="578" type="curve"/>
      <point x="123" y="578" type="line"/>
      <point x="132" y="683"/>
      <point x="159" y="715"/>
      <point x="233" y="721" type="curve"/>
      <point x="292" y="721"/>
      <point x="352" y="661"/>
      <point x="390" y="661" type="curve" smooth="yes"/>
      <point x="415" y="661"/>
      <point x="429" y="673"/>
      <point x="438" y="721" type="curve"/>
      <point x="504" y="721" type="line"/>
      <point x="499" y="618"/>
      <point x="462" y="578"/>
    </contour>
  </outline>
</glyph>
<glyph name="ograve" format="1">
  <advance width="611"/>
  <unicode hex="00F2"/>
  <outline>
    <contour>
      <point x="572" y="265" type="curve" smooth="yes"/>
      <point x="572" y="93"/>
      <point x="471" y="-10"/>
      <point x="303" y="-10" type="curve" smooth="yes"/>
      <point x="221" y="-10"/>
      <point x="156" y="14"/>
      <point x="109" y="63" type="curve" smooth="yes"/>
      <point x="62" y="112"/>
      <point x="39" y="180"/>
      <point x="39" y="265" type="curve" smooth="yes"/>
      <point x="39" y="434"/>
      <point x="138" y="538"/>
      <point x="306" y="538" type="curve" smooth="yes"/>
      <point x="479" y="538"/>
      <point x="572" y="441"/>
    </contour>
    <contour>
      <point x="428" y="265" type="curve" smooth="yes"/>
      <point x="428" y="390"/>
      <point x="387" y="444"/>
      <point x="308" y="444" type="curve" smooth="yes"/>
      <point x="225" y="444"/>
      <point x="183" y="384"/>
      <point x="183" y="265" type="curve" smooth="yes"/>
      <point x="183" y="146"/>
      <point x="225" y="84"/>
      <point x="302" y="84" type="curve" smooth="yes"/>
      <point x="386" y="84"/>
      <point x="428" y="144"/>
    </contour>
    <contour>
      <point x="409" y="578" type="line"/>
      <point x="326" y="578" type="line"/>
      <point x="160" y="712" type="line"/>
      <point x="160" y="733" type="line"/>
      <point x="286" y="733" type="line"/>
      <point x="409" y="593" type="line"/>
    </contour>
  </outline>
</glyph>
<glyph name="otilde" format="1">
  <advance width="611"/>
  <unicode hex="00F5"/>
  <outline>
    <contour>
      <point x="572" y="265" type="curve" smooth="yes"/>
      <point x="572" y="93"/>
      <point x="471" y="-10"/>
      <point x="303" y="-10" type="curve" smooth="yes"/>
      <point x="221" y="-10"/>
      <point x="156" y="14"/>
      <point x="109" y="63" type="curve" smooth="yes"/>
      <point x="62" y="112"/>
      <point x="39" y="180"/>
      <point x="39" y="265" type="curve" smooth="yes"/>
      <point x="39" y="434"/>
      <point x="138" y="538"/>
      <point x="306" y="538" type="curve" smooth="yes"/>
      <point x="479" y="538"/>
      <point x="572" y="441"/>
    </contour>
    <contour>
      <point x="428" y="265" type="curve" smooth="yes"/>
      <point x="428" y="390"/>
      <point x="387" y="444"/>
      <point x="308" y="444" type="curve" smooth="yes"/>
      <point x="225" y="444"/>
      <point x="183" y="384"/>
      <point x="183" y="265" type="curve" smooth="yes"/>
      <point x="183" y="146"/>
      <point x="225" y="84"/>
      <point x="302" y="84" type="curve" smooth="yes"/>
      <point x="386" y="84"/>
      <point x="428" y="144"/>
    </contour>
    <contour>
      <point x="386" y="578" type="curve" smooth="yes"/>
      <point x="329" y="578"/>
      <point x="268" y="638"/>
      <point x="229" y="638" type="curve" smooth="yes"/>
      <point x="202" y="638"/>
      <point x="190" y="627"/>
      <point x="181" y="578" type="curve"/>
      <point x="114" y="578" type="line"/>
      <point x="123" y="683"/>
      <point x="150" y="715"/>
      <point x="224" y="721" type="curve"/>
      <point x="283" y="721"/>
      <point x="344" y="661"/>
      <point x="381" y="661" type="curve" smooth="yes"/>
      <point x="406" y="661"/>
      <point x="420" y="673"/>
      <point x="429" y="721" type="curve"/>
      <point x="495" y="721" type="line"/>
      <point x="491" y="618"/>
      <point x="454" y="578"/>
    </contour>
  </outline>
</glyph>
<glyph name="divide" format="1">
  <advance width="549"/>
  <unicode hex="00F7"/>
  <outline>
    <contour>
      <point x="332" y="469" type="line"/>
      <point x="216" y="469" type="line"/>
      <point x="216" y="583" type="line"/>
      <point x="332" y="583" type="line"/>
    </contour>
    <contour>
      <point x="525" y="278" type="line"/>
      <point x="24" y="278" type="line"/>
      <point x="24" y="387" type="line"/>
      <point x="525" y="387" type="line"/>
    </contour>
    <contour>
      <point x="332" y="83" type="line"/>
      <point x="216" y="83" type="line"/>
      <point x="216" y="197" type="line"/>
      <point x="332" y="197" type="line"/>
    </contour>
  </outline>
</glyph>
<glyph name="dcaron" format="1">
  <advance width="719"/>
  <unicode hex="010F"/>
  <outline>
    <contour>
      <point x="545" y="0" type="curve"/>
      <point x="412" y="0" type="line"/>
      <point x="411" y="5"/>
      <point x="409" y="17"/>
      <point x="407" y="36" type="curve" smooth="yes"/>
      <point x="406" y="56"/>
      <point x="405" y="73"/>
      <point x="405" y="86" type="curve"/>
      <point x="403" y="86" type="line"/>
      <point x="373" y="22"/>
      <point x="317" y="-10"/>
      <point x="234" y="-10" type="curve" smooth="yes"/>
      <point x="111" y="-10"/>
      <point x="41" y="91"/>
      <point x="41" y="264" type="curve" smooth="yes"/>
      <point x="41" y="439"/>
      <point x="115" y="538"/>
      <point x="244" y="538" type="curve" smooth="yes"/>
      <point x="319" y="538"/>
      <point x="375" y="506"/>
      <point x="404" y="445" type="curve"/>
      <point x="405" y="445" type="line"/>
      <point x="404" y="532" type="line"/>
      <point x="404" y="725" type="line"/>
      <point x="541" y="725" type="line"/>
      <point x="541" y="115" type="line" smooth="yes"/>
      <point x="541" y="82"/>
      <point x="542" y="44"/>
    </contour>
    <contour>
      <point x="406" y="267" type="curve" smooth="yes"/>
      <point x="406" y="382"/>
      <point x="368" y="445"/>
      <point x="293" y="445" type="curve" smooth="yes"/>
      <point x="220" y="445"/>
      <point x="184" y="385"/>
      <point x="184" y="264" type="curve" smooth="yes"/>
      <point x="184" y="144"/>
      <point x="220" y="84"/>
      <point x="292" y="84" type="curve" smooth="yes"/>
      <point x="364" y="84"/>
      <point x="406" y="150"/>
    </contour>
    <contour>
      <point x="719" y="725" type="line"/>
      <point x="719" y="653" type="line" smooth="yes"/>
      <point x="719" y="606"/>
      <point x="706" y="570"/>
      <point x="673" y="531" type="curve"/>
      <point x="606" y="531" type="line"/>
      <point x="637" y="564"/>
      <point x="652" y="595"/>
      <point x="652" y="624" type="curve"/>
      <point x="600" y="624" type="line"/>
      <point x="600" y="725" type="line"/>
    </contour>
  </outline>
</glyph>
<glyph name="Ebreve" format="1">
  <advance width="667"/>
  <unicode hex="0114"/>
  <outline>
    <contour>
      <point x="628" y="0" type="line"/>
      <point x="67" y="0" type="line"/>
      <point x="67" y="688" type="line"/>
      <point x="608" y="688" type="line"/>
      <point x="608" y="577" type="line"/>
      <point x="211" y="577" type="line"/>
      <point x="211" y="404" type="line"/>
      <point x="578" y="404" type="line"/>
      <point x="578" y="292" type="line"/>
      <point x="211" y="292" type="line"/>
      <point x="211" y="111" type="line"/>
      <point x="628" y="111" type="line"/>
    </contour>
    <contour>
      <point x="342" y="742" type="curve" smooth="yes"/>
      <point x="295" y="742"/>
      <point x="255" y="755"/>
      <point x="223" y="781" type="curve" smooth="yes"/>
      <point x="191" y="808"/>
      <point x="173" y="842"/>
      <point x="170" y="883" type="curve"/>
      <point x="250" y="883" type="line"/>
      <point x="259" y="843"/>
      <point x="298" y="816"/>
      <point x="343" y="816" type="curve" smooth="yes"/>
      <point x="390" y="816"/>
      <point x="427" y="842"/>
      <point x="436" y="883" type="curve"/>
      <point x="516" y="883" type="line"/>
      <point x="503" y="796"/>
      <point x="437" y="742"/>
    </contour>
  </outline>
</glyph>
<glyph name="Eogonek" format="1">
  <advance width="667"/>
  <unicode hex="0118"/>
  <outline>
    <contour>
      <point x="628" y="0" type="line"/>
      <point x="67" y="0" type="line"/>
      <point x="67" y="688" type="line"/>
      <point x="608" y="688" type="line"/>
      <point x="608" y="577" type="line"/>
      <point x="211" y="577" type="line"/>
      <point x="211" y="404" type="line"/>
      <point x="578" y="404" type="line"/>
      <point x="578" y="292" type="line"/>
      <point x="211" y="292" type="line"/>
      <point x="211" y="111" type="line"/>
      <point x="628" y="111" type="line"/>
    </contour>
    <contour>
      <point x="519" y="-208" type="curve" smooth="yes"/>
      <point x="446" y="-208"/>
      <point x="403" y="-170"/>
      <point x="403" y="-110" type="curve" smooth="yes"/>
      <point x="403" y="-61"/>
      <point x="433" y="-14"/>
      <point x="480" y="10" type="curve"/>
      <point x="555" y="10" type="line"/>
      <point x="514" y="-17"/>
      <point x="492" y="-57"/>
      <point x="492" y="-92" type="curve" smooth="yes"/>
      <point x="492" y="-120"/>
      <point x="509" y="-138"/>
      <point x="538" y="-138" type="curve" smooth="yes"/>
      <point x="555" y="-138"/>
      <point x="573" y="-134"/>
      <point x="592" y="-125" type="curve"/>
      <point x="592" y="-191" type="line"/>
      <point x="572" y="-202"/>
      <point x="548" y="-208"/>
    </contour>
  </outline>
</glyph>
<glyph name="eogonek" format="1">
  <advance width="556"/>
  <unicode hex="0119"/>
  <outline>
    <contour>
      <point x="286" y="-10" type="curve" smooth="yes"/>
      <point x="127" y="-10"/>
      <point x="39" y="86"/>
      <point x="39" y="267" type="curve" smooth="yes"/>
      <point x="39" y="440"/>
      <point x="129" y="538"/>
      <point x="288" y="538" type="curve" smooth="yes"/>
      <point x="440" y="538"/>
      <point x="522" y="435"/>
      <point x="522" y="242" type="curve" smooth="yes"/>
      <point x="522" y="238" type="line"/>
      <point x="183" y="238" type="line"/>
      <point x="183" y="135"/>
      <point x="222" y="82"/>
      <point x="293" y="82" type="curve" smooth="yes"/>
      <point x="342" y="82"/>
      <point x="372" y="103"/>
      <point x="385" y="145" type="curve"/>
      <point x="514" y="134" type="line"/>
      <point x="477" y="38"/>
      <point x="401" y="-10"/>
    </contour>
    <contour>
      <point x="286" y="452" type="curve" smooth="yes"/>
      <point x="222" y="452"/>
      <point x="187" y="404"/>
      <point x="184" y="324" type="curve"/>
      <point x="389" y="324" type="line"/>
      <point x="384" y="409"/>
      <point x="347" y="452"/>
    </contour>
    <contour>
      <point x="379" y="-199" type="curve" smooth="yes"/>
      <point x="307" y="-199"/>
      <point x="263" y="-161"/>
      <point x="263" y="-102" type="curve" smooth="yes"/>
      <point x="263" y="-53"/>
      <point x="295" y="-6"/>
      <point x="340" y="19" type="curve"/>
      <point x="415" y="19" type="line"/>
      <point x="374" y="-9"/>
      <point x="352" y="-49"/>
      <point x="352" y="-84" type="curve" smooth="yes"/>
      <point x="352" y="-111"/>
      <point x="369" y="-129"/>
      <point x="398" y="-129" type="curve" smooth="yes"/>
      <point x="415" y="-129"/>
      <point x="434" y="-125"/>
      <point x="453" y="-116" type="curve"/>
      <point x="453" y="-183" type="line"/>
      <point x="432" y="-194"/>
      <point x="408" y="-199"/>
    </contour>
  </outline>
</glyph>
<glyph name="Gcircumflex" format="1">
  <advance width="778"/>
  <unicode hex="011C"/>
  <outline>
    <contour>
      <point x="394" y="103" type="curve" smooth="yes"/>
      <point x="469" y="103"/>
      <point x="545" y="128"/>
      <point x="584" y="161" type="curve"/>
      <point x="584" y="256" type="line"/>
      <point x="416" y="256" type="line"/>
      <point x="416" y="363" type="line"/>
      <point x="716" y="363" type="line"/>
      <point x="716" y="110" type="line"/>
      <point x="643" y="35"/>
      <point x="518" y="-10"/>
      <point x="390" y="-10" type="curve" smooth="yes"/>
      <point x="166" y="-10"/>
      <point x="41" y="119"/>
      <point x="41" y="347" type="curve" smooth="yes"/>
      <point x="41" y="574"/>
      <point x="166" y="698"/>
      <point x="393" y="698" type="curve" smooth="yes"/>
      <point x="554" y="698"/>
      <point x="657" y="638"/>
      <point x="701" y="519" type="curve"/>
      <point x="568" y="479" type="line"/>
      <point x="540" y="548"/>
      <point x="476" y="585"/>
      <point x="393" y="585" type="curve" smooth="yes"/>
      <point x="258" y="585"/>
      <point x="186" y="500"/>
      <point x="186" y="347" type="curve" smooth="yes"/>
      <point x="186" y="191"/>
      <point x="262" y="103"/>
    </contour>
    <contour>
      <point x="447" y="896" type="line"/>
      <point x="569" y="761" type="line"/>
      <point x="569" y="747" type="line"/>
      <point x="491" y="747" type="line"/>
      <point x="392" y="821" type="line"/>
      <point x="390" y="821" type="line"/>
      <point x="287" y="747" type="line"/>
      <point x="209" y="747" type="line"/>
      <point x="209" y="761" type="line"/>
      <point x="335" y="896" type="line"/>
    </contour>
  </outline>
</glyph>
<glyph name="Gbreve" format="1">
  <advance width="778"/>
  <unicode hex="011E"/>
  <outline>
    <contour>
      <point x="394" y="103" type="curve" smooth="yes"/>
      <point x="469" y="103"/>
      <point x="545" y="128"/>
      <point x="584" y="161" type="curve"/>
      <point x="584" y="256" type="line"/>
      <point x="416" y="256" type="line"/>
      <point x="416" y="363" type="line"/>
      <point x="716" y="363" type="line"/>
      <point x="716" y="110" type="line"/>
      <point x="643" y="35"/>
      <point x="518" y="-10"/>
      <point x="390" y="-10" type="curve" smooth="yes"/>
      <point x="166" y="-10"/>
      <point x="41" y="119"/>
      <point x="41" y="347" type="curve" smooth="yes"/>
      <point x="41" y="574"/>
      <point x="166" y="698"/>
      <point x="393" y="698" type="curve" smooth="yes"/>
      <point x="554" y="698"/>
      <point x="657" y="638"/>
      <point x="701" y="519" type="curve"/>
      <point x="568" y="479" type="line"/>
      <point x="540" y="548"/>
      <point x="476" y="585"/>
      <point x="393" y="585" type="curve" smooth="yes"/>
      <point x="258" y="585"/>
      <point x="186" y="500"/>
      <point x="186" y="347" type="curve" smooth="yes"/>
      <point x="186" y="191"/>
      <point x="262" y="103"/>
    </contour>
    <contour>
      <point x="395" y="742" type="curve" smooth="yes"/>
      <point x="348" y="742"/>
      <point x="308" y="755"/>
      <point x="276" y="781" type="curve" smooth="yes"/>
      <point x="244" y="808"/>
      <point x="226" y="842"/>
      <point x="223" y="883" type="curve"/>
      <point x="302" y="883" type="line"/>
      <point x="313" y="843"/>
      <point x="349" y="816"/>
      <point x="396" y="816" type="curve" smooth="yes"/>
      <point x="443" y="816"/>
      <point x="479" y="842"/>
      <point x="488" y="883" type="curve"/>
      <point x="568" y="883" type="line"/>
      <point x="556" y="796"/>
      <point x="490" y="742"/>
    </contour>
  </outline>
</glyph>
<glyph name="Gdotaccent" format="1">
  <advance width="778"/>
  <unicode hex="0120"/>
  <outline>
    <contour>
      <point x="394" y="103" type="curve" smooth="yes"/>
      <point x="469" y="103"/>
      <point x="545" y="128"/>
      <point x="584" y="161" type="curve"/>
      <point x="584" y="256" type="line"/>
      <point x="416" y="256" type="line"/>
      <point x="416" y="363" type="line"/>
      <point x="716" y="363" type="line"/>
      <point x="716" y="110" type="line"/>
      <point x="643" y="35"/>
      <point x="518" y="-10"/>
      <point x="390" y="-10" type="curve" smooth="yes"/>
      <point x="166" y="-10"/>
      <point x="41" y="119"/>
      <point x="41" y="347" type="curve" smooth="yes"/>
      <point x="41" y="574"/>
      <point x="166" y="698"/>
      <point x="393" y="698" type="curve" smooth="yes"/>
      <point x="554" y="698"/>
      <point x="657" y="638"/>
      <point x="701" y="519" type="curve"/>
      <point x="568" y="479" type="line"/>
      <point x="540" y="548"/>
      <point x="476" y="585"/>
      <point x="393" y="585" type="curve" smooth="yes"/>
      <point x="258" y="585"/>
      <point x="186" y="500"/>
      <point x="186" y="347" type="curve" smooth="yes"/>
      <point x="186" y="191"/>
      <point x="262" y="103"/>
    </contour>
    <contour>
      <point x="463" y="755" type="line"/>
      <point x="326" y="755" type="line"/>
      <point x="326" y="856" type="line"/>
      <point x="463" y="856" type="line"/>
    </contour>
  </outline>
</glyph>
<glyph name="Gcommaaccent" format="1">
  <advance width="778"/>
  <unicode hex="0122"/>
  <outline>
    <contour>
      <point x="394" y="103" type="curve" smooth="yes"/>
      <point x="469" y="103"/>
      <point x="545" y="128"/>
      <point x="584" y="161" type="curve"/>
      <point x="584" y="256" type="line"/>
      <point x="416" y="256" type="line"/>
      <point x="416" y="363" type="line"/>
      <point x="716" y="363" type="line"/>
      <point x="716" y="110" type="line"/>
      <point x="643" y="35"/>
      <point x="518" y="-10"/>
      <point x="390" y="-10" type="curve" smooth="yes"/>
      <point x="166" y="-10"/>
      <point x="41" y="119"/>
      <point x="41" y="347" type="curve" smooth="yes"/>
      <point x="41" y="574"/>
      <point x="166" y="698"/>
      <point x="393" y="698" type="curve" smooth="yes"/>
      <point x="554" y="698"/>
      <point x="657" y="638"/>
      <point x="701" y="519" type="curve"/>
      <point x="568" y="479" type="line"/>
      <point x="540" y="548"/>
      <point x="476" y="585"/>
      <point x="393" y="585" type="curve" smooth="yes"/>
      <point x="258" y="585"/>
      <point x="186" y="500"/>
      <point x="186" y="347" type="curve" smooth="yes"/>
      <point x="186" y="191"/>
      <point x="262" y="103"/>
    </contour>
    <contour>
      <point x="458" y="-38" type="line"/>
      <point x="458" y="-100" type="line" smooth="yes"/>
      <point x="458" y="-147"/>
      <point x="445" y="-182"/>
      <point x="412" y="-222" type="curve"/>
      <point x="345" y="-222" type="line"/>
      <point x="376" y="-189"/>
      <point x="391" y="-162"/>
      <point x="391" y="-139" type="curve"/>
      <point x="338" y="-139" type="line"/>
      <point x="338" y="-38" type="line"/>
    </contour>
  </outline>
</glyph>
<glyph name="itilde" format="1">
  <advance width="278"/>
  <unicode hex="0129"/>
  <outline>
    <contour>
      <point x="208" y="0" type="line"/>
      <point x="71" y="0" type="line"/>
      <point x="71" y="528" type="line"/>
      <point x="208" y="528" type="line"/>
    </contour>
    <contour>
      <point x="222" y="578" type="curve" smooth="yes"/>
      <point x="164" y="578"/>
      <point x="104" y="638"/>
      <point x="64" y="638" type="curve" smooth="yes"/>
      <point x="37" y="638"/>
      <point x="25" y="627"/>
      <point x="17" y="578" type="curve"/>
      <point x="-50" y="578" type="line"/>
      <point x="-47" y="615"/>
      <point x="-42" y="642"/>
      <point x="-34" y="660" type="curve" smooth="yes"/>
      <point x="-18" y="697"/>
      <point x="9" y="721"/>
      <point x="60" y="721" type="curve" smooth="yes"/>
      <point x="117" y="721"/>
      <point x="180" y="661"/>
      <point x="216" y="661" type="curve" smooth="yes"/>
      <point x="243" y="661"/>
      <point x="256" y="673"/>
      <point x="265" y="721" type="curve"/>
      <point x="331" y="721" type="line"/>
      <point x="326" y="618"/>
      <point x="289" y="578"/>
    </contour>
  </outline>
</glyph>
<glyph name="Imacron" format="1">
  <advance width="278"/>
  <unicode hex="012A"/>
  <outline>
    <contour>
      <point x="211" y="0" type="line"/>
      <point x="67" y="0" type="line"/>
      <point x="67" y="688" type="line"/>
      <point x="211" y="688" type="line"/>
    </contour>
    <contour>
      <point x="-10" y="750" type="line"/>
      <point x="-10" y="833" type="line"/>
      <point x="289" y="833" type="line"/>
      <point x="289" y="750" type="line"/>
    </contour>
  </outline>
</glyph>
<glyph name="ibreve" format="1">
  <advance width="278"/>
  <unicode hex="012D"/>
  <outline>
    <contour>
      <point x="208" y="0" type="line"/>
      <point x="71" y="0" type="line"/>
      <point x="71" y="528" type="line"/>
      <point x="208" y="528" type="line"/>
    </contour>
    <contour>
      <point x="139" y="578" type="curve" smooth="yes"/>
      <point x="40" y="578"/>
      <point x="-25" y="644"/>
      <point x="-33" y="735" type="curve"/>
      <point x="47" y="735" type="line"/>
      <point x="58" y="686"/>
      <point x="93" y="654"/>
      <point x="140" y="654" type="curve" smooth="yes"/>
      <point x="187" y="654"/>
      <point x="224" y="684"/>
      <point x="233" y="735" type="curve"/>
      <point x="313" y="735" type="line"/>
      <point x="301" y="639"/>
      <point x="239" y="578"/>
    </contour>
  </outline>
</glyph>
<glyph name="Iogonek" format="1">
  <advance width="278"/>
  <unicode hex="012E"/>
  <outline>
    <contour>
      <point x="211" y="0" type="line"/>
      <point x="67" y="0" type="line"/>
      <point x="67" y="688" type="line"/>
      <point x="211" y="688" type="line"/>
    </contour>
    <contour>
      <point x="159" y="-208" type="curve" smooth="yes"/>
      <point x="86" y="-208"/>
      <point x="43" y="-170"/>
      <point x="43" y="-110" type="curve" smooth="yes"/>
      <point x="43" y="-61"/>
      <point x="73" y="-14"/>
      <point x="120" y="10" type="curve"/>
      <point x="195" y="10" type="line"/>
      <point x="154" y="-17"/>
      <point x="132" y="-57"/>
      <point x="132" y="-92" type="curve" smooth="yes"/>
      <point x="132" y="-120"/>
      <point x="149" y="-138"/>
      <point x="178" y="-138" type="curve" smooth="yes"/>
      <point x="195" y="-138"/>
      <point x="213" y="-134"/>
      <point x="232" y="-125" type="curve"/>
      <point x="232" y="-191" type="line"/>
      <point x="212" y="-202"/>
      <point x="188" y="-208"/>
    </contour>
  </outline>
</glyph>
<glyph name="iogonek" format="1">
  <advance width="278"/>
  <unicode hex="012F"/>
  <outline>
    <contour>
      <point x="207" y="624" type="line"/>
      <point x="70" y="624" type="line"/>
      <point x="70" y="725" type="line"/>
      <point x="207" y="725" type="line"/>
    </contour>
    <contour>
      <point x="207" y="0" type="line"/>
      <point x="70" y="0" type="line"/>
      <point x="70" y="528" type="line"/>
      <point x="207" y="528" type="line"/>
    </contour>
    <contour>
      <point x="149" y="-208" type="curve" smooth="yes"/>
      <point x="77" y="-208"/>
      <point x="34" y="-170"/>
      <point x="34" y="-110" type="curve" smooth="yes"/>
      <point x="34" y="-61"/>
      <point x="64" y="-14"/>
      <point x="111" y="10" type="curve"/>
      <point x="186" y="10" type="line"/>
      <point x="145" y="-17"/>
      <point x="123" y="-57"/>
      <point x="123" y="-92" type="curve" smooth="yes"/>
      <point x="123" y="-120"/>
      <point x="139" y="-138"/>
      <point x="168" y="-138" type="curve" smooth="yes"/>
      <point x="186" y="-138"/>
      <point x="204" y="-134"/>
      <point x="223" y="-125" type="curve"/>
      <point x="223" y="-191" type="line"/>
      <point x="202" y="-202"/>
      <point x="178" y="-208"/>
    </contour>
  </outline>
</glyph>
<glyph name="Idotaccent" format="1">
  <advance width="278"/>
  <unicode hex="0130"/>
  <outline>
    <contour>
      <point x="211" y="0" type="line"/>
      <point x="67" y="0" type="line"/>
      <point x="67" y="688" type="line"/>
      <point x="211" y="688" type="line"/>
    </contour>
    <contour>
      <point x="208" y="755" type="line"/>
      <point x="71" y="755" type="line"/>
      <point x="71" y="856" type="line"/>
      <point x="208" y="856" type="line"/>
    </contour>
  </outline>
</glyph>
<glyph name="IJ" format="1">
  <advance width="785"/>
  <unicode hex="0132"/>
  <outline>
    <contour>
      <point x="211" y="0" type="line"/>
      <point x="67" y="0" type="line"/>
      <point x="67" y="688" type="line"/>
      <point x="211" y="688" type="line"/>
    </contour>
    <contour>
      <point x="484" y="-10" type="curve" smooth="yes"/>
      <point x="341" y="-10"/>
      <point x="269" y="48"/>
      <point x="244" y="187" type="curve"/>
      <point x="387" y="208" type="line"/>
      <point x="399" y="136"/>
      <point x="429" y="103"/>
      <point x="485" y="103" type="curve" smooth="yes"/>
      <point x="542" y="103"/>
      <point x="573" y="143"/>
      <point x="573" y="214" type="curve" smooth="yes"/>
      <point x="573" y="575" type="line"/>
      <point x="436" y="575" type="line"/>
      <point x="436" y="688" type="line"/>
      <point x="716" y="688" type="line"/>
      <point x="716" y="218" type="line" smooth="yes"/>
      <point x="716" y="74"/>
      <point x="631" y="-10"/>
    </contour>
  </outline>
</glyph>
<glyph name="Jcircumflex" format="1">
  <advance width="556"/>
  <unicode hex="0134"/>
  <outline>
    <contour>
      <point x="256" y="-10" type="curve" smooth="yes"/>
      <point x="113" y="-10"/>
      <point x="40" y="48"/>
      <point x="15" y="187" type="curve"/>
      <point x="158" y="208" type="line"/>
      <point x="170" y="136"/>
      <point x="201" y="103"/>
      <point x="257" y="103" type="curve" smooth="yes"/>
      <point x="314" y="103"/>
      <point x="344" y="143"/>
      <point x="344" y="214" type="curve" smooth="yes"/>
      <point x="344" y="575" type="line"/>
      <point x="207" y="575" type="line"/>
      <point x="207" y="688" type="line"/>
      <point x="488" y="688" type="line"/>
      <point x="488" y="218" type="line" smooth="yes"/>
      <point x="488" y="74"/>
      <point x="403" y="-10"/>
    </contour>
    <contour>
      <point x="395" y="896" type="line"/>
      <point x="517" y="761" type="line"/>
      <point x="517" y="747" type="line"/>
      <point x="439" y="747" type="line"/>
      <point x="340" y="821" type="line"/>
      <point x="338" y="821" type="line"/>
      <point x="235" y="747" type="line"/>
      <point x="157" y="747" type="line"/>
      <point x="157" y="761" type="line"/>
      <point x="283" y="896" type="line"/>
    </contour>
  </outline>
</glyph>
<glyph name="Lacute" format="1">
  <advance width="611"/>
  <unicode hex="0139"/>
  <outline>
    <contour>
      <point x="580" y="0" type="line"/>
      <point x="67" y="0" type="line"/>
      <point x="67" y="688" type="line"/>
      <point x="211" y="688" type="line"/>
      <point x="211" y="111" type="line"/>
      <point x="580" y="111" type="line"/>
    </contour>
    <contour>
      <point x="210" y="747" type="line"/>
      <point x="127" y="747" type="line"/>
      <point x="127" y="762" type="line"/>
      <point x="250" y="886" type="line"/>
      <point x="376" y="886" type="line"/>
      <point x="376" y="865" type="line"/>
    </contour>
  </outline>
</glyph>
<glyph name="lacute" format="1">
  <advance width="278"/>
  <unicode hex="013A"/>
  <outline>
    <contour>
      <point x="207" y="0" type="line"/>
      <point x="70" y="0" type="line"/>
      <point x="70" y="725" type="line"/>
      <point x="207" y="725" type="line"/>
    </contour>
    <contour>
      <point x="135" y="786" type="line"/>
      <point x="52" y="786" type="line"/>
      <point x="52" y="801" type="line"/>
      <point x="175" y="925" type="line"/>
      <point x="301" y="925" type="line"/>
      <point x="301" y="904" type="line"/>
    </contour>
  </outline>
</glyph>
<glyph name="Lcaron" format="1">
  <advance width="611"/>
  <unicode hex="013D"/>
  <outline>
    <contour>
      <point x="580" y="0" type="line"/>
      <point x="67" y="0" type="line"/>
      <point x="67" y="688" type="line"/>
      <point x="211" y="688" type="line"/>
      <point x="211" y="111" type="line"/>
      <point x="580" y="111" type="line"/>
    </contour>
    <contour>
      <point x="480" y="688" type="line"/>
      <point x="480" y="617" type="line" smooth="yes"/>
      <point x="480" y="569"/>
      <point x="467" y="533"/>
      <point x="435" y="494" type="curve"/>
      <point x="368" y="494" type="line"/>
      <point x="399" y="527"/>
      <point x="414" y="558"/>
      <point x="414" y="587" type="curve"/>
      <point x="361" y="587" type="line"/>
      <point x="361" y="688" type="line"/>
    </contour>
  </outline>
</glyph>
<glyph name="ncommaaccent" format="1">
  <advance width="611"/>
  <unicode hex="0146"/>
  <outline>
    <contour>
      <point x="549" y="0" type="line"/>
      <point x="412" y="0" type="line"/>
      <point x="412" y="296" type="line" smooth="yes"/>
      <point x="412" y="389"/>
      <point x="381" y="436"/>
      <point x="318" y="436" type="curve" smooth="yes"/>
      <point x="251" y="436"/>
      <point x="207" y="372"/>
      <point x="207" y="283" type="curve" smooth="yes"/>
      <point x="207" y="0" type="line"/>
      <point x="70" y="0" type="line"/>
      <point x="70" y="410" type="line" smooth="yes"/>
      <point x="70" y="467"/>
      <point x="67" y="500"/>
      <point x="66" y="528" type="curve"/>
      <point x="197" y="528" type="line"/>
      <point x="198" y="522"/>
      <point x="199" y="505"/>
      <point x="200" y="478" type="curve" smooth="yes"/>
      <point x="202" y="451"/>
      <point x="203" y="433"/>
      <point x="203" y="423" type="curve"/>
      <point x="205" y="423" type="line"/>
      <point x="242" y="504"/>
      <point x="298" y="539"/>
      <point x="375" y="539" type="curve" smooth="yes"/>
      <point x="487" y="539"/>
      <point x="549" y="468"/>
      <point x="549" y="335" type="curve" smooth="yes"/>
    </contour>
    <contour>
      <point x="371" y="-38" type="line"/>
      <point x="371" y="-100" type="line" smooth="yes"/>
      <point x="371" y="-147"/>
      <point x="358" y="-182"/>
      <point x="325" y="-222" type="curve"/>
      <point x="258" y="-222" type="line"/>
      <point x="289" y="-189"/>
      <point x="304" y="-162"/>
      <point x="304" y="-139" type="curve"/>
      <point x="251" y="-139" type="line"/>
      <point x="251" y="-38" type="line"/>
    </contour>
  </outline>
</glyph>
<glyph name="Ncaron" format="1">
  <advance width="722"/>
  <unicode hex="0147"/>
  <outline>
    <contour>
      <point x="655" y="0" type="line"/>
      <point x="486" y="0" type="line"/>
      <point x="186" y="530" type="line"/>
      <point x="192" y="479"/>
      <point x="195" y="437"/>
      <point x="195" y="406" type="curve" smooth="yes"/>
      <point x="195" y="0" type="line"/>
      <point x="67" y="0" type="line"/>
      <point x="67" y="688" type="line"/>
      <point x="231" y="688" type="line"/>
      <point x="536" y="154" type="line"/>
      <point x="530" y="203"/>
      <point x="527" y="248"/>
      <point x="527" y="288" type="curve" smooth="yes"/>
      <point x="527" y="688" type="line"/>
      <point x="655" y="688" type="line"/>
    </contour>
    <contour>
      <point x="538" y="882" type="line"/>
      <point x="416" y="747" type="line"/>
      <point x="304" y="747" type="line"/>
      <point x="178" y="882" type="line"/>
      <point x="178" y="896" type="line"/>
      <point x="256" y="896" type="line"/>
      <point x="359" y="822" type="line"/>
      <point x="361" y="822" type="line"/>
      <point x="460" y="896" type="line"/>
      <point x="538" y="896" type="line"/>
    </contour>
  </outline>
</glyph>
<glyph name="napostrophe" format="1">
  <advance width="708"/>
  <unicode hex="0149"/>
  <outline>
    <contour>
      <point x="646" y="0" type="line"/>
      <point x="510" y="0" type="line"/>
      <point x="510" y="296" type="line" smooth="yes"/>
      <point x="510" y="389"/>
      <point x="479" y="436"/>
      <point x="416" y="436" type="curve" smooth="yes"/>
      <point x="349" y="436"/>
      <point x="305" y="372"/>
      <point x="305" y="283" type="curve" smooth="yes"/>
      <point x="305" y="0" type="line"/>
      <point x="167" y="0" type="line"/>
      <point x="167" y="410" type="line" smooth="yes"/>
      <point x="167" y="467"/>
      <point x="165" y="500"/>
      <point x="164" y="528" type="curve"/>
      <point x="294" y="528" type="line"/>
      <point x="295" y="522"/>
      <point x="297" y="505"/>
      <point x="298" y="478" type="curve" smooth="yes"/>
      <point x="300" y="451"/>
      <point x="301" y="433"/>
      <point x="301" y="423" type="curve"/>
      <point x="303" y="423" type="line"/>
      <point x="340" y="504"/>
      <point x="396" y="539"/>
      <point x="473" y="539" type="curve" smooth="yes"/>
      <point x="585" y="539"/>
      <point x="646" y="468"/>
      <point x="646" y="335" type="curve" smooth="yes"/>
    </contour>
    <contour>
      <point x="131" y="688" type="line"/>
      <point x="131" y="593" type="line" smooth="yes"/>
      <point x="131" y="514"/>
      <point x="117" y="461"/>
      <point x="78" y="406" type="curve"/>
      <point x="-11" y="406" type="line"/>
      <point x="32" y="461"/>
      <point x="53" y="512"/>
      <point x="53" y="561" type="curve"/>
      <point x="-9" y="561" type="line"/>
      <point x="-9" y="688" type="line"/>
    </contour>
  </outline>
</glyph>
<glyph name="Obreve" format="1">
  <advance width="778"/>
  <unicode hex="014E"/>
  <outline>
    <contour>
      <point x="736" y="347" type="curve" smooth="yes"/>
      <point x="738" y="133"/>
      <point x="599" y="-13"/>
      <point x="387" y="-10" type="curve" smooth="yes"/>
      <point x="279" y="-10"/>
      <point x="194" y="22"/>
      <point x="133" y="85" type="curve" smooth="yes"/>
      <point x="72" y="149"/>
      <point x="41" y="236"/>
      <point x="41" y="347" type="curve" smooth="yes"/>
      <point x="41" y="458"/>
      <point x="72" y="544"/>
      <point x="133" y="605" type="curve" smooth="yes"/>
      <point x="194" y="667"/>
      <point x="279" y="698"/>
      <point x="388" y="698" type="curve" smooth="yes"/>
      <point x="497" y="698"/>
      <point x="583" y="667"/>
      <point x="644" y="604" type="curve" smooth="yes"/>
      <point x="705" y="542"/>
      <point x="736" y="456"/>
    </contour>
    <contour>
      <point x="589" y="347" type="curve" smooth="yes"/>
      <point x="589" y="495"/>
      <point x="515" y="585"/>
      <point x="388" y="585" type="curve" smooth="yes"/>
      <point x="260" y="585"/>
      <point x="186" y="496"/>
      <point x="186" y="347" type="curve" smooth="yes"/>
      <point x="186" y="196"/>
      <point x="263" y="104"/>
      <point x="387" y="104" type="curve" smooth="yes"/>
      <point x="516" y="104"/>
      <point x="589" y="191"/>
    </contour>
    <contour>
      <point x="383" y="742" type="curve" smooth="yes"/>
      <point x="336" y="742"/>
      <point x="296" y="755"/>
      <point x="264" y="781" type="curve" smooth="yes"/>
      <point x="232" y="808"/>
      <point x="214" y="842"/>
      <point x="211" y="883" type="curve"/>
      <point x="291" y="883" type="line"/>
      <point x="300" y="843"/>
      <point x="339" y="816"/>
      <point x="384" y="816" type="curve" smooth="yes"/>
      <point x="431" y="816"/>
      <point x="468" y="842"/>
      <point x="477" y="883" type="curve"/>
      <point x="557" y="883" type="line"/>
      <point x="544" y="796"/>
      <point x="478" y="742"/>
    </contour>
  </outline>
</glyph>
<glyph name="obreve" format="1">
  <advance width="611"/>
  <unicode hex="014F"/>
  <outline>
    <contour>
      <point x="572" y="265" type="curve" smooth="yes"/>
      <point x="572" y="93"/>
      <point x="471" y="-10"/>
      <point x="303" y="-10" type="curve" smooth="yes"/>
      <point x="221" y="-10"/>
      <point x="156" y="14"/>
      <point x="109" y="63" type="curve" smooth="yes"/>
      <point x="62" y="112"/>
      <point x="39" y="180"/>
      <point x="39" y="265" type="curve" smooth="yes"/>
      <point x="39" y="434"/>
      <point x="138" y="538"/>
      <point x="306" y="538" type="curve" smooth="yes"/>
      <point x="479" y="538"/>
      <point x="572" y="441"/>
    </contour>
    <contour>
      <point x="428" y="265" type="curve" smooth="yes"/>
      <point x="428" y="390"/>
      <point x="387" y="444"/>
      <point x="308" y="444" type="curve" smooth="yes"/>
      <point x="225" y="444"/>
      <point x="183" y="384"/>
      <point x="183" y="265" type="curve" smooth="yes"/>
      <point x="183" y="146"/>
      <point x="225" y="84"/>
      <point x="302" y="84" type="curve" smooth="yes"/>
      <point x="386" y="84"/>
      <point x="428" y="144"/>
    </contour>
    <contour>
      <point x="308" y="578" type="curve" smooth="yes"/>
      <point x="209" y="578"/>
      <point x="144" y="644"/>
      <point x="136" y="735" type="curve"/>
      <point x="216" y="735" type="line"/>
      <point x="227" y="686"/>
      <point x="262" y="654"/>
      <point x="309" y="654" type="curve" smooth="yes"/>
      <point x="356" y="654"/>
      <point x="393" y="684"/>
      <point x="402" y="735" type="curve"/>
      <point x="482" y="735" type="line"/>
      <point x="470" y="639"/>
      <point x="408" y="578"/>
    </contour>
  </outline>
</glyph>
<glyph name="OE" format="1">
  <advance width="1000"/>
  <unicode hex="0152"/>
  <outline>
    <contour>
      <point x="961" y="0" type="line"/>
      <point x="484" y="0" type="line" smooth="yes"/>
      <point x="460" y="-1"/>
      <point x="423" y="-5"/>
      <point x="387" y="-5" type="curve" smooth="yes"/>
      <point x="278" y="-5"/>
      <point x="193" y="26"/>
      <point x="132" y="88" type="curve" smooth="yes"/>
      <point x="71" y="151"/>
      <point x="41" y="237"/>
      <point x="41" y="347" type="curve" smooth="yes"/>
      <point x="41" y="567"/>
      <point x="169" y="693"/>
      <point x="388" y="693" type="curve" smooth="yes"/>
      <point x="411" y="693"/>
      <point x="444" y="691"/>
      <point x="487" y="688" type="curve" smooth="yes"/>
      <point x="941" y="688" type="line"/>
      <point x="941" y="577" type="line"/>
      <point x="615" y="577" type="line"/>
      <point x="615" y="404" type="line"/>
      <point x="911" y="404" type="line"/>
      <point x="911" y="296" type="line"/>
      <point x="615" y="296" type="line"/>
      <point x="615" y="111" type="line"/>
      <point x="961" y="111" type="line"/>
    </contour>
    <contour>
      <point x="470" y="118" type="curve"/>
      <point x="470" y="571" type="line"/>
      <point x="447" y="577"/>
      <point x="420" y="580"/>
      <point x="388" y="580" type="curve" smooth="yes"/>
      <point x="259" y="580"/>
      <point x="186" y="495"/>
      <point x="186" y="347" type="curve" smooth="yes"/>
      <point x="186" y="198"/>
      <point x="262" y="108"/>
      <point x="387" y="108" type="curve" smooth="yes"/>
      <point x="425" y="108"/>
      <point x="453" y="111"/>
    </contour>
  </outline>
</glyph>
<glyph name="Rcommaaccent" format="1">
  <advance width="722"/>
  <unicode hex="0156"/>
  <outline>
    <contour>
      <point x="702" y="0" type="line"/>
      <point x="540" y="0" type="line"/>
      <point x="380" y="261" type="line"/>
      <point x="211" y="261" type="line"/>
      <point x="211" y="0" type="line"/>
      <point x="67" y="0" type="line"/>
      <point x="67" y="688" type="line"/>
      <point x="411" y="688" type="line" smooth="yes"/>
      <point x="575" y="688"/>
      <point x="667" y="615"/>
      <point x="667" y="483" type="curve" smooth="yes"/>
      <point x="667" y="387"/>
      <point x="608" y="312"/>
      <point x="516" y="289" type="curve"/>
    </contour>
    <contour>
      <point x="522" y="477" type="curve" smooth="yes"/>
      <point x="522" y="543"/>
      <point x="480" y="576"/>
      <point x="396" y="576" type="curve" smooth="yes"/>
      <point x="211" y="576" type="line"/>
      <point x="211" y="373" type="line"/>
      <point x="399" y="373" type="line" smooth="yes"/>
      <point x="480" y="373"/>
      <point x="522" y="412"/>
    </contour>
    <contour>
      <point x="422" y="-38" type="line"/>
      <point x="422" y="-100" type="line" smooth="yes"/>
      <point x="422" y="-147"/>
      <point x="409" y="-182"/>
      <point x="376" y="-222" type="curve"/>
      <point x="310" y="-222" type="line"/>
      <point x="340" y="-189"/>
      <point x="355" y="-162"/>
      <point x="355" y="-139" type="curve"/>
      <point x="303" y="-139" type="line"/>
      <point x="303" y="-38" type="line"/>
    </contour>
  </outline>
</glyph>
<glyph name="Rcaron" format="1">
  <advance width="722"/>
  <unicode hex="0158"/>
  <outline>
    <contour>
      <point x="702" y="0" type="line"/>
      <point x="540" y="0" type="line"/>
      <point x="380" y="261" type="line"/>
      <point x="211" y="261" type="line"/>
      <point x="211" y="0" type="line"/>
      <point x="67" y="0" type="line"/>
      <point x="67" y="688" type="line"/>
      <point x="411" y="688" type="line" smooth="yes"/>
      <point x="575" y="688"/>
      <point x="667" y="615"/>
      <point x="667" y="483" type="curve" smooth="yes"/>
      <point x="667" y="387"/>
      <point x="608" y="312"/>
      <point x="516" y="289" type="curve"/>
    </contour>
    <contour>
      <point x="522" y="477" type="curve" smooth="yes"/>
      <point x="522" y="543"/>
      <point x="480" y="576"/>
      <point x="396" y="576" type="curve" smooth="yes"/>
      <point x="211" y="576" type="line"/>
      <point x="211" y="373" type="line"/>
      <point x="399" y="373" type="line" smooth="yes"/>
      <point x="480" y="373"/>
      <point x="522" y="412"/>
    </contour>
    <contour>
      <point x="521" y="882" type="line"/>
      <point x="399" y="747" type="line"/>
      <point x="288" y="747" type="line"/>
      <point x="162" y="882" type="line"/>
      <point x="162" y="896" type="line"/>
      <point x="240" y="896" type="line"/>
      <point x="343" y="822" type="line"/>
      <point x="345" y="822" type="line"/>
      <point x="444" y="896" type="line"/>
      <point x="521" y="896" type="line"/>
    </contour>
  </outline>
</glyph>
<glyph name="scircumflex" format="1">
  <advance width="556"/>
  <unicode hex="015D"/>
  <outline>
    <contour>
      <point x="515" y="154" type="curve"/>
      <point x="515" y="53"/>
      <point x="427" y="-10"/>
      <point x="279" y="-10" type="curve" smooth="yes"/>
      <point x="134" y="-10"/>
      <point x="60" y="35"/>
      <point x="35" y="132" type="curve"/>
      <point x="156" y="150" type="line"/>
      <point x="169" y="99"/>
      <point x="195" y="81"/>
      <point x="279" y="81" type="curve" smooth="yes"/>
      <point x="355" y="81"/>
      <point x="389" y="99"/>
      <point x="389" y="142" type="curve" smooth="yes"/>
      <point x="389" y="175"/>
      <point x="364" y="194"/>
      <point x="296" y="207" type="curve" smooth="yes"/>
      <point x="219" y="222"/>
      <point x="166" y="237"/>
      <point x="139" y="250" type="curve" smooth="yes"/>
      <point x="86" y="277"/>
      <point x="56" y="318"/>
      <point x="56" y="378" type="curve" smooth="yes"/>
      <point x="56" y="479"/>
      <point x="137" y="539"/>
      <point x="280" y="539" type="curve" smooth="yes"/>
      <point x="405" y="539"/>
      <point x="484" y="488"/>
      <point x="503" y="396" type="curve"/>
      <point x="381" y="383" type="line"/>
      <point x="373" y="427"/>
      <point x="347" y="447"/>
      <point x="280" y="447" type="curve" smooth="yes"/>
      <point x="215" y="447"/>
      <point x="182" y="432"/>
      <point x="182" y="393" type="curve" smooth="yes"/>
      <point x="182" y="362"/>
      <point x="205" y="346"/>
      <point x="264" y="334" type="curve" smooth="yes"/>
      <point x="433" y="299"/>
      <point x="510" y="276"/>
    </contour>
    <contour>
      <point x="334" y="747" type="line"/>
      <point x="457" y="591" type="line"/>
      <point x="457" y="578" type="line"/>
      <point x="379" y="578" type="line"/>
      <point x="280" y="671" type="line"/>
      <point x="278" y="671" type="line"/>
      <point x="175" y="578" type="line"/>
      <point x="97" y="578" type="line"/>
      <point x="97" y="591" type="line"/>
      <point x="223" y="747" type="line"/>
    </contour>
  </outline>
</glyph>
<glyph name="uni0163" format="1">
  <advance width="333"/>
  <unicode hex="0163"/>
  <outline>
    <contour>
      <point x="205" y="-9" type="curve" smooth="yes"/>
      <point x="125" y="-9"/>
      <point x="79" y="35"/>
      <point x="79" y="124" type="curve" smooth="yes"/>
      <point x="79" y="436" type="line"/>
      <point x="12" y="436" type="line"/>
      <point x="12" y="528" type="line"/>
      <point x="86" y="528" type="line"/>
      <point x="129" y="652" type="line"/>
      <point x="215" y="652" type="line"/>
      <point x="215" y="528" type="line"/>
      <point x="315" y="528" type="line"/>
      <point x="315" y="436" type="line"/>
      <point x="215" y="436" type="line"/>
      <point x="215" y="161" type="line" smooth="yes"/>
      <point x="215" y="110"/>
      <point x="234" y="86"/>
      <point x="275" y="86" type="curve" smooth="yes"/>
      <point x="286" y="86"/>
      <point x="301" y="88"/>
      <point x="321" y="93" type="curve"/>
      <point x="321" y="8" type="line"/>
      <point x="287" y="-3"/>
      <point x="248" y="-9"/>
    </contour>
    <contour>
      <point x="312" y="-115" type="curve" smooth="yes"/>
      <point x="312" y="-176"/>
      <point x="259" y="-208"/>
      <point x="164" y="-208" type="curve" smooth="yes"/>
      <point x="149" y="-208"/>
      <point x="133" y="-207"/>
      <point x="114" y="-205" type="curve"/>
      <point x="114" y="-147" type="line"/>
      <point x="125" y="-149"/>
      <point x="139" y="-150"/>
      <point x="155" y="-150" type="curve" smooth="yes"/>
      <point x="200" y="-150"/>
      <point x="222" y="-139"/>
      <point x="222" y="-117" type="curve" smooth="yes"/>
      <point x="222" y="-94"/>
      <point x="206" y="-83"/>
      <point x="163" y="-83" type="curve" smooth="yes"/>
      <point x="150" y="-83"/>
      <point x="142" y="-83"/>
      <point x="137" y="-84" type="curve"/>
      <point x="167" y="0" type="line"/>
      <point x="237" y="0" type="line"/>
      <point x="221" y="-40" type="line"/>
      <point x="282" y="-43"/>
      <point x="312" y="-72"/>
    </contour>
  </outline>
</glyph>
<glyph name="Tcaron" format="1">
  <advance width="611"/>
  <unicode hex="0164"/>
  <outline>
    <contour>
      <point x="600" y="577" type="line"/>
      <point x="377" y="577" type="line"/>
      <point x="377" y="0" type="line"/>
      <point x="233" y="0" type="line"/>
      <point x="233" y="577" type="line"/>
      <point x="11" y="577" type="line"/>
      <point x="11" y="688" type="line"/>
      <point x="600" y="688" type="line"/>
    </contour>
    <contour>
      <point x="488" y="882" type="line"/>
      <point x="366" y="747" type="line"/>
      <point x="254" y="747" type="line"/>
      <point x="128" y="882" type="line"/>
      <point x="128" y="896" type="line"/>
      <point x="206" y="896" type="line"/>
      <point x="309" y="822" type="line"/>
      <point x="311" y="822" type="line"/>
      <point x="410" y="896" type="line"/>
      <point x="488" y="896" type="line"/>
    </contour>
  </outline>
</glyph>
<glyph name="Utilde" format="1">
  <advance width="722"/>
  <unicode hex="0168"/>
  <outline>
    <contour>
      <point x="353" y="-10" type="curve" smooth="yes"/>
      <point x="164" y="-10"/>
      <point x="60" y="86"/>
      <point x="60" y="258" type="curve" smooth="yes"/>
      <point x="60" y="688" type="line"/>
      <point x="204" y="688" type="line"/>
      <point x="204" y="269" type="line" smooth="yes"/>
      <point x="204" y="161"/>
      <point x="257" y="103"/>
      <point x="357" y="103" type="curve" smooth="yes"/>
      <point x="460" y="103"/>
      <point x="517" y="163"/>
      <point x="517" y="274" type="curve" smooth="yes"/>
      <point x="517" y="688" type="line"/>
      <point x="661" y="688" type="line"/>
      <point x="661" y="265" type="line" smooth="yes"/>
      <point x="661" y="90"/>
      <point x="549" y="-10"/>
    </contour>
    <contour>
      <point x="442" y="747" type="curve" smooth="yes"/>
      <point x="385" y="747"/>
      <point x="323" y="807"/>
      <point x="285" y="807" type="curve" smooth="yes"/>
      <point x="258" y="807"/>
      <point x="246" y="798"/>
      <point x="237" y="747" type="curve"/>
      <point x="170" y="747" type="line"/>
      <point x="179" y="852"/>
      <point x="206" y="884"/>
      <point x="280" y="890" type="curve"/>
      <point x="339" y="890"/>
      <point x="399" y="830"/>
      <point x="437" y="830" type="curve" smooth="yes"/>
      <point x="462" y="830"/>
      <point x="476" y="842"/>
      <point x="485" y="890" type="curve"/>
      <point x="551" y="890" type="line"/>
      <point x="546" y="787"/>
      <point x="509" y="747"/>
    </contour>
  </outline>
</glyph>
<glyph name="utilde" format="1">
  <advance width="611"/>
  <unicode hex="0169"/>
  <outline>
    <contour>
      <point x="62" y="528" type="line"/>
      <point x="199" y="528" type="line"/>
      <point x="199" y="232" type="line" smooth="yes"/>
      <point x="199" y="139"/>
      <point x="230" y="93"/>
      <point x="293" y="93" type="curve" smooth="yes"/>
      <point x="360" y="93"/>
      <point x="404" y="156"/>
      <point x="404" y="245" type="curve" smooth="yes"/>
      <point x="404" y="528" type="line"/>
      <point x="541" y="528" type="line"/>
      <point x="541" y="118" type="line" smooth="yes"/>
      <point x="541" y="73"/>
      <point x="542" y="34"/>
      <point x="545" y="0" type="curve"/>
      <point x="414" y="0" type="line"/>
      <point x="410" y="47"/>
      <point x="408" y="82"/>
      <point x="408" y="105" type="curve"/>
      <point x="406" y="105" type="line"/>
      <point x="369" y="25"/>
      <point x="313" y="-10"/>
      <point x="236" y="-10" type="curve" smooth="yes"/>
      <point x="124" y="-10"/>
      <point x="62" y="60"/>
      <point x="62" y="193" type="curve" smooth="yes"/>
    </contour>
    <contour>
      <point x="384" y="578" type="curve" smooth="yes"/>
      <point x="327" y="578"/>
      <point x="265" y="638"/>
      <point x="227" y="638" type="curve" smooth="yes"/>
      <point x="200" y="638"/>
      <point x="188" y="627"/>
      <point x="179" y="578" type="curve"/>
      <point x="112" y="578" type="line"/>
      <point x="121" y="683"/>
      <point x="148" y="715"/>
      <point x="222" y="721" type="curve"/>
      <point x="281" y="721"/>
      <point x="342" y="661"/>
      <point x="378" y="661" type="curve" smooth="yes"/>
      <point x="405" y="661"/>
      <point x="418" y="673"/>
      <point x="427" y="721" type="curve"/>
      <point x="493" y="721" type="line"/>
      <point x="488" y="618"/>
      <point x="451" y="578"/>
    </contour>
  </outline>
</glyph>
<glyph name="ubreve" format="1">
  <advance width="611"/>
  <unicode hex="016D"/>
  <outline>
    <contour>
      <point x="62" y="528" type="line"/>
      <point x="199" y="528" type="line"/>
      <point x="199" y="232" type="line" smooth="yes"/>
      <point x="199" y="139"/>
      <point x="230" y="93"/>
      <point x="293" y="93" type="curve" smooth="yes"/>
      <point x="360" y="93"/>
      <point x="404" y="156"/>
      <point x="404" y="245" type="curve" smooth="yes"/>
      <point x="404" y="528" type="line"/>
      <point x="541" y="528" type="line"/>
      <point x="541" y="118" type="line" smooth="yes"/>
      <point x="541" y="73"/>
      <point x="542" y="34"/>
      <point x="545" y="0" type="curve"/>
      <point x="414" y="0" type="line"/>
      <point x="410" y="47"/>
      <point x="408" y="82"/>
      <point x="408" y="105" type="curve"/>
      <point x="406" y="105" type="line"/>
      <point x="369" y="25"/>
      <point x="313" y="-10"/>
      <point x="236" y="-10" type="curve" smooth="yes"/>
      <point x="124" y="-10"/>
      <point x="62" y="60"/>
      <point x="62" y="193" type="curve" smooth="yes"/>
    </contour>
    <contour>
      <point x="304" y="578" type="curve" smooth="yes"/>
      <point x="255" y="578"/>
      <point x="214" y="593"/>
      <point x="183" y="622" type="curve" smooth="yes"/>
      <point x="152" y="652"/>
      <point x="135" y="690"/>
      <point x="132" y="735" type="curve"/>
      <point x="211" y="735" type="line"/>
      <point x="222" y="686"/>
      <point x="258" y="654"/>
      <point x="305" y="654" type="curve" smooth="yes"/>
      <point x="350" y="654"/>
      <point x="389" y="684"/>
      <point x="397" y="735" type="curve"/>
      <point x="478" y="735" type="line"/>
      <point x="466" y="639"/>
      <point x="403" y="578"/>
    </contour>
  </outline>
</glyph>
<glyph name="Uring" format="1">
  <advance width="722"/>
  <unicode hex="016E"/>
  <outline>
    <contour>
      <point x="353" y="-10" type="curve" smooth="yes"/>
      <point x="164" y="-10"/>
      <point x="60" y="86"/>
      <point x="60" y="258" type="curve" smooth="yes"/>
      <point x="60" y="688" type="line"/>
      <point x="204" y="688" type="line"/>
      <point x="204" y="269" type="line" smooth="yes"/>
      <point x="204" y="161"/>
      <point x="257" y="103"/>
      <point x="357" y="103" type="curve" smooth="yes"/>
      <point x="460" y="103"/>
      <point x="517" y="163"/>
      <point x="517" y="274" type="curve" smooth="yes"/>
      <point x="517" y="688" type="line"/>
      <point x="661" y="688" type="line"/>
      <point x="661" y="265" type="line" smooth="yes"/>
      <point x="661" y="90"/>
      <point x="549" y="-10"/>
    </contour>
    <contour>
      <point x="485" y="842" type="curve" smooth="yes"/>
      <point x="485" y="808"/>
      <point x="473" y="779"/>
      <point x="449" y="754" type="curve" smooth="yes"/>
      <point x="426" y="730"/>
      <point x="396" y="718"/>
      <point x="361" y="718" type="curve" smooth="yes"/>
      <point x="326" y="718"/>
      <point x="297" y="730"/>
      <point x="273" y="754" type="curve" smooth="yes"/>
      <point x="249" y="779"/>
      <point x="237" y="808"/>
      <point x="237" y="842" type="curve" smooth="yes"/>
      <point x="237" y="876"/>
      <point x="249" y="905"/>
      <point x="273" y="929" type="curve" smooth="yes"/>
      <point x="298" y="954"/>
      <point x="327" y="966"/>
      <point x="361" y="966" type="curve" smooth="yes"/>
      <point x="396" y="966"/>
      <point x="425" y="954"/>
      <point x="449" y="929" type="curve" smooth="yes"/>
      <point x="473" y="905"/>
      <point x="485" y="876"/>
    </contour>
    <contour>
      <point x="423" y="842" type="curve" smooth="yes"/>
      <point x="423" y="875"/>
      <point x="397" y="903"/>
      <point x="361" y="903" type="curve" smooth="yes"/>
      <point x="328" y="903"/>
      <point x="300" y="877"/>
      <point x="300" y="842" type="curve" smooth="yes"/>
      <point x="300" y="805"/>
      <point x="328" y="779"/>
      <point x="361" y="779" type="curve" smooth="yes"/>
      <point x="396" y="779"/>
      <point x="423" y="806"/>
    </contour>
  </outline>
</glyph>
<glyph name="uring" format="1">
  <advance width="611"/>
  <unicode hex="016F"/>
  <outline>
    <contour>
      <point x="62" y="528" type="line"/>
      <point x="199" y="528" type="line"/>
      <point x="199" y="232" type="line" smooth="yes"/>
      <point x="199" y="139"/>
      <point x="230" y="93"/>
      <point x="293" y="93" type="curve" smooth="yes"/>
      <point x="360" y="93"/>
      <point x="404" y="156"/>
      <point x="404" y="245" type="curve" smooth="yes"/>
      <point x="404" y="528" type="line"/>
      <point x="541" y="528" type="line"/>
      <point x="541" y="118" type="line" smooth="yes"/>
      <point x="541" y="73"/>
      <point x="542" y="34"/>
      <point x="545" y="0" type="curve"/>
      <point x="414" y="0" type="line"/>
      <point x="410" y="47"/>
      <point x="408" y="82"/>
      <point x="408" y="105" type="curve"/>
      <point x="406" y="105" type="line"/>
      <point x="369" y="25"/>
      <point x="313" y="-10"/>
      <point x="236" y="-10" type="curve" smooth="yes"/>
      <point x="124" y="-10"/>
      <point x="62" y="60"/>
      <point x="62" y="193" type="curve" smooth="yes"/>
    </contour>
    <contour>
      <point x="427" y="679" type="curve" smooth="yes"/>
      <point x="427" y="644"/>
      <point x="415" y="615"/>
      <point x="391" y="591" type="curve" smooth="yes"/>
      <point x="367" y="567"/>
      <point x="338" y="555"/>
      <point x="303" y="555" type="curve" smooth="yes"/>
      <point x="268" y="555"/>
      <point x="239" y="567"/>
      <point x="215" y="591" type="curve" smooth="yes"/>
      <point x="191" y="615"/>
      <point x="179" y="644"/>
      <point x="179" y="679" type="curve" smooth="yes"/>
      <point x="179" y="713"/>
      <point x="191" y="742"/>
      <point x="215" y="766" type="curve" smooth="yes"/>
      <point x="240" y="791"/>
      <point x="269" y="803"/>
      <point x="303" y="803" type="curve" smooth="yes"/>
      <point x="337" y="803"/>
      <point x="366" y="791"/>
      <point x="390" y="766" type="curve" smooth="yes"/>
      <point x="415" y="742"/>
      <point x="427" y="713"/>
    </contour>
    <contour>
      <point x="365" y="679" type="curve" smooth="yes"/>
      <point x="365" y="712"/>
      <point x="339" y="740"/>
      <point x="303" y="740" type="curve" smooth="yes"/>
      <point x="270" y="740"/>
      <point x="242" y="714"/>
      <point x="242" y="679" type="curve" smooth="yes"/>
      <point x="242" y="642"/>
      <point x="270" y="616"/>
      <point x="303" y="616" type="curve" smooth="yes"/>
      <point x="338" y="616"/>
      <point x="365" y="643"/>
    </contour>
  </outline>
</glyph>
<glyph name="uogonek" format="1">
  <advance width="611"/>
  <unicode hex="0173"/>
  <outline>
    <contour>
      <point x="62" y="528" type="line"/>
      <point x="199" y="528" type="line"/>
      <point x="199" y="232" type="line" smooth="yes"/>
      <point x="199" y="139"/>
      <point x="230" y="93"/>
      <point x="293" y="93" type="curve" smooth="yes"/>
      <point x="360" y="93"/>
      <point x="404" y="156"/>
      <point x="404" y="245" type="curve" smooth="yes"/>
      <point x="404" y="528" type="line"/>
      <point x="541" y="528" type="line"/>
      <point x="541" y="118" type="line" smooth="yes"/>
      <point x="541" y="73"/>
      <point x="542" y="34"/>
      <point x="545" y="0" type="curve"/>
      <point x="414" y="0" type="line"/>
      <point x="410" y="47"/>
      <point x="408" y="82"/>
      <point x="408" y="105" type="curve"/>
      <point x="406" y="105" type="line"/>
      <point x="369" y="25"/>
      <point x="313" y="-10"/>
      <point x="236" y="-10" type="curve" smooth="yes"/>
      <point x="124" y="-10"/>
      <point x="62" y="60"/>
      <point x="62" y="193" type="curve" smooth="yes"/>
    </contour>
    <contour>
      <point x="468" y="-208" type="curve" smooth="yes"/>
      <point x="396" y="-208"/>
      <point x="352" y="-170"/>
      <point x="352" y="-110" type="curve" smooth="yes"/>
      <point x="352" y="-61"/>
      <point x="384" y="-14"/>
      <point x="429" y="10" type="curve"/>
      <point x="504" y="10" type="line"/>
      <point x="463" y="-17"/>
      <point x="441" y="-57"/>
      <point x="441" y="-92" type="curve" smooth="yes"/>
      <point x="441" y="-120"/>
      <point x="458" y="-138"/>
      <point x="487" y="-138" type="curve" smooth="yes"/>
      <point x="504" y="-138"/>
      <point x="523" y="-134"/>
      <point x="542" y="-125" type="curve"/>
      <point x="542" y="-191" type="line"/>
      <point x="521" y="-202"/>
      <point x="497" y="-208"/>
    </contour>
  </outline>
</glyph>
<glyph name="Wcircumflex" format="1">
  <advance width="944"/>
  <unicode hex="0174"/>
  <outline>
    <contour>
      <point x="943" y="688" type="line"/>
      <point x="765" y="0" type="line"/>
      <point x="594" y="0" type="line"/>
      <point x="501" y="398" type="line" smooth="yes"/>
      <point x="490" y="445"/>
      <point x="480" y="494"/>
      <point x="472" y="545" type="curve"/>
      <point x="464" y="502"/>
      <point x="458" y="470"/>
      <point x="453" y="447" type="curve" smooth="yes"/>
      <point x="448" y="425"/>
      <point x="414" y="276"/>
      <point x="349" y="0" type="curve"/>
      <point x="178" y="0" type="line"/>
      <point x="1" y="688" type="line"/>
      <point x="147" y="688" type="line"/>
      <point x="247" y="244" type="line"/>
      <point x="269" y="136" type="line"/>
      <point x="296" y="266" type="line" smooth="yes"/>
      <point x="305" y="307"/>
      <point x="337" y="448"/>
      <point x="393" y="688" type="curve"/>
      <point x="554" y="688" type="line"/>
      <point x="641" y="322" type="line" smooth="yes"/>
      <point x="648" y="295"/>
      <point x="659" y="233"/>
      <point x="676" y="136" type="curve"/>
      <point x="688" y="193" type="line"/>
      <point x="714" y="305" type="line"/>
      <point x="797" y="688" type="line"/>
    </contour>
    <contour>
      <point x="531" y="896" type="line"/>
      <point x="653" y="761" type="line"/>
      <point x="653" y="747" type="line"/>
      <point x="575" y="747" type="line"/>
      <point x="476" y="821" type="line"/>
      <point x="474" y="821" type="line"/>
      <point x="371" y="747" type="line"/>
      <point x="293" y="747" type="line"/>
      <point x="293" y="761" type="line"/>
      <point x="419" y="896" type="line"/>
    </contour>
  </outline>
</glyph>
<glyph name="Ycircumflex" format="1">
  <advance width="667"/>
  <unicode hex="0176"/>
  <outline>
    <contour>
      <point x="651" y="688" type="line"/>
      <point x="406" y="282" type="line"/>
      <point x="406" y="0" type="line"/>
      <point x="262" y="0" type="line"/>
      <point x="262" y="282" type="line"/>
      <point x="17" y="688" type="line"/>
      <point x="168" y="688" type="line"/>
      <point x="333" y="397" type="line"/>
      <point x="500" y="688" type="line"/>
    </contour>
    <contour>
      <point x="392" y="896" type="line"/>
      <point x="514" y="761" type="line"/>
      <point x="514" y="747" type="line"/>
      <point x="437" y="747" type="line"/>
      <point x="337" y="821" type="line"/>
      <point x="335" y="821" type="line"/>
      <point x="232" y="747" type="line"/>
      <point x="154" y="747" type="line"/>
      <point x="154" y="761" type="line"/>
      <point x="280" y="896" type="line"/>
    </contour>
  </outline>
</glyph>
<glyph name="Zcaron" format="1">
  <advance width="611"/>
  <unicode hex="017D"/>
  <outline>
    <contour>
      <point x="582" y="113" type="line"/>
      <point x="582" y="0" type="line"/>
      <point x="30" y="0" type="line"/>
      <point x="30" y="102" type="line"/>
      <point x="402" y="575" type="line"/>
      <point x="67" y="575" type="line"/>
      <point x="67" y="688" type="line"/>
      <point x="562" y="688" type="line"/>
      <point x="562" y="588" type="line"/>
      <point x="190" y="113" type="line"/>
    </contour>
    <contour>
      <point x="494" y="882" type="line"/>
      <point x="372" y="747" type="line"/>
      <point x="260" y="747" type="line"/>
      <point x="134" y="882" type="line"/>
      <point x="134" y="896" type="line"/>
      <point x="212" y="896" type="line"/>
      <point x="315" y="822" type="line"/>
      <point x="317" y="822" type="line"/>
      <point x="416" y="896" type="line"/>
      <point x="494" y="896" type="line"/>
    </contour>
  </outline>
</glyph>
<glyph name="zcaron" format="1">
  <advance width="500"/>
  <unicode hex="017E"/>
  <outline>
    <contour>
      <point x="464" y="0" type="line"/>
      <point x="40" y="0" type="line"/>
      <point x="40" y="97" type="line"/>
      <point x="289" y="429" type="line"/>
      <point x="60" y="429" type="line"/>
      <point x="60" y="528" type="line"/>
      <point x="440" y="528" type="line"/>
      <point x="440" y="430" type="line"/>
      <point x="193" y="100" type="line"/>
      <point x="464" y="100" type="line"/>
    </contour>
    <contour>
      <point x="430" y="732" type="line"/>
      <point x="308" y="578" type="line"/>
      <point x="196" y="578" type="line"/>
      <point x="70" y="732" type="line"/>
      <point x="70" y="747" type="line"/>
      <point x="148" y="747" type="line"/>
      <point x="251" y="652" type="line"/>
      <point x="253" y="652" type="line"/>
      <point x="352" y="747" type="line"/>
      <point x="430" y="747" type="line"/>
    </contour>
  </outline>
</glyph>
<glyph name="uni0187" format="1">
  <advance width="722"/>
  <unicode hex="0187"/>
  <outline>
    <contour>
      <point x="686" y="507" type="line"/>
      <point x="559" y="472" type="line"/>
      <point x="538" y="541"/>
      <point x="470" y="585"/>
      <point x="385" y="585" type="curve" smooth="yes"/>
      <point x="254" y="585"/>
      <point x="186" y="503"/>
      <point x="186" y="347" type="curve" smooth="yes"/>
      <point x="186" y="190"/>
      <point x="257" y="104"/>
      <point x="388" y="104" type="curve" smooth="yes"/>
      <point x="471" y="104"/>
      <point x="532" y="142"/>
      <point x="569" y="234" type="curve"/>
      <point x="695" y="187" type="line"/>
      <point x="642" y="55"/>
      <point x="535" y="-10"/>
      <point x="388" y="-10" type="curve" smooth="yes"/>
      <point x="167" y="-10"/>
      <point x="41" y="122"/>
      <point x="41" y="347" type="curve" smooth="yes"/>
      <point x="41" y="574"/>
      <point x="161" y="698"/>
      <point x="382" y="698" type="curve" smooth="yes"/>
      <point x="451" y="698"/>
      <point x="509" y="686"/>
      <point x="556" y="663" type="curve"/>
      <point x="556" y="692" type="line" smooth="yes"/>
      <point x="556" y="784"/>
      <point x="613" y="833"/>
      <point x="709" y="833" type="curve" smooth="yes"/>
      <point x="734" y="833"/>
      <point x="759" y="830"/>
      <point x="784" y="825" type="curve"/>
      <point x="784" y="726" type="line"/>
      <point x="765" y="729"/>
      <point x="750" y="731"/>
      <point x="741" y="731" type="curve" smooth="yes"/>
      <point x="702" y="731"/>
      <point x="686" y="710"/>
      <point x="686" y="663" type="curve" smooth="yes"/>
    </contour>
  </outline>
</glyph>
<glyph name="uni018A" format="1">
  <advance width="837"/>
  <unicode hex="018A"/>
  <outline>
    <contour>
      <point x="796" y="349" type="curve" smooth="yes"/>
      <point x="798" y="137"/>
      <point x="658" y="-3"/>
      <point x="461" y="0" type="curve" smooth="yes"/>
      <point x="183" y="0" type="line"/>
      <point x="183" y="583" type="line"/>
      <point x="169" y="583" type="line" smooth="yes"/>
      <point x="126" y="583"/>
      <point x="104" y="565"/>
      <point x="104" y="530" type="curve" smooth="yes"/>
      <point x="104" y="513"/>
      <point x="109" y="491"/>
      <point x="119" y="464" type="curve"/>
      <point x="15" y="456" type="line"/>
      <point x="5" y="490"/>
      <point x="0" y="523"/>
      <point x="0" y="554" type="curve" smooth="yes"/>
      <point x="0" y="637"/>
      <point x="64" y="688"/>
      <point x="163" y="688" type="curve" smooth="yes"/>
      <point x="432" y="688" type="line" smooth="yes"/>
      <point x="663" y="688"/>
      <point x="796" y="566"/>
    </contour>
    <contour>
      <point x="651" y="349" type="curve" smooth="yes"/>
      <point x="651" y="497"/>
      <point x="572" y="577"/>
      <point x="429" y="577" type="curve" smooth="yes"/>
      <point x="327" y="577" type="line"/>
      <point x="327" y="111" type="line"/>
      <point x="449" y="111" type="line" smooth="yes"/>
      <point x="573" y="111"/>
      <point x="651" y="202"/>
    </contour>
  </outline>
</glyph>
<glyph name="uni018B" format="1">
  <advance width="719"/>
  <unicode hex="018B"/>
  <outline>
    <contour>
      <point x="43" y="210" type="curve" smooth="yes"/>
      <point x="43" y="338"/>
      <point x="129" y="411"/>
      <point x="282" y="411" type="curve" smooth="yes"/>
      <point x="511" y="411" type="line"/>
      <point x="511" y="577" type="line"/>
      <point x="137" y="577" type="line"/>
      <point x="137" y="688" type="line"/>
      <point x="655" y="688" type="line"/>
      <point x="655" y="0" type="line"/>
      <point x="297" y="0" type="line" smooth="yes"/>
      <point x="220" y="0"/>
      <point x="158" y="19"/>
      <point x="112" y="56" type="curve" smooth="yes"/>
      <point x="66" y="94"/>
      <point x="43" y="145"/>
    </contour>
    <contour>
      <point x="189" y="208" type="curve" smooth="yes"/>
      <point x="189" y="141"/>
      <point x="233" y="107"/>
      <point x="321" y="107" type="curve" smooth="yes"/>
      <point x="511" y="107" type="line"/>
      <point x="511" y="304" type="line"/>
      <point x="324" y="304" type="line" smooth="yes"/>
      <point x="233" y="304"/>
      <point x="189" y="268"/>
    </contour>
  </outline>
</glyph>
<glyph name="uni018D" format="1">
  <advance width="606"/>
  <unicode hex="018D"/>
  <outline>
    <contour>
      <point x="572" y="270" type="curve" smooth="yes"/>
      <point x="572" y="125"/>
      <point x="497" y="27"/>
      <point x="362" y="4" type="curve"/>
      <point x="532" y="-119" type="line"/>
      <point x="532" y="-207" type="line"/>
      <point x="81" y="-207" type="line"/>
      <point x="81" y="-108" type="line"/>
      <point x="343" y="-108" type="line"/>
      <point x="141" y="38" type="line" smooth="yes"/>
      <point x="78" y="83"/>
      <point x="39" y="159"/>
      <point x="39" y="270" type="curve" smooth="yes"/>
      <point x="39" y="434"/>
      <point x="138" y="538"/>
      <point x="306" y="538" type="curve" smooth="yes"/>
      <point x="478" y="538"/>
      <point x="572" y="443"/>
    </contour>
    <contour>
      <point x="428" y="270" type="curve" smooth="yes"/>
      <point x="428" y="386"/>
      <point x="388" y="444"/>
      <point x="308" y="444" type="curve" smooth="yes"/>
      <point x="225" y="444"/>
      <point x="183" y="386"/>
      <point x="183" y="270" type="curve" smooth="yes"/>
      <point x="183" y="155"/>
      <point x="226" y="94"/>
      <point x="302" y="94" type="curve" smooth="yes"/>
      <point x="386" y="94"/>
      <point x="428" y="153"/>
    </contour>
  </outline>
</glyph>
<glyph name="uni018E" format="1">
  <advance width="667"/>
  <unicode hex="018E"/>
  <outline>
    <contour>
      <point x="600" y="0" type="line"/>
      <point x="39" y="0" type="line"/>
      <point x="39" y="111" type="line"/>
      <point x="456" y="111" type="line"/>
      <point x="456" y="292" type="line"/>
      <point x="89" y="292" type="line"/>
      <point x="89" y="404" type="line"/>
      <point x="456" y="404" type="line"/>
      <point x="456" y="577" type="line"/>
      <point x="59" y="577" type="line"/>
      <point x="59" y="688" type="line"/>
      <point x="600" y="688" type="line"/>
    </contour>
  </outline>
</glyph>
<glyph name="uni0191" format="1">
  <advance width="611"/>
  <unicode hex="0191"/>
  <outline>
    <contour>
      <point x="574" y="577" type="line"/>
      <point x="211" y="577" type="line"/>
      <point x="211" y="364" type="line"/>
      <point x="563" y="364" type="line"/>
      <point x="563" y="252" type="line"/>
      <point x="211" y="252" type="line"/>
      <point x="211" y="-16" type="line" smooth="yes"/>
      <point x="211" y="-144"/>
      <point x="155" y="-208"/>
      <point x="43" y="-208" type="curve" smooth="yes"/>
      <point x="19" y="-208"/>
      <point x="-8" y="-205"/>
      <point x="-37" y="-198" type="curve"/>
      <point x="-37" y="-90" type="line"/>
      <point x="-15" y="-95"/>
      <point x="0" y="-97"/>
      <point x="9" y="-97" type="curve" smooth="yes"/>
      <point x="52" y="-97"/>
      <point x="67" y="-72"/>
      <point x="67" y="-21" type="curve" smooth="yes"/>
      <point x="67" y="688" type="line"/>
      <point x="574" y="688" type="line"/>
    </contour>
  </outline>
</glyph>
<glyph name="uni0193" format="1">
  <advance width="778"/>
  <unicode hex="0193"/>
  <outline>
    <contour>
      <point x="394" y="103" type="curve" smooth="yes"/>
      <point x="469" y="103"/>
      <point x="545" y="128"/>
      <point x="584" y="161" type="curve"/>
      <point x="584" y="256" type="line"/>
      <point x="416" y="256" type="line"/>
      <point x="416" y="363" type="line"/>
      <point x="716" y="363" type="line"/>
      <point x="716" y="110" type="line"/>
      <point x="643" y="35"/>
      <point x="518" y="-10"/>
      <point x="390" y="-10" type="curve" smooth="yes"/>
      <point x="166" y="-10"/>
      <point x="41" y="119"/>
      <point x="41" y="347" type="curve" smooth="yes"/>
      <point x="41" y="574"/>
      <point x="166" y="698"/>
      <point x="393" y="698" type="curve" smooth="yes"/>
      <point x="464" y="698"/>
      <point x="523" y="686"/>
      <point x="571" y="663" type="curve"/>
      <point x="571" y="692" type="line" smooth="yes"/>
      <point x="571" y="784"/>
      <point x="628" y="833"/>
      <point x="725" y="833" type="curve" smooth="yes"/>
      <point x="749" y="833"/>
      <point x="774" y="830"/>
      <point x="799" y="825" type="curve"/>
      <point x="799" y="726" type="line"/>
      <point x="780" y="729"/>
      <point x="766" y="731"/>
      <point x="756" y="731" type="curve" smooth="yes"/>
      <point x="717" y="731"/>
      <point x="701" y="710"/>
      <point x="701" y="663" type="curve" smooth="yes"/>
      <point x="701" y="519" type="line"/>
      <point x="568" y="479" type="line"/>
      <point x="540" y="548"/>
      <point x="476" y="585"/>
      <point x="393" y="585" type="curve" smooth="yes"/>
      <point x="258" y="585"/>
      <point x="186" y="500"/>
      <point x="186" y="347" type="curve" smooth="yes"/>
      <point x="186" y="191"/>
      <point x="262" y="103"/>
    </contour>
  </outline>
</glyph>
<glyph name="uni0194" format="1">
  <advance width="637"/>
  <unicode hex="0194"/>
  <outline>
    <contour>
      <point x="247" y="132" type="curve"/>
      <point x="7" y="688" type="line"/>
      <point x="157" y="688" type="line"/>
      <point x="320" y="265" type="line"/>
      <point x="482" y="688" type="line"/>
      <point x="631" y="688" type="line"/>
      <point x="393" y="132" type="line"/>
      <point x="426" y="72"/>
      <point x="447" y="28"/>
      <point x="458" y="-1" type="curve" smooth="yes"/>
      <point x="469" y="-30"/>
      <point x="474" y="-55"/>
      <point x="474" y="-74" type="curve" smooth="yes"/>
      <point x="474" y="-161"/>
      <point x="419" y="-208"/>
      <point x="320" y="-208" type="curve" smooth="yes"/>
      <point x="224" y="-208"/>
      <point x="167" y="-158"/>
      <point x="167" y="-73" type="curve" smooth="yes"/>
      <point x="167" y="-52"/>
      <point x="172" y="-28"/>
      <point x="181" y="-1" type="curve" smooth="yes"/>
      <point x="191" y="26"/>
      <point x="213" y="71"/>
    </contour>
    <contour>
      <point x="358" y="-59" type="curve" smooth="yes"/>
      <point x="358" y="-35"/>
      <point x="352" y="-13"/>
      <point x="320" y="46" type="curve"/>
      <point x="305" y="19"/>
      <point x="296" y="2"/>
      <point x="293" y="-7" type="curve" smooth="yes"/>
      <point x="286" y="-26"/>
      <point x="283" y="-40"/>
      <point x="283" y="-59" type="curve" smooth="yes"/>
      <point x="283" y="-90"/>
      <point x="299" y="-104"/>
      <point x="320" y="-104" type="curve" smooth="yes"/>
      <point x="343" y="-104"/>
      <point x="358" y="-91"/>
    </contour>
  </outline>
</glyph>
<glyph name="uni0199" format="1">
  <advance width="556"/>
  <unicode hex="0199"/>
  <outline>
    <contour>
      <point x="557" y="0" type="line"/>
      <point x="407" y="0" type="line"/>
      <point x="266" y="239" type="line"/>
      <point x="207" y="198" type="line"/>
      <point x="207" y="0" type="line"/>
      <point x="70" y="0" type="line"/>
      <point x="70" y="587" type="line" smooth="yes"/>
      <point x="70" y="678"/>
      <point x="130" y="729"/>
      <point x="230" y="729" type="curve" smooth="yes"/>
      <point x="262" y="729"/>
      <point x="292" y="726"/>
      <point x="319" y="721" type="curve"/>
      <point x="319" y="623" type="line"/>
      <point x="308" y="626"/>
      <point x="277" y="628"/>
      <point x="264" y="628" type="curve" smooth="yes"/>
      <point x="224" y="628"/>
      <point x="207" y="605"/>
      <point x="207" y="560" type="curve" smooth="yes"/>
      <point x="207" y="310" type="line"/>
      <point x="396" y="528" type="line"/>
      <point x="543" y="528" type="line"/>
      <point x="357" y="322" type="line"/>
    </contour>
  </outline>
</glyph>
<glyph name="uni019B" format="1">
  <advance width="556"/>
  <unicode hex="019B"/>
  <outline>
    <contour>
      <point x="63" y="481" type="line"/>
      <point x="26" y="566" type="line"/>
      <point x="165" y="625" type="line"/>
      <point x="125" y="725" type="line"/>
      <point x="271" y="725" type="line"/>
      <point x="289" y="678" type="line"/>
      <point x="377" y="716" type="line"/>
      <point x="413" y="631" type="line"/>
      <point x="322" y="592" type="line"/>
      <point x="551" y="0" type="line"/>
      <point x="407" y="0" type="line"/>
      <point x="278" y="389" type="line"/>
      <point x="153" y="0" type="line"/>
      <point x="8" y="0" type="line"/>
      <point x="207" y="523" type="line"/>
      <point x="200" y="540" type="line"/>
    </contour>
  </outline>
</glyph>
<glyph name="uni019C" format="1">
  <advance width="992"/>
  <unicode hex="019C"/>
  <outline>
    <contour>
      <point x="424" y="688" type="line"/>
      <point x="568" y="688" type="line"/>
      <point x="568" y="232" type="line" smooth="yes"/>
      <point x="568" y="136"/>
      <point x="600" y="93"/>
      <point x="665" y="93" type="curve" smooth="yes"/>
      <point x="737" y="93"/>
      <point x="781" y="157"/>
      <point x="781" y="246" type="curve" smooth="yes"/>
      <point x="781" y="688" type="line"/>
      <point x="925" y="688" type="line"/>
      <point x="925" y="0" type="line"/>
      <point x="777" y="0" type="line"/>
      <point x="771" y="83" type="line"/>
      <point x="770" y="83" type="line"/>
      <point x="733" y="16"/>
      <point x="680" y="-10"/>
      <point x="607" y="-10" type="curve" smooth="yes"/>
      <point x="523" y="-10"/>
      <point x="471" y="21"/>
      <point x="444" y="88" type="curve"/>
      <point x="440" y="88" type="line"/>
      <point x="395" y="17"/>
      <point x="341" y="-10"/>
      <point x="252" y="-10" type="curve" smooth="yes"/>
      <point x="135" y="-10"/>
      <point x="67" y="62"/>
      <point x="67" y="193" type="curve" smooth="yes"/>
      <point x="67" y="688" type="line"/>
      <point x="211" y="688" type="line"/>
      <point x="211" y="232" type="line" smooth="yes"/>
      <point x="211" y="136"/>
      <point x="244" y="93"/>
      <point x="309" y="93" type="curve" smooth="yes"/>
      <point x="377" y="93"/>
      <point x="424" y="152"/>
      <point x="424" y="239" type="curve" smooth="yes"/>
    </contour>
  </outline>
</glyph>
<glyph name="uni01A2" format="1">
  <advance width="887"/>
  <unicode hex="01A2"/>
  <outline>
    <contour>
      <point x="813" y="-208" type="line"/>
      <point x="676" y="-208" type="line"/>
      <point x="676" y="577" type="line"/>
      <point x="582" y="577" type="line"/>
      <point x="582" y="41" type="line"/>
      <point x="537" y="12"/>
      <point x="452" y="-10"/>
      <point x="379" y="-10" type="curve" smooth="yes"/>
      <point x="162" y="-10"/>
      <point x="41" y="122"/>
      <point x="41" y="347" type="curve" smooth="yes"/>
      <point x="41" y="574"/>
      <point x="161" y="698"/>
      <point x="382" y="698" type="curve" smooth="yes"/>
      <point x="447" y="698"/>
      <point x="506" y="685"/>
      <point x="560" y="658" type="curve"/>
      <point x="778" y="696" type="line"/>
      <point x="813" y="696" type="line"/>
    </contour>
    <contour>
      <point x="388" y="101" type="curve" smooth="yes"/>
      <point x="408" y="101"/>
      <point x="427" y="103"/>
      <point x="444" y="108" type="curve"/>
      <point x="444" y="580" type="line"/>
      <point x="425" y="585"/>
      <point x="405" y="587"/>
      <point x="385" y="587" type="curve" smooth="yes"/>
      <point x="256" y="587"/>
      <point x="186" y="503"/>
      <point x="186" y="347" type="curve" smooth="yes"/>
      <point x="186" y="188"/>
      <point x="257" y="101"/>
    </contour>
  </outline>
</glyph>
<glyph name="uni01A4" format="1">
  <advance width="782"/>
  <unicode hex="01A4"/>
  <outline>
    <contour>
      <point x="183" y="583" type="line"/>
      <point x="169" y="583" type="line" smooth="yes"/>
      <point x="126" y="583"/>
      <point x="104" y="565"/>
      <point x="104" y="530" type="curve" smooth="yes"/>
      <point x="104" y="513"/>
      <point x="109" y="491"/>
      <point x="119" y="464" type="curve"/>
      <point x="15" y="456" type="line"/>
      <point x="5" y="490"/>
      <point x="0" y="523"/>
      <point x="0" y="554" type="curve" smooth="yes"/>
      <point x="0" y="637"/>
      <point x="64" y="688"/>
      <point x="163" y="688" type="curve" smooth="yes"/>
      <point x="492" y="688" type="line" smooth="yes"/>
      <point x="656" y="688"/>
      <point x="749" y="609"/>
      <point x="749" y="470" type="curve" smooth="yes"/>
      <point x="749" y="335"/>
      <point x="652" y="242"/>
      <point x="498" y="242" type="curve" smooth="yes"/>
      <point x="327" y="242" type="line"/>
      <point x="327" y="0" type="line"/>
      <point x="183" y="0" type="line"/>
    </contour>
    <contour>
      <point x="604" y="468" type="curve" smooth="yes"/>
      <point x="604" y="540"/>
      <point x="561" y="576"/>
      <point x="476" y="576" type="curve" smooth="yes"/>
      <point x="327" y="576" type="line"/>
      <point x="327" y="353" type="line"/>
      <point x="479" y="353" type="line" smooth="yes"/>
      <point x="559" y="353"/>
      <point x="604" y="393"/>
    </contour>
  </outline>
</glyph>
<glyph name="uni01A6" format="1">
  <advance width="667"/>
  <unicode hex="01A6"/>
  <outline>
    <contour>
      <point x="654" y="-161" type="line"/>
      <point x="498" y="-161" type="line"/>
      <point x="337" y="175" type="line"/>
      <point x="211" y="175" type="line"/>
      <point x="211" y="0" type="line"/>
      <point x="67" y="0" type="line"/>
      <point x="67" y="688" type="line"/>
      <point x="211" y="688" type="line"/>
      <point x="211" y="602" type="line"/>
      <point x="363" y="602" type="line" smooth="yes"/>
      <point x="527" y="602"/>
      <point x="620" y="529"/>
      <point x="620" y="397" type="curve" smooth="yes"/>
      <point x="620" y="301"/>
      <point x="561" y="226"/>
      <point x="468" y="203" type="curve"/>
    </contour>
    <contour>
      <point x="475" y="391" type="curve" smooth="yes"/>
      <point x="475" y="457"/>
      <point x="433" y="490"/>
      <point x="348" y="490" type="curve" smooth="yes"/>
      <point x="211" y="490" type="line"/>
      <point x="211" y="287" type="line"/>
      <point x="352" y="287" type="line" smooth="yes"/>
      <point x="432" y="287"/>
      <point x="475" y="326"/>
    </contour>
  </outline>
</glyph>
<glyph name="uni01AA" format="1">
  <advance width="360"/>
  <unicode hex="01AA"/>
  <outline>
    <contour>
      <point x="12" y="628" type="curve" smooth="yes"/>
      <point x="12" y="689"/>
      <point x="56" y="728"/>
      <point x="125" y="728" type="curve" smooth="yes"/>
      <point x="234" y="728"/>
      <point x="289" y="664"/>
      <point x="289" y="540" type="curve" smooth="yes"/>
      <point x="289" y="-33" type="line" smooth="yes"/>
      <point x="289" y="-79"/>
      <point x="308" y="-102"/>
      <point x="347" y="-102" type="curve" smooth="yes"/>
      <point x="359" y="-102"/>
      <point x="391" y="-100"/>
      <point x="402" y="-96" type="curve"/>
      <point x="402" y="-199" type="line"/>
      <point x="380" y="-205"/>
      <point x="350" y="-208"/>
      <point x="313" y="-208" type="curve" smooth="yes"/>
      <point x="206" y="-208"/>
      <point x="153" y="-154"/>
      <point x="153" y="-47" type="curve" smooth="yes"/>
      <point x="153" y="540" type="line"/>
      <point x="138" y="533"/>
      <point x="123" y="529"/>
      <point x="106" y="529" type="curve" smooth="yes"/>
      <point x="49" y="529"/>
      <point x="12" y="568"/>
    </contour>
    <contour>
      <point x="70" y="628" type="curve" smooth="yes"/>
      <point x="70" y="601"/>
      <point x="89" y="585"/>
      <point x="113" y="585" type="curve" smooth="yes"/>
      <point x="136" y="585"/>
      <point x="155" y="601"/>
      <point x="155" y="628" type="curve" smooth="yes"/>
      <point x="155" y="653"/>
      <point x="136" y="670"/>
      <point x="113" y="670" type="curve" smooth="yes"/>
      <point x="89" y="670"/>
      <point x="70" y="653"/>
    </contour>
  </outline>
</glyph>
<glyph name="uni01AB" format="1">
  <advance width="333"/>
  <unicode hex="01AB"/>
  <outline>
    <contour>
      <point x="143" y="-107" type="curve" smooth="yes"/>
      <point x="181" y="-107"/>
      <point x="200" y="-84"/>
      <point x="200" y="-38" type="curve" smooth="yes"/>
      <point x="200" y="-9" type="line"/>
      <point x="123" y="-6"/>
      <point x="79" y="37"/>
      <point x="79" y="124" type="curve" smooth="yes"/>
      <point x="79" y="436" type="line"/>
      <point x="12" y="436" type="line"/>
      <point x="12" y="528" type="line"/>
      <point x="86" y="528" type="line"/>
      <point x="129" y="652" type="line"/>
      <point x="215" y="652" type="line"/>
      <point x="215" y="528" type="line"/>
      <point x="315" y="528" type="line"/>
      <point x="315" y="436" type="line"/>
      <point x="215" y="436" type="line"/>
      <point x="215" y="161" type="line" smooth="yes"/>
      <point x="215" y="110"/>
      <point x="234" y="86"/>
      <point x="275" y="86" type="curve" smooth="yes"/>
      <point x="286" y="86"/>
      <point x="301" y="88"/>
      <point x="321" y="93" type="curve"/>
      <point x="321" y="-60" type="line" smooth="yes"/>
      <point x="321" y="-152"/>
      <point x="273" y="-208"/>
      <point x="170" y="-208" type="curve" smooth="yes"/>
      <point x="145" y="-208"/>
      <point x="118" y="-205"/>
      <point x="89" y="-198" type="curve"/>
      <point x="89" y="-100" type="line"/>
      <point x="112" y="-105"/>
      <point x="130" y="-107"/>
    </contour>
  </outline>
</glyph>
<glyph name="uni01AE" format="1">
  <advance width="611"/>
  <unicode hex="01AE"/>
  <outline>
    <contour>
      <point x="233" y="577" type="line"/>
      <point x="11" y="577" type="line"/>
      <point x="11" y="688" type="line"/>
      <point x="600" y="688" type="line"/>
      <point x="600" y="577" type="line"/>
      <point x="377" y="577" type="line"/>
      <point x="377" y="-21" type="line" smooth="yes"/>
      <point x="377" y="-72"/>
      <point x="394" y="-97"/>
      <point x="435" y="-97" type="curve" smooth="yes"/>
      <point x="444" y="-97"/>
      <point x="459" y="-95"/>
      <point x="481" y="-90" type="curve"/>
      <point x="481" y="-198" type="line"/>
      <point x="452" y="-205"/>
      <point x="425" y="-208"/>
      <point x="401" y="-208" type="curve" smooth="yes"/>
      <point x="288" y="-208"/>
      <point x="233" y="-149"/>
      <point x="233" y="-18" type="curve" smooth="yes"/>
    </contour>
  </outline>
</glyph>
<glyph name="Uhorn" format="1">
  <advance width="830"/>
  <unicode hex="01AF"/>
  <outline>
    <contour>
      <point x="349" y="-10" type="curve" smooth="yes"/>
      <point x="161" y="-10"/>
      <point x="60" y="83"/>
      <point x="60" y="258" type="curve" smooth="yes"/>
      <point x="60" y="688" type="line"/>
      <point x="204" y="688" type="line"/>
      <point x="204" y="269" type="line" smooth="yes"/>
      <point x="204" y="158"/>
      <point x="254" y="103"/>
      <point x="353" y="103" type="curve" smooth="yes"/>
      <point x="456" y="103"/>
      <point x="510" y="163"/>
      <point x="510" y="274" type="curve" smooth="yes"/>
      <point x="510" y="688" type="line"/>
      <point x="654" y="688" type="line"/>
      <point x="654" y="438" type="line"/>
      <point x="723" y="447"/>
      <point x="762" y="492"/>
      <point x="762" y="561" type="curve"/>
      <point x="701" y="561" type="line"/>
      <point x="701" y="688" type="line"/>
      <point x="830" y="688" type="line"/>
      <point x="830" y="585" type="line" smooth="yes"/>
      <point x="830" y="464"/>
      <point x="777" y="391"/>
      <point x="654" y="372" type="curve"/>
      <point x="654" y="265" type="line" smooth="yes"/>
      <point x="654" y="90"/>
      <point x="544" y="-10"/>
    </contour>
  </outline>
</glyph>
<glyph name="uni01B1" format="1">
  <advance width="802"/>
  <unicode hex="01B1"/>
  <outline>
    <contour>
      <point x="401" y="-11" type="curve" smooth="yes"/>
      <point x="197" y="-11"/>
      <point x="65" y="105"/>
      <point x="65" y="288" type="curve" smooth="yes"/>
      <point x="65" y="420"/>
      <point x="131" y="514"/>
      <point x="275" y="582" type="curve"/>
      <point x="233" y="578"/>
      <point x="202" y="576"/>
      <point x="183" y="576" type="curve" smooth="yes"/>
      <point x="51" y="576" type="line"/>
      <point x="51" y="688" type="line"/>
      <point x="369" y="688" type="line"/>
      <point x="369" y="537" type="line"/>
      <point x="262" y="485"/>
      <point x="209" y="414"/>
      <point x="209" y="310" type="curve" smooth="yes"/>
      <point x="209" y="179"/>
      <point x="282" y="103"/>
      <point x="401" y="103" type="curve" smooth="yes"/>
      <point x="521" y="103"/>
      <point x="594" y="179"/>
      <point x="594" y="310" type="curve" smooth="yes"/>
      <point x="594" y="413"/>
      <point x="543" y="485"/>
      <point x="436" y="537" type="curve"/>
      <point x="436" y="688" type="line"/>
      <point x="750" y="688" type="line"/>
      <point x="750" y="576" type="line"/>
      <point x="620" y="576" type="line" smooth="yes"/>
      <point x="601" y="576"/>
      <point x="570" y="578"/>
      <point x="529" y="582" type="curve"/>
      <point x="670" y="514"/>
      <point x="737" y="420"/>
      <point x="737" y="288" type="curve" smooth="yes"/>
      <point x="737" y="108"/>
      <point x="605" y="-11"/>
    </contour>
  </outline>
</glyph>
<glyph name="uni01B3" format="1">
  <advance width="770"/>
  <unicode hex="01B3"/>
  <outline>
    <contour>
      <point x="168" y="688" type="line"/>
      <point x="333" y="397" type="line"/>
      <point x="451" y="605" type="line" smooth="yes"/>
      <point x="487" y="670"/>
      <point x="525" y="698"/>
      <point x="581" y="698" type="curve" smooth="yes"/>
      <point x="632" y="698"/>
      <point x="680" y="677"/>
      <point x="726" y="635" type="curve"/>
      <point x="673" y="545" type="line"/>
      <point x="650" y="565"/>
      <point x="629" y="575"/>
      <point x="610" y="575" type="curve" smooth="yes"/>
      <point x="586" y="575"/>
      <point x="571" y="563"/>
      <point x="554" y="534" type="curve" smooth="yes"/>
      <point x="406" y="282" type="line"/>
      <point x="406" y="0" type="line"/>
      <point x="262" y="0" type="line"/>
      <point x="262" y="282" type="line"/>
      <point x="17" y="688" type="line"/>
    </contour>
  </outline>
</glyph>
<glyph name="uni01B8" format="1">
  <advance width="611"/>
  <unicode hex="01B8"/>
  <outline>
    <contour>
      <point x="321" y="-212" type="curve" smooth="yes"/>
      <point x="232" y="-212"/>
      <point x="162" y="-186"/>
      <point x="111" y="-133" type="curve" smooth="yes"/>
      <point x="60" y="-80"/>
      <point x="35" y="-8"/>
      <point x="35" y="83" type="curve" smooth="yes"/>
      <point x="35" y="249"/>
      <point x="136" y="352"/>
      <point x="288" y="360" type="curve"/>
      <point x="56" y="588" type="line"/>
      <point x="56" y="688" type="line"/>
      <point x="569" y="688" type="line"/>
      <point x="569" y="575" type="line"/>
      <point x="232" y="575" type="line"/>
      <point x="436" y="369" type="line"/>
      <point x="436" y="256" type="line"/>
      <point x="373" y="256" type="line" smooth="yes"/>
      <point x="242" y="256"/>
      <point x="176" y="196"/>
      <point x="176" y="85" type="curve" smooth="yes"/>
      <point x="176" y="-34"/>
      <point x="230" y="-99"/>
      <point x="326" y="-99" type="curve" smooth="yes"/>
      <point x="393" y="-99"/>
      <point x="437" y="-64"/>
      <point x="472" y="21" type="curve"/>
      <point x="598" y="-29" type="line"/>
      <point x="550" y="-154"/>
      <point x="461" y="-212"/>
    </contour>
  </outline>
</glyph>
<glyph name="uni01BB" format="1">
  <advance width="556"/>
  <unicode hex="01BB"/>
  <outline>
    <contour>
      <point x="42" y="280" type="line"/>
      <point x="42" y="373" type="line"/>
      <point x="289" y="373" type="line"/>
      <point x="340" y="419"/>
      <point x="366" y="461"/>
      <point x="366" y="499" type="curve" smooth="yes"/>
      <point x="366" y="559"/>
      <point x="336" y="589"/>
      <point x="276" y="589" type="curve" smooth="yes"/>
      <point x="217" y="589"/>
      <point x="188" y="558"/>
      <point x="179" y="494" type="curve"/>
      <point x="41" y="502" type="line"/>
      <point x="56" y="630"/>
      <point x="138" y="698"/>
      <point x="275" y="698" type="curve" smooth="yes"/>
      <point x="423" y="698"/>
      <point x="505" y="628"/>
      <point x="505" y="505" type="curve" smooth="yes"/>
      <point x="505" y="460"/>
      <point x="489" y="416"/>
      <point x="456" y="373" type="curve"/>
      <point x="509" y="373" type="line"/>
      <point x="509" y="280" type="line"/>
      <point x="362" y="280" type="line"/>
      <point x="311" y="238" type="line" smooth="yes"/>
      <point x="250" y="190"/>
      <point x="212" y="148"/>
      <point x="197" y="113" type="curve"/>
      <point x="516" y="113" type="line"/>
      <point x="516" y="0" type="line"/>
      <point x="35" y="0" type="line"/>
      <point x="35" y="95" type="line"/>
      <point x="62" y="155"/>
      <point x="104" y="211"/>
      <point x="180" y="280" type="curve"/>
    </contour>
  </outline>
</glyph>
<glyph name="uni01BC" format="1">
  <advance width="556"/>
  <unicode hex="01BC"/>
  <outline>
    <contour>
      <point x="34" y="577" type="line"/>
      <point x="34" y="688" type="line"/>
      <point x="513" y="688" type="line"/>
      <point x="513" y="577" type="line"/>
      <point x="254" y="577" type="line"/>
      <point x="254" y="460" type="line"/>
      <point x="271" y="460" type="line" smooth="yes"/>
      <point x="439" y="460"/>
      <point x="526" y="384"/>
      <point x="526" y="237" type="curve" smooth="yes"/>
      <point x="526" y="76"/>
      <point x="439" y="-10"/>
      <point x="271" y="-10" type="curve" smooth="yes"/>
      <point x="135" y="-10"/>
      <point x="46" y="59"/>
      <point x="30" y="178" type="curve"/>
      <point x="167" y="184" type="line"/>
      <point x="180" y="127"/>
      <point x="216" y="99"/>
      <point x="275" y="99" type="curve" smooth="yes"/>
      <point x="352" y="99"/>
      <point x="385" y="139"/>
      <point x="385" y="226" type="curve" smooth="yes"/>
      <point x="385" y="307"/>
      <point x="350" y="346"/>
      <point x="258" y="346" type="curve" smooth="yes"/>
      <point x="119" y="346" type="line"/>
      <point x="119" y="577" type="line"/>
    </contour>
  </outline>
</glyph>
<glyph name="uni01BE" format="1">
  <advance width="579"/>
  <unicode hex="01BE"/>
  <outline>
    <contour>
      <point x="82" y="395" type="curve" smooth="yes"/>
      <point x="82" y="436" type="line"/>
      <point x="15" y="436" type="line"/>
      <point x="15" y="528" type="line"/>
      <point x="89" y="528" type="line"/>
      <point x="132" y="652" type="line"/>
      <point x="218" y="652" type="line"/>
      <point x="218" y="528" type="line"/>
      <point x="318" y="528" type="line"/>
      <point x="318" y="436" type="line"/>
      <point x="218" y="436" type="line"/>
      <point x="218" y="398" type="line" smooth="yes"/>
      <point x="218" y="385"/>
      <point x="221" y="375"/>
      <point x="227" y="366" type="curve" smooth="yes"/>
      <point x="234" y="358"/>
      <point x="243" y="351"/>
      <point x="256" y="345" type="curve" smooth="yes"/>
      <point x="269" y="340"/>
      <point x="299" y="332"/>
      <point x="345" y="322" type="curve" smooth="yes"/>
      <point x="402" y="309"/>
      <point x="442" y="295"/>
      <point x="466" y="282" type="curve" smooth="yes"/>
      <point x="514" y="255"/>
      <point x="542" y="217"/>
      <point x="542" y="154" type="curve" smooth="yes"/>
      <point x="542" y="53"/>
      <point x="453" y="-10"/>
      <point x="305" y="-10" type="curve" smooth="yes"/>
      <point x="160" y="-10"/>
      <point x="87" y="35"/>
      <point x="62" y="132" type="curve"/>
      <point x="182" y="150" type="line"/>
      <point x="195" y="99"/>
      <point x="222" y="81"/>
      <point x="305" y="81" type="curve" smooth="yes"/>
      <point x="381" y="81"/>
      <point x="416" y="99"/>
      <point x="416" y="142" type="curve" smooth="yes"/>
      <point x="416" y="175"/>
      <point x="390" y="194"/>
      <point x="322" y="207" type="curve" smooth="yes"/>
      <point x="246" y="222"/>
      <point x="194" y="236"/>
      <point x="166" y="250" type="curve" smooth="yes"/>
      <point x="111" y="279"/>
      <point x="82" y="324"/>
    </contour>
  </outline>
</glyph>
<glyph name="uni01BF" format="1">
  <advance width="611"/>
  <unicode hex="01BF"/>
  <outline>
    <contour>
      <point x="568" y="326" type="curve" smooth="yes"/>
      <point x="568" y="223"/>
      <point x="539" y="138"/>
      <point x="482" y="71" type="curve" smooth="yes"/>
      <point x="425" y="4"/>
      <point x="334" y="-56"/>
      <point x="207" y="-107" type="curve"/>
      <point x="207" y="-208" type="line"/>
      <point x="70" y="-208" type="line"/>
      <point x="70" y="528" type="line"/>
      <point x="199" y="528" type="line"/>
      <point x="202" y="511"/>
      <point x="204" y="484"/>
      <point x="205" y="448" type="curve"/>
      <point x="207" y="448" type="line"/>
      <point x="240" y="508"/>
      <point x="295" y="540"/>
      <point x="370" y="540" type="curve" smooth="yes"/>
      <point x="497" y="540"/>
      <point x="568" y="452"/>
    </contour>
    <contour>
      <point x="429" y="312" type="curve" smooth="yes"/>
      <point x="429" y="400"/>
      <point x="393" y="444"/>
      <point x="322" y="444" type="curve" smooth="yes"/>
      <point x="250" y="444"/>
      <point x="207" y="382"/>
      <point x="207" y="291" type="curve" smooth="yes"/>
      <point x="207" y="0" type="line"/>
      <point x="359" y="79"/>
      <point x="429" y="177"/>
    </contour>
  </outline>
</glyph>
<glyph name="uni01C5" format="1">
  <advance width="1222"/>
  <unicode hex="01C5"/>
  <outline>
    <contour>
      <point x="680" y="349" type="curve" smooth="yes"/>
      <point x="683" y="137"/>
      <point x="543" y="-3"/>
      <point x="345" y="0" type="curve" smooth="yes"/>
      <point x="67" y="0" type="line"/>
      <point x="67" y="688" type="line"/>
      <point x="316" y="688" type="line" smooth="yes"/>
      <point x="548" y="688"/>
      <point x="680" y="568"/>
    </contour>
    <contour>
      <point x="535" y="349" type="curve" smooth="yes"/>
      <point x="535" y="497"/>
      <point x="456" y="577"/>
      <point x="313" y="577" type="curve" smooth="yes"/>
      <point x="211" y="577" type="line"/>
      <point x="211" y="111" type="line"/>
      <point x="333" y="111" type="line" smooth="yes"/>
      <point x="457" y="111"/>
      <point x="535" y="202"/>
    </contour>
    <contour>
      <point x="1186" y="0" type="line"/>
      <point x="762" y="0" type="line"/>
      <point x="762" y="97" type="line"/>
      <point x="1011" y="429" type="line"/>
      <point x="782" y="429" type="line"/>
      <point x="782" y="528" type="line"/>
      <point x="1162" y="528" type="line"/>
      <point x="1162" y="430" type="line"/>
      <point x="915" y="100" type="line"/>
      <point x="1186" y="100" type="line"/>
    </contour>
    <contour>
      <point x="1174" y="732" type="line"/>
      <point x="1052" y="578" type="line"/>
      <point x="940" y="578" type="line"/>
      <point x="814" y="732" type="line"/>
      <point x="814" y="747" type="line"/>
      <point x="893" y="747" type="line"/>
      <point x="996" y="652" type="line"/>
      <point x="998" y="652" type="line"/>
      <point x="1097" y="747" type="line"/>
      <point x="1174" y="747" type="line"/>
    </contour>
  </outline>
</glyph>
<glyph name="uni01C7" format="1">
  <advance width="1167"/>
  <unicode hex="01C7"/>
  <outline>
    <contour>
      <point x="580" y="0" type="line"/>
      <point x="67" y="0" type="line"/>
      <point x="67" y="688" type="line"/>
      <point x="211" y="688" type="line"/>
      <point x="211" y="111" type="line"/>
      <point x="580" y="111" type="line"/>
    </contour>
    <contour>
      <point x="867" y="-10" type="curve" smooth="yes"/>
      <point x="724" y="-10"/>
      <point x="651" y="48"/>
      <point x="626" y="187" type="curve"/>
      <point x="769" y="208" type="line"/>
      <point x="781" y="136"/>
      <point x="812" y="103"/>
      <point x="868" y="103" type="curve" smooth="yes"/>
      <point x="925" y="103"/>
      <point x="955" y="143"/>
      <point x="955" y="214" type="curve" smooth="yes"/>
      <point x="955" y="575" type="line"/>
      <point x="818" y="575" type="line"/>
      <point x="818" y="688" type="line"/>
      <point x="1099" y="688" type="line"/>
      <point x="1099" y="218" type="line" smooth="yes"/>
      <point x="1099" y="74"/>
      <point x="1014" y="-10"/>
    </contour>
  </outline>
</glyph>
<glyph name="uni01C8" format="1">
  <advance width="889"/>
  <unicode hex="01C8"/>
  <outline>
    <contour>
      <point x="580" y="0" type="line"/>
      <point x="67" y="0" type="line"/>
      <point x="67" y="688" type="line"/>
      <point x="211" y="688" type="line"/>
      <point x="211" y="111" type="line"/>
      <point x="580" y="111" type="line"/>
    </contour>
    <contour>
      <point x="818" y="624" type="line"/>
      <point x="681" y="624" type="line"/>
      <point x="681" y="725" type="line"/>
      <point x="818" y="725" type="line"/>
    </contour>
    <contour>
      <point x="678" y="-208" type="curve" smooth="yes"/>
      <point x="645" y="-208"/>
      <point x="618" y="-206"/>
      <point x="595" y="-203" type="curve"/>
      <point x="595" y="-106" type="line"/>
      <point x="620" y="-108" type="line" smooth="yes"/>
      <point x="667" y="-108"/>
      <point x="681" y="-94"/>
      <point x="681" y="-29" type="curve" smooth="yes"/>
      <point x="681" y="528" type="line"/>
      <point x="818" y="528" type="line"/>
      <point x="818" y="-63" type="line" smooth="yes"/>
      <point x="818" y="-155"/>
      <point x="771" y="-208"/>
    </contour>
  </outline>
</glyph>
<glyph name="uni01CA" format="1">
  <advance width="1278"/>
  <unicode hex="01CA"/>
  <outline>
    <contour>
      <point x="655" y="0" type="line"/>
      <point x="486" y="0" type="line"/>
      <point x="186" y="530" type="line"/>
      <point x="192" y="479"/>
      <point x="195" y="437"/>
      <point x="195" y="406" type="curve" smooth="yes"/>
      <point x="195" y="0" type="line"/>
      <point x="67" y="0" type="line"/>
      <point x="67" y="688" type="line"/>
      <point x="231" y="688" type="line"/>
      <point x="536" y="154" type="line"/>
      <point x="530" y="203"/>
      <point x="527" y="248"/>
      <point x="527" y="288" type="curve" smooth="yes"/>
      <point x="527" y="688" type="line"/>
      <point x="655" y="688" type="line"/>
    </contour>
    <contour>
      <point x="978" y="-10" type="curve" smooth="yes"/>
      <point x="835" y="-10"/>
      <point x="762" y="48"/>
      <point x="737" y="187" type="curve"/>
      <point x="880" y="208" type="line"/>
      <point x="892" y="136"/>
      <point x="923" y="103"/>
      <point x="979" y="103" type="curve" smooth="yes"/>
      <point x="1036" y="103"/>
      <point x="1066" y="143"/>
      <point x="1066" y="214" type="curve" smooth="yes"/>
      <point x="1066" y="575" type="line"/>
      <point x="929" y="575" type="line"/>
      <point x="929" y="688" type="line"/>
      <point x="1210" y="688" type="line"/>
      <point x="1210" y="218" type="line" smooth="yes"/>
      <point x="1210" y="74"/>
      <point x="1125" y="-10"/>
    </contour>
  </outline>
</glyph>
<glyph name="uni01CB" format="1">
  <advance width="1000"/>
  <unicode hex="01CB"/>
  <outline>
    <contour>
      <point x="655" y="0" type="line"/>
      <point x="486" y="0" type="line"/>
      <point x="186" y="530" type="line"/>
      <point x="192" y="479"/>
      <point x="195" y="437"/>
      <point x="195" y="406" type="curve" smooth="yes"/>
      <point x="195" y="0" type="line"/>
      <point x="67" y="0" type="line"/>
      <point x="67" y="688" type="line"/>
      <point x="231" y="688" type="line"/>
      <point x="536" y="154" type="line"/>
      <point x="530" y="203"/>
      <point x="527" y="248"/>
      <point x="527" y="288" type="curve" smooth="yes"/>
      <point x="527" y="688" type="line"/>
      <point x="655" y="688" type="line"/>
    </contour>
    <contour>
      <point x="930" y="624" type="line"/>
      <point x="792" y="624" type="line"/>
      <point x="792" y="725" type="line"/>
      <point x="930" y="725" type="line"/>
    </contour>
    <contour>
      <point x="790" y="-208" type="curve" smooth="yes"/>
      <point x="757" y="-208"/>
      <point x="730" y="-206"/>
      <point x="707" y="-203" type="curve"/>
      <point x="707" y="-106" type="line"/>
      <point x="731" y="-108" type="line" smooth="yes"/>
      <point x="779" y="-108"/>
      <point x="792" y="-94"/>
      <point x="792" y="-29" type="curve" smooth="yes"/>
      <point x="792" y="528" type="line"/>
      <point x="930" y="528" type="line"/>
      <point x="930" y="-63" type="line" smooth="yes"/>
      <point x="930" y="-155"/>
      <point x="882" y="-208"/>
    </contour>
  </outline>
</glyph>
<glyph name="uni01D0" format="1">
  <advance width="278"/>
  <unicode hex="01D0"/>
  <outline>
    <contour>
      <point x="208" y="0" type="line"/>
      <point x="71" y="0" type="line"/>
      <point x="71" y="528" type="line"/>
      <point x="208" y="528" type="line"/>
    </contour>
    <contour>
      <point x="320" y="732" type="line"/>
      <point x="198" y="578" type="line"/>
      <point x="86" y="578" type="line"/>
      <point x="-40" y="732" type="line"/>
      <point x="-40" y="747" type="line"/>
      <point x="38" y="747" type="line"/>
      <point x="141" y="652" type="line"/>
      <point x="143" y="652" type="line"/>
      <point x="242" y="747" type="line"/>
      <point x="320" y="747" type="line"/>
    </contour>
  </outline>
</glyph>
<glyph name="uni01D2" format="1">
  <advance width="611"/>
  <unicode hex="01D2"/>
  <outline>
    <contour>
      <point x="572" y="265" type="curve" smooth="yes"/>
      <point x="572" y="93"/>
      <point x="471" y="-10"/>
      <point x="303" y="-10" type="curve" smooth="yes"/>
      <point x="221" y="-10"/>
      <point x="156" y="14"/>
      <point x="109" y="63" type="curve" smooth="yes"/>
      <point x="62" y="112"/>
      <point x="39" y="180"/>
      <point x="39" y="265" type="curve" smooth="yes"/>
      <point x="39" y="434"/>
      <point x="138" y="538"/>
      <point x="306" y="538" type="curve" smooth="yes"/>
      <point x="479" y="538"/>
      <point x="572" y="441"/>
    </contour>
    <contour>
      <point x="428" y="265" type="curve" smooth="yes"/>
      <point x="428" y="390"/>
      <point x="387" y="444"/>
      <point x="308" y="444" type="curve" smooth="yes"/>
      <point x="225" y="444"/>
      <point x="183" y="384"/>
      <point x="183" y="265" type="curve" smooth="yes"/>
      <point x="183" y="146"/>
      <point x="225" y="84"/>
      <point x="302" y="84" type="curve" smooth="yes"/>
      <point x="386" y="84"/>
      <point x="428" y="144"/>
    </contour>
    <contour>
      <point x="485" y="732" type="line"/>
      <point x="363" y="578" type="line"/>
      <point x="251" y="578" type="line"/>
      <point x="125" y="732" type="line"/>
      <point x="125" y="747" type="line"/>
      <point x="204" y="747" type="line"/>
      <point x="307" y="652" type="line"/>
      <point x="309" y="652" type="line"/>
      <point x="408" y="747" type="line"/>
      <point x="485" y="747" type="line"/>
    </contour>
  </outline>
</glyph>
<glyph name="uni01D9" format="1">
  <advance width="722"/>
  <unicode hex="01D9"/>
  <outline>
    <contour>
      <point x="353" y="-10" type="curve" smooth="yes"/>
      <point x="164" y="-10"/>
      <point x="60" y="86"/>
      <point x="60" y="258" type="curve" smooth="yes"/>
      <point x="60" y="688" type="line"/>
      <point x="204" y="688" type="line"/>
      <point x="204" y="269" type="line" smooth="yes"/>
      <point x="204" y="161"/>
      <point x="257" y="103"/>
      <point x="357" y="103" type="curve" smooth="yes"/>
      <point x="460" y="103"/>
      <point x="517" y="163"/>
      <point x="517" y="274" type="curve" smooth="yes"/>
      <point x="517" y="688" type="line"/>
      <point x="661" y="688" type="line"/>
      <point x="661" y="265" type="line" smooth="yes"/>
      <point x="661" y="90"/>
      <point x="549" y="-10"/>
    </contour>
    <contour>
      <point x="489" y="790" type="line"/>
      <point x="489" y="716" type="line"/>
      <point x="411" y="716" type="line"/>
      <point x="411" y="790" type="line"/>
    </contour>
    <contour>
      <point x="310" y="790" type="line"/>
      <point x="310" y="716" type="line"/>
      <point x="232" y="716" type="line"/>
      <point x="232" y="790" type="line"/>
    </contour>
    <contour>
      <point x="360" y="863" type="line"/>
      <point x="434" y="896" type="line"/>
      <point x="510" y="896" type="line"/>
      <point x="510" y="891" type="line"/>
      <point x="408" y="821" type="line"/>
      <point x="313" y="821" type="line"/>
      <point x="211" y="890" type="line"/>
      <point x="211" y="896" type="line"/>
      <point x="287" y="896" type="line"/>
    </contour>
  </outline>
</glyph>
<glyph name="uni01DC" format="1">
  <advance width="611"/>
  <unicode hex="01DC"/>
  <outline>
    <contour>
      <point x="62" y="528" type="line"/>
      <point x="199" y="528" type="line"/>
      <point x="199" y="232" type="line" smooth="yes"/>
      <point x="199" y="139"/>
      <point x="230" y="93"/>
      <point x="293" y="93" type="curve" smooth="yes"/>
      <point x="360" y="93"/>
      <point x="404" y="156"/>
      <point x="404" y="245" type="curve" smooth="yes"/>
      <point x="404" y="528" type="line"/>
      <point x="541" y="528" type="line"/>
      <point x="541" y="118" type="line" smooth="yes"/>
      <point x="541" y="73"/>
      <point x="542" y="34"/>
      <point x="545" y="0" type="curve"/>
      <point x="414" y="0" type="line"/>
      <point x="410" y="47"/>
      <point x="408" y="82"/>
      <point x="408" y="105" type="curve"/>
      <point x="406" y="105" type="line"/>
      <point x="369" y="25"/>
      <point x="313" y="-10"/>
      <point x="236" y="-10" type="curve" smooth="yes"/>
      <point x="124" y="-10"/>
      <point x="62" y="60"/>
      <point x="62" y="193" type="curve" smooth="yes"/>
    </contour>
    <contour>
      <point x="462" y="585" type="line"/>
      <point x="356" y="585" type="line"/>
      <point x="356" y="692" type="line"/>
      <point x="462" y="692" type="line"/>
    </contour>
    <contour>
      <point x="249" y="585" type="line"/>
      <point x="145" y="585" type="line"/>
      <point x="145" y="692" type="line"/>
      <point x="249" y="692" type="line"/>
    </contour>
    <contour>
      <point x="384" y="733" type="line"/>
      <point x="302" y="733" type="line"/>
      <point x="136" y="851" type="line"/>
      <point x="136" y="872" type="line"/>
      <point x="262" y="872" type="line"/>
      <point x="384" y="748" type="line"/>
    </contour>
  </outline>
</glyph>
<glyph name="uni01DE" format="1">
  <advance width="722"/>
  <unicode hex="01DE"/>
  <outline>
    <contour>
      <point x="696" y="0" type="line"/>
      <point x="553" y="0" type="line"/>
      <point x="492" y="176" type="line"/>
      <point x="230" y="176" type="line"/>
      <point x="169" y="0" type="line"/>
      <point x="25" y="0" type="line"/>
      <point x="276" y="688" type="line"/>
      <point x="446" y="688" type="line"/>
    </contour>
    <contour>
      <point x="371" y="548" type="line"/>
      <point x="361" y="582" type="line"/>
      <point x="358" y="571" type="line"/>
      <point x="346" y="531" type="line"/>
      <point x="262" y="284" type="line"/>
      <point x="460" y="284" type="line"/>
      <point x="392" y="482" type="line"/>
    </contour>
    <contour>
      <point x="487" y="790" type="line"/>
      <point x="487" y="716" type="line"/>
      <point x="409" y="716" type="line"/>
      <point x="409" y="790" type="line"/>
    </contour>
    <contour>
      <point x="308" y="790" type="line"/>
      <point x="308" y="716" type="line"/>
      <point x="230" y="716" type="line"/>
      <point x="230" y="790" type="line"/>
    </contour>
    <contour>
      <point x="209" y="829" type="line"/>
      <point x="209" y="896" type="line"/>
      <point x="508" y="896" type="line"/>
      <point x="508" y="829" type="line"/>
    </contour>
  </outline>
</glyph>
<glyph name="uni01E3" format="1">
  <advance width="889"/>
  <unicode hex="01E3"/>
  <outline>
    <contour>
      <point x="612" y="-10" type="curve" smooth="yes"/>
      <point x="511" y="-10"/>
      <point x="440" y="27"/>
      <point x="400" y="102" type="curve"/>
      <point x="357" y="27"/>
      <point x="289" y="-10"/>
      <point x="198" y="-10" type="curve" smooth="yes"/>
      <point x="94" y="-10"/>
      <point x="32" y="49"/>
      <point x="32" y="149" type="curve" smooth="yes"/>
      <point x="32" y="257"/>
      <point x="106" y="315"/>
      <point x="247" y="318" type="curve" smooth="yes"/>
      <point x="364" y="320" type="line"/>
      <point x="364" y="347" type="line" smooth="yes"/>
      <point x="364" y="418"/>
      <point x="339" y="449"/>
      <point x="282" y="449" type="curve" smooth="yes"/>
      <point x="227" y="449"/>
      <point x="206" y="426"/>
      <point x="199" y="375" type="curve"/>
      <point x="56" y="381" type="line"/>
      <point x="73" y="484"/>
      <point x="151" y="538"/>
      <point x="286" y="538" type="curve" smooth="yes"/>
      <point x="357" y="538"/>
      <point x="411" y="521"/>
      <point x="449" y="486" type="curve"/>
      <point x="491" y="521"/>
      <point x="546" y="538"/>
      <point x="614" y="538" type="curve" smooth="yes"/>
      <point x="766" y="538"/>
      <point x="848" y="435"/>
      <point x="848" y="242" type="curve" smooth="yes"/>
      <point x="848" y="232" type="line"/>
      <point x="509" y="232" type="line"/>
      <point x="509" y="137"/>
      <point x="548" y="82"/>
      <point x="619" y="82" type="curve" smooth="yes"/>
      <point x="667" y="82"/>
      <point x="697" y="103"/>
      <point x="710" y="145" type="curve"/>
      <point x="840" y="134" type="line"/>
      <point x="803" y="38"/>
      <point x="727" y="-10"/>
    </contour>
    <contour>
      <point x="242" y="86" type="curve" smooth="yes"/>
      <point x="312" y="86"/>
      <point x="364" y="151"/>
      <point x="364" y="223" type="curve" smooth="yes"/>
      <point x="364" y="245" type="line"/>
      <point x="290" y="244" type="line" smooth="yes"/>
      <point x="256" y="243"/>
      <point x="232" y="239"/>
      <point x="218" y="233" type="curve" smooth="yes"/>
      <point x="190" y="222"/>
      <point x="175" y="199"/>
      <point x="175" y="160" type="curve" smooth="yes"/>
      <point x="175" y="111"/>
      <point x="202" y="86"/>
    </contour>
    <contour>
      <point x="612" y="452" type="curve" smooth="yes"/>
      <point x="547" y="452"/>
      <point x="511" y="404"/>
      <point x="510" y="324" type="curve"/>
      <point x="715" y="324" type="line"/>
      <point x="710" y="409"/>
      <point x="672" y="452"/>
    </contour>
    <contour>
      <point x="295" y="587" type="line"/>
      <point x="295" y="669" type="line"/>
      <point x="594" y="669" type="line"/>
      <point x="594" y="587" type="line"/>
    </contour>
  </outline>
</glyph>
<glyph name="uni01E4" format="1">
  <advance width="778"/>
  <unicode hex="01E4"/>
  <outline>
    <contour>
      <point x="418" y="162" type="line"/>
      <point x="418" y="234" type="line"/>
      <point x="584" y="234" type="line"/>
      <point x="584" y="296" type="line"/>
      <point x="416" y="296" type="line"/>
      <point x="416" y="403" type="line"/>
      <point x="716" y="403" type="line"/>
      <point x="716" y="234" type="line"/>
      <point x="772" y="234" type="line"/>
      <point x="772" y="162" type="line"/>
      <point x="716" y="162" type="line"/>
      <point x="716" y="110" type="line"/>
      <point x="643" y="35"/>
      <point x="518" y="-10"/>
      <point x="390" y="-10" type="curve" smooth="yes"/>
      <point x="166" y="-10"/>
      <point x="41" y="119"/>
      <point x="41" y="347" type="curve" smooth="yes"/>
      <point x="41" y="574"/>
      <point x="166" y="698"/>
      <point x="393" y="698" type="curve" smooth="yes"/>
      <point x="554" y="698"/>
      <point x="657" y="638"/>
      <point x="701" y="519" type="curve"/>
      <point x="568" y="479" type="line"/>
      <point x="540" y="548"/>
      <point x="476" y="585"/>
      <point x="393" y="585" type="curve" smooth="yes"/>
      <point x="258" y="585"/>
      <point x="186" y="500"/>
      <point x="186" y="347" type="curve" smooth="yes"/>
      <point x="186" y="191"/>
      <point x="262" y="103"/>
      <point x="394" y="103" type="curve" smooth="yes"/>
      <point x="477" y="103"/>
      <point x="550" y="126"/>
      <point x="589" y="162" type="curve"/>
    </contour>
  </outline>
</glyph>
<glyph name="uni01E5" format="1">
  <advance width="611"/>
  <unicode hex="01E5"/>
  <outline>
    <contour>
      <point x="18" y="-45" type="line"/>
      <point x="18" y="0" type="line"/>
      <point x="404" y="0" type="line"/>
      <point x="405" y="18" type="line"/>
      <point x="405" y="46" type="line"/>
      <point x="406" y="98" type="line"/>
      <point x="405" y="98" type="line"/>
      <point x="365" y="46"/>
      <point x="314" y="25"/>
      <point x="243" y="25" type="curve" smooth="yes"/>
      <point x="112" y="25"/>
      <point x="41" y="120"/>
      <point x="41" y="281" type="curve" smooth="yes"/>
      <point x="41" y="448"/>
      <point x="114" y="539"/>
      <point x="245" y="539" type="curve" smooth="yes"/>
      <point x="322" y="539"/>
      <point x="375" y="507"/>
      <point x="405" y="443" type="curve"/>
      <point x="407" y="443" type="line"/>
      <point x="407" y="454"/>
      <point x="408" y="470"/>
      <point x="409" y="489" type="curve" smooth="yes"/>
      <point x="411" y="509"/>
      <point x="413" y="522"/>
      <point x="414" y="528" type="curve"/>
      <point x="544" y="528" type="line"/>
      <point x="542" y="493"/>
      <point x="541" y="453"/>
      <point x="541" y="406" type="curve" smooth="yes"/>
      <point x="541" y="0" type="line"/>
      <point x="589" y="0" type="line"/>
      <point x="589" y="-45" type="line"/>
      <point x="535" y="-45" type="line"/>
      <point x="514" y="-157"/>
      <point x="427" y="-212"/>
      <point x="291" y="-212" type="curve" smooth="yes"/>
      <point x="174" y="-212"/>
      <point x="96" y="-170"/>
      <point x="69" y="-91" type="curve"/>
      <point x="207" y="-73" type="line"/>
      <point x="222" y="-106"/>
      <point x="252" y="-122"/>
      <point x="295" y="-122" type="curve" smooth="yes"/>
      <point x="350" y="-122"/>
      <point x="384" y="-96"/>
      <point x="397" y="-45" type="curve"/>
    </contour>
    <contour>
      <point x="406" y="284" type="curve" smooth="yes"/>
      <point x="406" y="385"/>
      <point x="366" y="444"/>
      <point x="294" y="444" type="curve" smooth="yes"/>
      <point x="221" y="444"/>
      <point x="184" y="390"/>
      <point x="184" y="281" type="curve" smooth="yes"/>
      <point x="184" y="174"/>
      <point x="220" y="121"/>
      <point x="293" y="121" type="curve" smooth="yes"/>
      <point x="365" y="121"/>
      <point x="406" y="177"/>
    </contour>
  </outline>
</glyph>
<glyph name="uni01E8" format="1">
  <advance width="722"/>
  <unicode hex="01E8"/>
  <outline>
    <contour>
      <point x="713" y="0" type="line"/>
      <point x="543" y="0" type="line"/>
      <point x="296" y="316" type="line"/>
      <point x="211" y="251" type="line"/>
      <point x="211" y="0" type="line"/>
      <point x="67" y="0" type="line"/>
      <point x="67" y="688" type="line"/>
      <point x="211" y="688" type="line"/>
      <point x="211" y="376" type="line"/>
      <point x="521" y="688" type="line"/>
      <point x="689" y="688" type="line"/>
      <point x="395" y="397" type="line"/>
    </contour>
    <contour>
      <point x="532" y="882" type="line"/>
      <point x="410" y="747" type="line"/>
      <point x="298" y="747" type="line"/>
      <point x="172" y="882" type="line"/>
      <point x="172" y="896" type="line"/>
      <point x="250" y="896" type="line"/>
      <point x="354" y="822" type="line"/>
      <point x="355" y="822" type="line"/>
      <point x="455" y="896" type="line"/>
      <point x="532" y="896" type="line"/>
    </contour>
  </outline>
</glyph>
<glyph name="uni01E9" format="1">
  <advance width="556"/>
  <unicode hex="01E9"/>
  <outline>
    <contour>
      <point x="557" y="0" type="line"/>
      <point x="407" y="0" type="line"/>
      <point x="266" y="239" type="line"/>
      <point x="207" y="198" type="line"/>
      <point x="207" y="0" type="line"/>
      <point x="70" y="0" type="line"/>
      <point x="70" y="725" type="line"/>
      <point x="207" y="725" type="line"/>
      <point x="207" y="310" type="line"/>
      <point x="396" y="528" type="line"/>
      <point x="543" y="528" type="line"/>
      <point x="357" y="322" type="line"/>
    </contour>
    <contour>
      <point x="474" y="902" type="line"/>
      <point x="352" y="768" type="line"/>
      <point x="240" y="768" type="line"/>
      <point x="114" y="902" type="line"/>
      <point x="114" y="917" type="line"/>
      <point x="192" y="917" type="line"/>
      <point x="295" y="842" type="line"/>
      <point x="297" y="842" type="line"/>
      <point x="396" y="917" type="line"/>
      <point x="474" y="917" type="line"/>
    </contour>
  </outline>
</glyph>
